if (_typeface_js && _typeface_js.loadFace) _typeface_js.loadFace({"glyphs":{"ợ":{"x_min":52.84375,"x_max":769.546875,"ha":768,"o":"m 383 594 b 586 339 529 596 586 453 b 380 76 584 186 497 76 b 177 335 261 76 177 187 b 383 594 177 461 240 594 m 652 768 b 676 688 666 745 676 717 b 619 632 675 651 655 632 b 501 668 576 632 534 658 b 386 686 463 679 427 686 b 52 330 201 686 52 554 b 375 -15 52 118 194 -15 b 709 341 536 -15 709 93 b 640 564 709 430 684 507 b 769 683 725 560 769 610 b 745 785 769 722 759 757 l 652 768 m 383 -111 b 312 -183 344 -111 312 -143 b 382 -254 312 -221 341 -254 b 451 -183 423 -254 451 -221 b 383 -111 451 -143 422 -111 "},"":{"x_min":-46.953125,"x_max":466.9375,"ha":418,"o":"m 16 1002 b 84 1070 57 1002 84 1031 b 19 1139 84 1109 57 1139 b -46 1070 -17 1139 -46 1109 b 16 1002 -46 1034 -20 1002 m 397 1002 b 466 1070 439 1002 466 1031 b 401 1139 466 1109 439 1139 b 334 1070 364 1139 334 1109 b 397 1002 334 1034 361 1002 m 78 1150 l 240 988 l 333 988 l 221 1150 l 78 1150 "},"Ẩ":{"x_min":36.109375,"x_max":818.0625,"ha":850,"o":"m 588 294 l 688 0 l 818 0 l 498 936 l 354 936 l 36 0 l 161 0 l 256 294 l 588 294 m 281 389 l 373 660 b 420 829 393 717 406 774 l 423 829 b 472 658 437 775 451 719 l 563 389 l 281 389 m 384 1145 l 255 986 l 350 986 l 426 1082 l 429 1082 l 506 986 l 602 986 l 472 1145 l 384 1145 m 637 1047 b 733 1192 673 1111 733 1125 b 623 1289 733 1246 686 1289 b 491 1200 555 1289 515 1249 l 536 1174 b 604 1224 551 1198 575 1224 b 651 1180 630 1224 651 1206 b 579 1064 651 1135 601 1121 l 637 1047 "},"₅":{"x_min":26.390625,"x_max":387.5,"ha":428,"o":"m 372 335 l 91 335 l 55 69 b 134 75 76 72 104 75 b 291 -34 247 75 291 29 b 169 -140 291 -101 231 -140 b 45 -110 116 -140 69 -123 l 26 -179 b 172 -212 54 -195 111 -212 b 387 -26 300 -212 387 -134 b 311 112 387 41 352 89 b 181 142 273 135 227 142 b 138 140 163 142 150 142 l 156 258 l 372 258 l 372 335 "},"ǻ":{"x_min":48.90625,"x_max":583.046875,"ha":669,"o":"m 412 1159 l 263 1011 l 349 1011 l 546 1159 l 412 1159 m 573 412 b 318 686 573 546 523 686 b 97 628 233 686 153 663 l 125 546 b 299 596 172 578 237 596 b 452 442 437 597 452 496 l 452 428 b 48 177 193 429 48 340 b 254 -15 48 80 118 -15 b 458 84 349 -15 421 31 l 462 84 l 473 0 l 583 0 b 573 161 576 45 573 102 l 573 412 m 455 226 b 449 187 455 214 453 200 b 286 75 430 130 373 75 b 170 191 223 75 170 111 b 453 343 170 322 322 346 l 455 226 m 334 722 b 473 849 412 722 473 777 b 335 979 473 924 417 979 b 194 849 248 979 194 923 b 334 722 194 778 251 722 m 333 774 b 265 849 292 774 265 811 b 331 928 265 891 290 928 b 405 850 377 928 405 893 b 333 774 405 809 376 774 "},"":{"x_min":27.78125,"x_max":281.9375,"ha":394,"o":"m 27 1007 l 27 931 l 186 931 l 186 -25 l 27 -25 l 27 -101 l 281 -101 l 281 1007 l 27 1007 "},"Ổ":{"x_min":50,"x_max":905.5625,"ha":957,"o":"m 483 953 b 50 461 233 953 50 758 b 470 -15 50 177 222 -15 b 905 478 709 -15 905 156 b 483 953 905 757 740 953 m 479 854 b 777 472 680 854 777 660 b 477 83 777 259 669 83 b 177 464 286 83 177 262 b 479 854 177 668 277 854 m 440 1145 l 312 986 l 406 986 l 483 1084 l 486 1084 l 562 986 l 659 986 l 529 1145 l 440 1145 m 694 1047 b 790 1192 730 1111 790 1125 b 680 1289 790 1246 743 1289 b 547 1200 612 1289 572 1249 l 591 1174 b 661 1225 608 1198 630 1225 b 708 1180 687 1225 708 1206 b 636 1064 708 1135 658 1121 l 694 1047 "},"Ừ":{"x_min":104.171875,"x_max":940.28125,"ha":940,"o":"m 823 1070 b 845 989 837 1045 845 1016 b 781 936 845 953 829 936 l 672 936 l 672 380 b 444 83 672 175 581 83 b 226 380 319 83 226 172 l 226 936 l 104 936 l 104 385 b 440 -15 104 93 248 -15 b 794 389 643 -15 794 101 l 794 863 l 815 864 b 940 982 898 867 940 914 b 916 1087 940 1021 930 1056 l 823 1070 m 254 1149 l 431 988 l 530 988 l 401 1149 l 254 1149 "},"Á":{"x_min":35,"x_max":818,"ha":850,"o":"m 588 294 l 688 0 l 818 0 l 498 936 l 354 936 l 35 0 l 159 0 l 257 294 l 588 294 m 282 389 l 373 660 b 420 829 393 717 407 775 l 423 829 b 472 658 437 775 451 720 l 565 389 l 282 389 m 483 1149 l 354 986 l 452 986 l 630 1149 l 483 1149 "},"ĥ":{"x_min":-22.21875,"x_max":673.609375,"ha":771,"o":"m 101 0 l 223 0 l 223 405 b 231 464 223 428 225 446 b 395 585 255 529 316 585 b 551 386 511 585 551 494 l 551 0 l 673 0 l 673 400 b 438 686 673 631 529 686 b 313 653 393 686 350 674 b 226 565 276 632 245 600 l 223 565 l 223 986 l 101 986 l 101 0 m 119 1171 l -22 1013 l 76 1013 l 165 1109 l 168 1109 l 255 1013 l 358 1013 l 212 1171 l 119 1171 "},"":{"x_min":38.890625,"x_max":1097.21875,"ha":1136,"o":"m 258 838 b 38 556 136 838 38 736 b 250 283 40 375 136 283 b 465 568 366 283 465 378 b 258 838 465 740 383 838 m 251 764 b 369 562 337 764 369 672 b 252 357 369 443 333 357 b 134 560 176 357 133 446 b 251 764 134 674 176 764 m 362 -16 l 850 845 l 772 845 l 284 -16 l 362 -16 m 890 544 b 670 262 768 544 670 443 b 881 -9 672 80 768 -9 b 1097 275 998 -9 1097 84 b 890 544 1097 447 1015 544 m 883 471 b 1001 269 969 471 1001 379 b 884 63 1001 150 965 63 b 766 266 808 63 765 151 b 883 471 766 380 808 471 "},"":{"x_min":30.5625,"x_max":386.109375,"ha":417,"o":"m 386 1009 b 211 1155 380 1095 325 1155 b 30 1009 94 1155 37 1096 l 123 1007 b 208 1091 129 1049 144 1091 b 293 1007 273 1091 287 1046 l 386 1009 "},"Κ":{"x_min":105.5625,"x_max":766.671875,"ha":753,"o":"m 105 0 l 226 0 l 226 357 l 316 460 l 623 0 l 766 0 l 401 539 l 740 936 l 590 936 l 304 585 b 230 485 280 554 255 521 l 226 485 l 226 936 l 105 936 l 105 0 "},"»":{"x_min":33,"x_max":541,"ha":582,"o":"m 217 350 l 33 94 l 130 94 l 314 350 l 130 606 l 33 606 l 217 350 m 443 350 l 259 94 l 356 94 l 541 350 l 356 606 l 257 606 l 443 350 "},"":{"x_min":125.328125,"x_max":617,"ha":736,"o":"m 408 -112 l 408 1 b 617 193 542 20 617 105 b 412 389 617 283 553 343 b 261 503 293 428 261 454 b 396 589 261 554 319 589 b 557 547 461 589 523 567 l 589 631 b 418 674 554 650 493 671 l 418 789 l 339 789 l 339 670 b 140 494 221 656 140 587 b 351 304 140 401 210 351 b 492 187 450 271 492 241 b 343 87 492 125 423 87 b 158 137 276 87 197 109 l 125 54 b 329 -1 172 22 255 0 l 329 -112 l 408 -112 "},"∆":{"x_min":35.921875,"x_max":755.078125,"ha":790,"o":"m 755 0 l 755 69 l 464 911 l 328 911 l 35 68 l 35 0 l 755 0 m 627 100 l 158 100 l 330 601 b 389 803 351 668 376 754 l 394 803 b 460 583 410 742 438 650 l 627 100 "},"ỹ":{"x_min":12.5,"x_max":644.4375,"ha":654,"o":"m 12 672 l 259 52 b 269 20 266 37 269 27 b 259 -8 269 13 265 4 b 156 -144 230 -70 190 -118 b 50 -204 120 -175 80 -194 l 80 -305 b 230 -227 111 -300 169 -279 b 461 193 313 -154 373 -37 l 644 672 l 515 672 l 381 278 b 338 137 365 229 351 177 l 336 137 b 291 275 325 177 308 230 l 145 672 l 12 672 m 230 788 b 266 850 233 827 244 850 b 326 827 283 850 298 842 b 412 796 355 810 381 796 b 506 936 477 796 508 845 l 441 936 b 404 878 438 891 425 878 b 344 902 386 878 366 889 b 258 932 312 918 288 932 b 163 788 198 932 161 878 l 230 788 "},"ў":{"x_min":12.5,"x_max":644.4375,"ha":654,"o":"m 147 946 b 322 774 152 852 200 774 b 506 946 429 774 500 834 l 419 946 b 325 840 412 886 384 840 b 236 946 269 840 240 886 l 147 946 m 12 672 l 259 52 b 269 20 266 37 269 27 b 259 -8 269 13 265 4 b 156 -144 230 -70 190 -118 b 50 -204 120 -175 80 -194 l 80 -305 b 230 -227 111 -300 169 -279 b 461 193 313 -154 373 -37 l 644 672 l 515 672 l 381 278 b 338 137 365 229 351 177 l 336 137 b 291 275 325 177 308 230 l 145 672 l 12 672 "},"ţ":{"x_min":24.5625,"x_max":423.171875,"ha":460,"o":"m 128 797 l 128 672 l 24 672 l 24 579 l 128 579 l 128 212 b 175 36 128 133 142 73 b 307 -15 205 4 250 -15 b 416 1 355 -15 392 -6 l 410 94 b 339 86 392 88 373 86 b 248 216 271 86 248 133 l 248 579 l 423 579 l 423 672 l 248 672 l 248 834 l 128 797 m 169 -315 b 348 -166 255 -309 348 -268 b 292 -63 348 -120 320 -82 l 202 -83 b 249 -168 227 -102 249 -134 b 145 -258 249 -222 199 -250 l 169 -315 "},"«":{"x_min":40,"x_max":550,"ha":582,"o":"m 322 606 l 223 606 l 40 350 l 223 94 l 323 94 l 137 350 l 322 606 m 550 606 l 451 606 l 267 350 l 451 94 l 550 94 l 365 350 l 550 606 "},"ử":{"x_min":97.21875,"x_max":797.21875,"ha":765,"o":"m 679 807 b 704 728 694 782 704 754 b 638 672 704 692 686 672 l 541 672 l 541 261 b 530 198 541 237 537 215 b 369 86 508 143 451 86 b 219 300 259 86 219 172 l 219 672 l 97 672 l 97 279 b 329 -15 97 44 223 -15 b 551 109 448 -15 520 55 l 554 109 l 561 0 l 669 0 b 663 183 665 52 663 113 l 663 606 l 679 606 b 797 724 747 608 797 654 b 772 824 797 760 787 795 l 679 807 m 413 736 b 518 899 445 800 518 821 b 401 1003 518 961 466 1003 b 265 911 331 1003 290 961 l 312 882 b 380 931 327 907 350 931 b 426 885 405 931 426 913 b 347 753 426 834 363 814 l 413 736 "},"":{"x_min":49.65625,"x_max":819.109375,"ha":897,"o":"m 819 492 l 510 492 l 510 394 l 699 394 l 699 115 b 538 90 671 101 617 90 b 177 468 319 90 177 230 b 553 845 177 703 326 845 b 760 804 648 845 710 828 l 791 903 b 556 946 751 923 664 946 b 49 462 242 946 49 742 b 180 113 49 316 99 191 b 530 -9 271 26 388 -9 b 819 41 656 -9 764 20 l 819 492 m 403 993 b 439 1055 408 1031 417 1055 b 505 1028 460 1055 478 1042 b 591 1002 537 1013 562 1002 b 684 1137 655 1002 685 1049 l 620 1137 b 583 1082 616 1092 603 1082 b 516 1107 560 1082 538 1095 b 433 1135 485 1123 463 1135 b 338 993 373 1135 337 1078 l 403 993 "},"í":{"x_min":94.4375,"x_max":350,"ha":325,"o":"m 223 0 l 223 672 l 101 672 l 101 0 l 223 0 m 216 963 l 94 764 l 180 764 l 350 963 l 216 963 "},"ņ":{"x_min":95.828125,"x_max":673.609375,"ha":771,"o":"m 101 0 l 223 0 l 223 404 b 231 461 223 425 226 446 b 395 586 254 529 316 586 b 551 387 511 586 551 496 l 551 0 l 673 0 l 673 400 b 436 686 673 631 529 686 b 213 561 325 686 247 624 l 211 561 l 204 672 l 95 672 b 101 490 100 617 101 561 l 101 0 m 306 -305 b 486 -157 393 -300 486 -258 b 430 -54 486 -111 458 -72 l 340 -73 b 387 -158 365 -93 387 -125 b 283 -248 387 -212 337 -240 l 306 -305 "},"":{"x_min":49.9375,"x_max":662.015625,"ha":713,"o":"m 201 234 b 167 456 179 293 166 368 b 356 824 169 678 241 824 b 481 753 412 824 453 797 l 201 234 m 514 670 b 544 456 534 608 544 536 b 353 79 544 225 481 79 b 234 147 303 79 265 103 l 514 670 m 656 901 l 595 942 l 541 850 b 363 918 494 896 434 918 b 49 449 180 918 48 754 b 127 113 51 304 79 189 l 63 10 l 124 -32 l 174 54 b 349 -14 223 7 283 -14 b 662 461 548 -14 662 154 b 588 792 662 600 637 713 l 656 901 "},"µ":{"x_min":101.390625,"x_max":731.953125,"ha":768,"o":"m 559 104 b 679 -15 570 18 619 -15 b 722 -9 700 -15 706 -13 l 731 79 b 668 185 681 82 668 111 l 668 673 l 545 673 l 545 261 b 534 197 545 237 541 215 b 375 85 512 142 455 85 b 223 275 266 85 223 171 l 223 673 l 101 673 l 101 -26 b 120 -274 101 -134 106 -233 l 230 -274 b 215 -20 218 -219 215 -95 l 215 61 b 362 -12 244 10 301 -12 b 555 104 462 -12 527 51 l 559 104 "},"ỳ":{"x_min":13,"x_max":645,"ha":654,"o":"m 13 672 l 260 52 b 269 20 267 37 269 27 b 260 -8 269 13 265 4 b 157 -144 231 -70 190 -118 b 50 -204 121 -175 81 -194 l 81 -305 b 231 -227 111 -300 169 -279 b 461 193 314 -154 374 -37 l 645 672 l 515 672 l 382 278 b 339 137 365 229 351 177 l 336 137 b 292 275 325 177 308 230 l 146 672 l 13 672 m 150 963 l 319 764 l 406 764 l 283 963 l 150 963 "},"Ι":{"x_min":104.171875,"x_max":226.390625,"ha":332,"o":"m 104 936 l 104 0 l 226 0 l 226 936 l 104 936 "},"Ύ":{"x_min":0,"x_max":973.609375,"ha":982,"o":"m 177 846 b 486 430 300 818 430 682 b 505 241 498 373 505 311 l 505 0 l 627 0 l 627 240 b 652 432 627 312 638 376 b 973 846 716 673 870 807 l 952 945 b 740 815 890 935 805 885 b 577 475 672 742 600 625 l 572 475 b 427 818 554 622 498 739 b 198 945 363 893 263 939 l 177 846 m 9 936 l 0 721 l 72 721 l 119 936 l 9 936 "},"ѕ":{"x_min":55.125,"x_max":494.015625,"ha":550,"o":"m 55 31 b 244 -15 102 4 170 -15 b 494 187 400 -15 494 68 b 317 389 494 287 432 346 b 191 504 230 423 191 448 b 302 596 191 554 230 596 b 439 556 364 596 413 572 l 469 644 b 305 686 432 668 373 686 b 73 489 162 686 73 597 b 252 298 73 408 130 343 b 375 176 341 265 375 234 b 246 76 375 119 334 76 b 84 123 185 76 121 101 l 55 31 "},"Ш":{"x_min":105.5625,"x_max":1072.21875,"ha":1176,"o":"m 105 936 l 105 0 l 1072 0 l 1072 936 l 952 936 l 952 101 l 648 101 l 648 936 l 529 936 l 529 101 l 225 101 l 225 936 l 105 936 "},"M":{"x_min":80.5625,"x_max":1036.109375,"ha":1117,"o":"m 916 0 l 1036 0 l 977 936 l 823 936 l 656 483 b 556 168 615 365 581 262 l 554 168 b 459 483 529 265 498 368 l 300 936 l 145 936 l 80 0 l 195 0 l 220 401 b 238 815 229 543 236 699 l 241 815 b 348 451 268 704 304 585 l 501 5 l 593 5 l 758 460 b 876 815 805 589 843 707 l 879 815 b 894 411 879 700 887 542 l 916 0 "},"Ψ":{"x_min":65.28125,"x_max":886.109375,"ha":951,"o":"m 886 936 l 768 936 l 768 678 b 533 380 768 464 656 387 l 533 936 l 418 936 l 418 382 b 183 651 280 389 183 461 l 183 936 l 65 936 l 65 631 b 418 286 65 386 237 293 l 418 0 l 533 0 l 533 286 b 886 665 740 297 886 422 l 886 936 "},"ũ":{"x_min":97.21875,"x_max":669.453125,"ha":765,"o":"m 663 672 l 541 672 l 541 261 b 530 198 541 237 537 215 b 369 86 508 143 451 86 b 219 301 259 86 219 173 l 219 672 l 97 672 l 97 279 b 329 -15 97 44 223 -15 b 551 109 448 -15 520 55 l 554 109 l 561 0 l 669 0 b 663 184 665 52 663 113 l 663 672 m 277 788 b 313 850 280 827 291 850 b 373 827 330 850 345 842 b 459 796 402 810 429 796 b 554 936 525 796 555 845 l 488 936 b 451 878 486 891 472 878 b 393 902 433 878 415 889 b 305 932 359 918 336 932 b 211 788 245 932 208 878 l 277 788 "},"ŭ":{"x_min":97.21875,"x_max":669.453125,"ha":765,"o":"m 663 672 l 541 672 l 541 261 b 530 198 541 237 537 215 b 369 86 508 143 451 86 b 219 301 259 86 219 173 l 219 672 l 97 672 l 97 279 b 329 -15 97 44 223 -15 b 551 109 448 -15 520 55 l 554 109 l 561 0 l 669 0 b 663 184 665 52 663 113 l 663 672 m 209 948 b 381 774 209 860 259 774 b 554 948 486 774 554 843 l 481 948 b 380 852 477 900 447 852 b 281 948 325 852 290 893 l 209 948 "},"₍":{"x_min":55.5625,"x_max":233.328125,"ha":250,"o":"m 162 386 b 55 48 112 319 55 211 b 162 -286 55 -111 112 -218 l 233 -286 b 133 48 179 -204 133 -98 b 233 386 133 197 177 307 l 162 386 "},"":{"x_min":69.4375,"x_max":665.28125,"ha":736,"o":"m 123 -158 b 665 357 443 -148 665 47 b 369 692 665 571 534 692 b 69 394 200 692 69 564 b 327 129 69 227 187 129 b 527 222 422 129 498 176 l 530 222 b 113 -68 491 58 352 -58 l 123 -158 m 361 215 b 190 404 269 215 190 275 b 363 597 190 535 280 597 b 544 389 462 597 544 514 b 522 305 544 354 536 323 b 361 215 495 257 430 215 "},"{":{"x_min":38.890625,"x_max":359.71875,"ha":394,"o":"m 38 365 b 151 261 137 365 151 305 b 141 148 151 225 145 187 b 129 34 134 111 129 72 b 330 -155 129 -105 216 -155 l 359 -155 l 359 -79 l 336 -79 b 225 41 258 -77 225 -36 b 234 141 225 75 230 108 b 245 248 240 176 245 211 b 144 400 245 337 206 383 l 144 403 b 245 553 206 419 247 464 b 234 658 245 590 240 624 b 225 757 230 692 225 725 b 336 877 225 832 254 875 l 359 877 l 359 953 l 331 953 b 129 771 213 953 129 899 b 140 654 129 733 134 695 b 151 539 145 617 151 578 b 38 436 150 490 136 436 l 38 365 "},"¼":{"x_min":59.71875,"x_max":1004.171875,"ha":1054,"o":"m 275 369 l 275 911 l 190 911 l 59 850 l 75 778 l 175 827 l 177 827 l 177 369 l 275 369 m 270 -15 l 797 918 l 719 918 l 191 -15 l 270 -15 m 920 0 l 920 143 l 1004 143 l 1004 211 l 920 211 l 920 549 l 819 549 l 551 197 l 551 143 l 829 143 l 829 0 l 920 0 m 829 211 l 652 211 l 651 212 l 784 386 b 830 462 800 410 812 433 l 833 462 b 829 375 831 437 829 408 l 829 211 "},"ι":{"x_min":101.390625,"x_max":288.890625,"ha":328,"o":"m 223 672 l 101 672 l 101 150 b 227 -15 101 16 155 -15 b 281 -8 247 -15 269 -12 l 288 80 b 223 162 236 77 223 102 l 223 672 "},"":{"x_min":80.5625,"x_max":333.328125,"ha":417,"o":"m 234 985 b 333 1135 270 1049 333 1064 b 218 1235 333 1192 281 1235 b 80 1142 147 1235 105 1192 l 127 1114 b 195 1163 143 1138 166 1163 b 241 1120 223 1163 241 1146 b 169 1003 241 1074 191 1063 l 234 985 "},"Ĳ":{"x_min":104.171875,"x_max":751.390625,"ha":846,"o":"m 104 936 l 104 0 l 226 0 l 226 936 l 104 936 m 629 321 b 458 87 629 136 566 87 b 355 105 416 87 380 95 l 337 6 b 468 -15 368 -5 422 -15 b 751 309 629 -15 751 61 l 751 936 l 629 936 l 629 321 "},"":{"x_min":50,"x_max":377.78125,"ha":438,"o":"m 286 604 l 286 686 b 377 710 326 689 359 700 l 363 775 b 269 757 343 767 313 757 b 143 891 200 757 143 804 b 272 1025 143 968 193 1025 b 356 1006 312 1025 338 1016 l 375 1075 b 286 1095 352 1085 320 1095 l 286 1174 l 222 1174 l 222 1093 b 50 886 115 1075 50 992 b 97 749 50 829 68 781 b 222 688 127 715 166 695 l 222 604 l 286 604 "},"Ê":{"x_min":103.875,"x_max":631.65625,"ha":683,"o":"m 588 539 l 226 539 l 226 835 l 610 835 l 610 936 l 103 936 l 103 0 l 631 0 l 631 101 l 226 101 l 226 439 l 588 439 l 588 539 m 309 1145 l 167 986 l 266 986 l 355 1082 l 358 1082 l 445 986 l 548 986 l 402 1145 l 309 1145 "},"Ά":{"x_min":40,"x_max":823,"ha":854,"o":"m 592 294 l 693 0 l 823 0 l 503 936 l 357 936 l 40 0 l 164 0 l 262 294 l 592 294 m 285 389 l 378 660 b 424 829 396 717 410 775 l 427 829 b 475 658 441 775 456 720 l 568 389 l 285 389 m 96 936 l 87 721 l 159 721 l 206 936 l 96 936 "},")":{"x_min":27.78125,"x_max":304.171875,"ha":394,"o":"m 122 -168 b 304 398 209 -51 302 126 b 122 964 304 671 209 850 l 27 964 b 201 398 126 825 201 649 b 27 -168 201 148 125 -30 l 122 -168 "},"ε":{"x_min":54.171875,"x_max":583.328125,"ha":611,"o":"m 220 357 b 54 189 122 341 54 271 b 337 -15 54 37 202 -15 b 583 45 431 -15 531 11 l 561 129 b 363 77 520 104 437 77 b 181 198 265 77 181 119 b 393 314 181 280 272 314 l 479 314 l 479 400 l 397 400 b 209 497 291 400 209 429 b 365 597 209 557 270 597 b 533 554 431 597 504 574 l 559 636 b 355 686 511 668 441 686 b 87 505 176 686 87 594 b 220 362 88 439 133 382 l 220 357 "},"э":{"x_min":38.890625,"x_max":591.671875,"ha":644,"o":"m 130 300 l 466 300 b 230 82 456 166 366 82 b 63 118 152 82 95 104 l 38 31 b 236 -13 93 2 162 -13 b 591 333 462 -13 591 139 b 500 592 591 443 558 531 b 256 686 440 654 354 686 b 50 635 184 686 108 668 l 76 554 b 236 592 111 571 166 592 b 468 385 386 592 456 499 l 130 385 l 130 300 "},"":{"x_min":26.390625,"x_max":386.109375,"ha":417,"o":"m 113 781 b 208 886 120 840 148 886 b 297 781 263 886 291 840 l 386 781 b 211 953 380 877 333 953 b 26 781 104 953 31 895 l 113 781 "},"ш":{"x_min":97.21875,"x_max":926.390625,"ha":1025,"o":"m 97 672 l 97 0 l 926 0 l 926 672 l 805 672 l 805 95 l 572 95 l 572 672 l 451 672 l 451 95 l 218 95 l 218 672 l 97 672 "},"Я":{"x_min":19.4375,"x_max":648.609375,"ha":754,"o":"m 150 0 b 180 68 162 25 170 44 b 304 360 213 157 238 294 b 437 405 337 393 380 405 l 527 405 l 527 0 l 648 0 l 648 924 b 425 943 587 936 504 943 b 156 871 306 943 215 918 b 70 681 104 828 70 763 b 277 450 70 553 161 469 l 277 447 b 198 398 248 437 220 421 b 58 84 122 322 98 191 b 19 0 47 54 34 25 l 150 0 m 527 500 b 425 497 504 497 465 497 b 193 675 291 497 193 562 b 412 849 193 804 294 849 b 527 838 468 849 506 843 l 527 500 "},"a":{"x_min":48.921875,"x_max":583.640625,"ha":669,"o":"m 573 412 b 318 686 573 546 523 686 b 96 628 233 686 151 663 l 123 546 b 300 596 171 578 236 596 b 453 442 437 597 453 496 l 453 428 b 48 177 193 429 48 340 b 254 -15 48 80 118 -15 b 460 84 350 -15 422 31 l 464 84 l 473 0 l 583 0 b 573 161 576 45 573 102 l 573 412 m 455 226 b 450 187 455 215 454 201 b 285 75 430 130 373 75 b 171 191 223 75 171 111 b 455 343 171 322 322 346 l 455 226 "},"Ę":{"x_min":104.171875,"x_max":638.890625,"ha":683,"o":"m 619 -191 b 558 -202 598 -200 579 -202 b 495 -147 522 -202 495 -183 b 609 -1 495 -95 552 -37 b 631 0 618 -1 625 0 l 631 101 l 226 101 l 226 439 l 588 439 l 588 539 l 226 539 l 226 835 l 611 835 l 611 936 l 104 936 l 104 0 l 511 0 b 398 -173 461 -33 398 -98 b 526 -286 398 -246 448 -286 b 638 -257 568 -286 606 -276 l 619 -191 "},"Z":{"x_min":41.671875,"x_max":725,"ha":768,"o":"m 41 0 l 725 0 l 725 101 l 201 101 l 201 105 l 718 863 l 718 936 l 86 936 l 86 835 l 559 835 l 559 831 l 41 70 l 41 0 "},"⁸":{"x_min":33.328125,"x_max":422.21875,"ha":456,"o":"m 233 1163 b 52 1017 130 1163 52 1105 b 140 897 52 970 80 924 l 140 893 b 33 754 73 866 33 821 b 225 608 33 679 100 608 b 422 767 340 608 422 672 b 313 903 422 834 376 879 l 313 906 b 401 1028 376 934 401 982 b 233 1163 401 1098 345 1163 m 227 674 b 126 765 163 674 126 717 b 218 866 126 813 158 849 b 327 760 283 849 327 820 b 227 674 327 710 288 674 m 227 1099 b 313 1018 288 1099 313 1057 b 237 931 313 974 280 945 b 140 1021 177 946 140 974 b 227 1099 140 1063 170 1099 "},"":{"x_min":-3,"x_max":444,"ha":417,"o":"m -3 953 l 158 756 l 234 756 l 123 953 l -3 953 m 206 953 l 366 756 l 444 756 l 331 953 l 206 953 "},"":{"x_min":38.890625,"x_max":515.28125,"ha":417,"o":"m 166 1145 l 38 986 l 131 986 l 208 1084 l 211 1084 l 287 986 l 384 986 l 254 1145 l 166 1145 m 419 1047 b 515 1192 455 1111 515 1125 b 404 1289 515 1246 468 1289 b 272 1200 337 1289 297 1249 l 318 1174 b 386 1225 333 1198 355 1225 b 431 1180 412 1225 431 1206 b 361 1064 431 1135 381 1121 l 419 1047 "},"k":{"x_min":101.390625,"x_max":665.28125,"ha":651,"o":"m 222 986 l 101 986 l 101 0 l 222 0 l 222 252 l 284 322 l 515 0 l 665 0 l 369 396 l 627 672 l 481 672 l 283 440 b 225 364 263 417 241 387 l 222 364 l 222 986 "},"Ù":{"x_min":104.171875,"x_max":794.453125,"ha":899,"o":"m 104 936 l 104 385 b 440 -15 104 93 248 -15 b 794 389 643 -15 794 101 l 794 936 l 672 936 l 672 380 b 444 83 672 175 581 83 b 226 380 319 83 226 172 l 226 936 l 104 936 m 254 1149 l 431 988 l 530 988 l 401 1149 l 254 1149 "},"Ů":{"x_min":104.171875,"x_max":794.453125,"ha":899,"o":"m 104 936 l 104 385 b 440 -15 104 93 248 -15 b 794 389 643 -15 794 101 l 794 936 l 672 936 l 672 380 b 444 83 672 175 581 83 b 226 380 319 83 226 172 l 226 936 l 104 936 m 451 1212 b 311 1085 363 1212 311 1155 b 450 963 311 1017 366 963 b 587 1085 530 963 587 1016 b 451 1212 587 1156 534 1212 m 447 1162 b 515 1088 488 1162 515 1128 b 448 1014 515 1046 488 1014 b 381 1085 408 1014 381 1049 b 447 1162 381 1125 405 1162 "},"¢":{"x_min":93.0625,"x_max":612.5,"ha":713,"o":"m 459 -19 l 459 119 b 612 159 527 123 586 144 l 591 248 b 433 214 558 232 508 214 b 215 457 311 214 215 304 b 437 706 215 594 301 706 b 583 671 506 706 554 688 l 611 764 b 459 799 577 781 522 797 l 459 935 l 372 935 l 372 796 b 93 453 202 768 93 632 b 172 218 93 351 123 271 b 372 120 222 164 283 130 l 372 -19 l 459 -19 "},"":{"x_min":0.96875,"x_max":570.40625,"ha":572,"o":"m 0 903 l 0 802 l 442 802 l 442 799 l 50 0 l 177 0 l 570 822 l 570 903 l 0 903 "},"В":{"x_min":105.5625,"x_max":695.828125,"ha":753,"o":"m 105 2 b 293 -8 145 -2 209 -8 b 615 79 445 -8 551 19 b 695 266 663 123 695 186 b 502 500 695 405 591 479 l 502 504 b 661 710 600 539 661 618 b 581 875 661 784 630 839 b 326 943 525 923 447 943 b 105 923 243 943 158 935 l 105 2 m 226 842 b 333 850 245 846 277 850 b 537 697 455 850 537 806 b 336 539 537 607 462 539 l 226 539 l 226 842 m 226 448 l 326 448 b 568 268 458 448 568 394 b 327 86 568 132 452 86 b 226 91 284 86 251 87 l 226 448 "},"І":{"x_min":104.171875,"x_max":226.390625,"ha":332,"o":"m 104 936 l 104 0 l 226 0 l 226 936 l 104 936 "},"ē":{"x_min":52.953125,"x_max":646.015625,"ha":696,"o":"m 641 314 b 646 371 644 328 646 346 b 368 686 646 494 589 686 b 52 325 172 686 52 528 b 383 -15 52 122 176 -15 b 608 27 490 -15 565 8 l 586 115 b 400 80 541 95 487 80 b 169 314 276 80 172 148 l 641 314 m 171 401 b 358 599 180 486 233 599 b 527 401 496 599 529 478 l 171 401 m 196 893 l 196 814 l 508 814 l 508 893 l 196 893 "},"Ẹ":{"x_min":104.171875,"x_max":631.9375,"ha":683,"o":"m 588 539 l 226 539 l 226 835 l 611 835 l 611 936 l 104 936 l 104 0 l 631 0 l 631 101 l 226 101 l 226 439 l 588 439 l 588 539 m 341 -251 b 409 -180 380 -251 409 -218 b 343 -111 409 -144 380 -111 b 273 -180 304 -111 273 -144 b 341 -251 273 -218 302 -251 "},"β":{"x_min":98.609375,"x_max":725,"ha":778,"o":"m 219 69 b 436 -15 272 15 341 -15 b 725 272 583 -15 725 86 b 519 536 725 426 625 515 l 519 543 b 644 760 583 574 644 653 b 400 1002 644 904 538 1002 b 202 928 311 1002 248 973 b 98 600 150 877 98 792 l 98 -38 b 119 -275 98 -136 102 -230 l 233 -275 b 216 -23 219 -218 216 -101 l 216 69 l 219 69 m 216 614 b 388 904 216 807 276 904 b 530 740 470 904 530 840 b 372 562 530 653 477 571 b 348 561 365 561 356 561 l 348 478 b 386 478 361 478 373 478 b 602 271 509 474 602 405 b 412 79 602 161 523 79 b 216 190 316 79 247 139 l 216 614 "},"":{"x_min":0.0625,"x_max":157,"ha":182,"o":"m 66 278 b 157 494 97 328 133 417 l 54 486 b 0 271 44 418 22 332 l 66 278 "},"":{"x_min":22.21875,"x_max":454.171875,"ha":482,"o":"m 377 369 l 377 511 l 454 511 l 454 581 l 377 581 l 377 911 l 268 911 l 22 568 l 22 511 l 284 511 l 284 369 l 377 369 m 284 581 l 120 581 l 119 582 l 238 747 b 286 829 255 772 269 797 l 288 829 b 284 742 287 802 284 772 l 284 581 "},"≠":{"x_min":56.03125,"x_max":772.96875,"ha":828,"o":"m 772 194 l 772 278 l 396 278 l 518 469 l 772 469 l 772 553 l 571 553 l 681 722 l 590 722 l 485 553 l 56 553 l 56 469 l 432 469 l 308 278 l 56 278 l 56 194 l 256 194 l 146 25 l 236 25 l 342 194 l 772 194 "},"¥":{"x_min":22.21875,"x_max":690.28125,"ha":713,"o":"m 405 0 l 405 244 l 622 244 l 622 312 l 405 312 l 405 414 l 622 414 l 622 482 l 441 482 l 690 903 l 562 903 l 412 619 b 356 490 388 572 370 529 l 352 490 b 297 617 336 532 319 569 l 152 903 l 22 903 l 256 482 l 75 482 l 75 414 l 290 414 l 290 312 l 75 312 l 75 244 l 290 244 l 290 0 l 405 0 "},"Ĥ":{"x_min":104.171875,"x_max":801.390625,"ha":906,"o":"m 104 936 l 104 0 l 226 0 l 226 439 l 679 439 l 679 0 l 801 0 l 801 936 l 679 936 l 679 544 l 226 544 l 226 936 l 104 936 m 405 1145 l 263 986 l 362 986 l 451 1082 l 454 1082 l 541 986 l 644 986 l 498 1145 l 405 1145 "},"U":{"x_min":104.171875,"x_max":794.453125,"ha":899,"o":"m 104 936 l 104 385 b 440 -15 104 93 248 -15 b 794 389 643 -15 794 101 l 794 936 l 672 936 l 672 380 b 444 83 672 175 581 83 b 226 380 319 83 226 172 l 226 936 l 104 936 "},"Ñ":{"x_min":105.125,"x_max":807.90625,"ha":914,"o":"m 219 0 l 219 399 b 210 786 219 555 217 668 l 214 788 b 388 475 260 686 323 579 l 685 0 l 807 0 l 807 936 l 694 936 l 694 544 b 707 159 694 398 696 284 l 703 158 b 537 462 660 253 605 352 l 238 936 l 105 936 l 105 0 l 219 0 m 356 993 b 392 1054 360 1031 370 1054 b 457 1028 412 1054 431 1042 b 542 1002 488 1013 513 1002 b 635 1136 606 1002 637 1049 l 571 1136 b 534 1082 567 1092 555 1082 b 467 1107 512 1082 489 1095 b 385 1135 438 1123 416 1135 b 291 993 325 1135 289 1078 l 356 993 "},"F":{"x_min":104.171875,"x_max":608.328125,"ha":676,"o":"m 104 0 l 226 0 l 226 423 l 579 423 l 579 524 l 226 524 l 226 835 l 608 835 l 608 936 l 104 936 l 104 0 "},"ả":{"x_min":48.921875,"x_max":583.640625,"ha":669,"o":"m 573 412 b 318 686 573 546 523 686 b 96 628 233 686 151 663 l 123 546 b 300 596 171 578 236 596 b 453 442 437 597 453 496 l 453 428 b 48 177 193 429 48 340 b 254 -15 48 80 118 -15 b 460 84 350 -15 422 31 l 464 84 l 473 0 l 583 0 b 573 161 576 45 573 102 l 573 412 m 455 226 b 450 187 455 215 454 201 b 285 75 430 130 373 75 b 171 191 223 75 171 111 b 455 343 171 322 322 346 l 455 226 m 354 735 b 460 897 386 799 460 821 b 341 1002 460 960 408 1002 b 205 910 272 1002 230 960 l 253 881 b 321 929 269 906 290 929 b 368 884 347 929 368 911 b 289 752 368 832 305 813 l 354 735 "},"":{"x_min":140.28125,"x_max":418.0625,"ha":556,"o":"m 280 1219 b 140 1092 193 1219 140 1162 b 279 970 140 1024 195 970 b 418 1092 361 970 418 1023 b 280 1219 418 1163 365 1219 m 276 1169 b 345 1095 319 1169 345 1135 b 277 1021 345 1053 319 1021 b 211 1092 237 1021 211 1056 b 276 1169 211 1132 236 1169 "},"Ќ":{"x_min":105.5625,"x_max":740.28125,"ha":753,"o":"m 105 936 l 105 0 l 226 0 l 226 429 l 265 429 b 525 221 423 429 481 344 b 611 0 551 147 576 63 l 740 0 b 637 265 700 83 673 169 b 375 507 590 392 530 486 l 729 936 l 584 936 l 263 521 l 226 521 l 226 936 l 105 936 m 443 1142 l 313 979 l 412 979 l 590 1142 l 443 1142 "},"∕":{"x_min":-217.5625,"x_max":388,"ha":168,"o":"m -139 -15 l 388 918 l 310 918 l -217 -15 l -139 -15 "},"ờ":{"x_min":52.84375,"x_max":769.546875,"ha":768,"o":"m 383 594 b 586 339 529 596 586 453 b 380 76 584 186 497 76 b 177 335 261 76 177 187 b 383 594 177 461 240 594 m 652 770 b 676 688 666 745 676 717 b 619 632 675 651 655 632 b 501 668 576 632 534 658 b 386 686 463 679 427 686 b 52 330 201 686 52 554 b 375 -15 52 118 194 -15 b 709 341 536 -15 709 93 b 640 564 709 430 684 507 b 769 683 725 560 769 610 b 745 785 769 722 759 757 l 652 770 m 204 963 l 373 764 l 459 764 l 337 963 l 204 963 "},"å":{"x_min":48.921875,"x_max":583.640625,"ha":669,"o":"m 573 412 b 318 686 573 546 523 686 b 96 628 233 686 151 663 l 123 546 b 300 596 171 578 236 596 b 453 442 437 597 453 496 l 453 428 b 48 177 193 429 48 340 b 254 -15 48 80 118 -15 b 460 84 350 -15 422 31 l 464 84 l 473 0 l 583 0 b 573 161 576 45 573 102 l 573 412 m 455 226 b 450 187 455 215 454 201 b 285 75 429 130 373 75 b 171 191 223 75 171 111 b 455 343 171 322 322 346 l 455 226 m 333 746 b 472 872 412 746 472 800 b 335 1003 472 948 418 1003 b 193 872 248 1003 193 946 b 333 746 193 802 251 746 m 333 797 b 264 872 291 797 264 835 b 332 952 264 916 289 952 b 404 874 376 952 404 917 b 333 797 404 832 376 797 "},"Ϋ":{"x_min":15.28125,"x_max":811.109375,"ha":817,"o":"m 286 968 b 354 1038 327 968 354 1000 b 287 1107 354 1077 325 1107 b 218 1038 248 1107 218 1075 b 286 968 218 1000 245 968 m 540 968 b 609 1038 583 968 609 1000 b 543 1107 609 1077 580 1107 b 473 1038 502 1107 473 1075 b 540 968 473 1000 501 968 m 15 846 b 323 430 137 818 268 682 b 343 241 336 373 343 311 l 343 0 l 465 0 l 465 240 b 490 432 465 312 476 376 b 811 846 554 673 708 807 l 790 945 b 577 815 727 935 643 885 b 415 475 509 742 437 625 l 409 475 b 265 818 391 622 336 739 b 36 945 201 893 101 939 l 15 846 "},"0":{"x_min":50,"x_max":663.890625,"ha":713,"o":"m 365 918 b 50 448 181 918 50 753 b 350 -15 52 150 173 -15 b 663 461 548 -15 663 154 b 365 918 663 749 554 918 m 356 824 b 540 455 484 824 540 678 b 356 79 540 225 480 79 b 173 447 245 79 173 212 b 356 824 173 693 251 824 "},"ō":{"x_min":52.78125,"x_max":709.71875,"ha":763,"o":"m 386 686 b 52 330 201 686 52 554 b 375 -15 52 118 194 -15 b 709 341 536 -15 709 93 b 386 686 709 546 579 686 m 383 594 b 584 337 527 594 584 451 b 380 76 584 186 497 76 b 177 335 261 76 177 187 b 383 594 177 461 240 594 m 225 893 l 225 814 l 537 814 l 537 893 l 225 893 "},"”":{"x_min":47,"x_max":459.75,"ha":492,"o":"m 129 948 b 47 622 113 847 77 704 l 124 631 b 254 961 162 695 222 845 l 129 948 m 334 948 b 252 622 319 847 281 704 l 330 631 b 459 961 368 695 427 845 l 334 948 "},"ö":{"x_min":52.78125,"x_max":709.71875,"ha":763,"o":"m 386 688 b 52 332 201 688 52 556 b 375 -13 52 119 194 -13 b 709 343 536 -13 709 94 b 386 688 709 547 579 688 m 383 596 b 584 339 527 596 584 453 b 380 77 584 187 497 77 b 177 336 261 77 177 189 b 383 596 177 462 240 596 m 251 793 b 320 864 293 793 320 827 b 254 935 320 904 291 935 b 183 864 213 935 183 903 b 251 793 183 827 212 793 m 508 793 b 577 864 550 793 577 827 b 509 935 577 904 548 935 b 440 864 470 935 440 903 b 508 793 440 827 468 793 "},"":{"x_min":40,"x_max":322,"ha":354,"o":"m 322 710 l 223 710 l 40 454 l 223 198 l 322 198 l 137 454 l 322 710 "},"ć":{"x_min":52.78125,"x_max":583.328125,"ha":622,"o":"m 559 115 b 409 83 525 100 479 83 b 176 335 276 83 176 179 b 413 589 176 474 259 589 b 555 557 480 589 526 572 l 583 650 b 413 686 550 668 486 686 b 52 328 194 686 52 535 b 387 -15 52 122 184 -15 b 580 23 477 -15 548 8 l 559 115 m 419 963 l 297 764 l 383 764 l 552 963 l 419 963 "},"þ":{"x_min":101.390625,"x_max":738.890625,"ha":790,"o":"m 101 929 l 101 -275 l 222 -275 l 222 90 l 225 90 b 431 -15 268 23 343 -15 b 738 344 584 -15 738 98 b 454 686 738 553 612 688 b 225 565 344 686 269 638 l 222 565 l 222 929 l 101 929 m 222 389 b 236 457 222 411 229 437 b 416 589 263 539 338 589 b 615 341 543 589 615 475 b 413 80 615 182 534 80 b 234 204 333 80 262 127 b 222 265 226 221 222 246 l 222 389 "},"]":{"x_min":27.78125,"x_max":281.9375,"ha":394,"o":"m 27 953 l 27 877 l 186 877 l 186 -79 l 27 -79 l 27 -155 l 281 -155 l 281 953 l 27 953 "},"А":{"x_min":35,"x_max":818,"ha":850,"o":"m 588 294 l 688 0 l 818 0 l 498 936 l 354 936 l 35 0 l 159 0 l 257 294 l 588 294 m 282 389 l 373 660 b 420 829 393 717 407 775 l 423 829 b 472 658 437 775 451 720 l 565 389 l 282 389 "},"Ы":{"x_min":105.5625,"x_max":925,"ha":1036,"o":"m 105 936 l 105 2 b 293 -8 145 -2 209 -8 b 626 101 419 -8 550 20 b 698 300 670 148 698 214 b 338 593 698 507 530 593 b 226 585 308 593 254 590 l 226 936 l 105 936 m 226 490 b 322 496 241 492 277 496 b 572 296 447 496 572 442 b 323 86 572 154 456 86 b 226 93 283 86 251 87 l 226 490 m 802 936 l 802 0 l 925 0 l 925 936 l 802 936 "},"ẁ":{"x_min":25,"x_max":1001,"ha":1022,"o":"m 25 672 l 227 0 l 338 0 l 447 319 b 508 542 470 392 491 461 l 510 542 b 570 321 527 462 547 396 l 673 0 l 784 0 l 1001 672 l 880 672 l 784 335 b 733 116 762 255 744 184 l 728 116 b 669 336 713 184 694 255 l 565 672 l 462 672 l 352 329 b 292 116 330 257 308 184 l 288 116 b 240 330 276 186 258 255 l 149 672 l 25 672 m 329 963 l 498 764 l 584 764 l 462 963 l 329 963 "},"ệ":{"x_min":52.953125,"x_max":646.015625,"ha":696,"o":"m 641 314 b 646 371 644 328 646 346 b 368 686 646 494 589 686 b 52 325 172 686 52 528 b 383 -15 52 122 176 -15 b 608 27 490 -15 565 8 l 586 115 b 400 80 541 95 487 80 b 169 314 276 80 172 148 l 641 314 m 171 401 b 358 599 180 486 233 599 b 527 401 496 599 529 478 l 171 401 m 304 963 l 173 764 l 265 764 l 346 895 l 348 895 l 429 764 l 522 764 l 389 963 l 304 963 m 347 -111 b 276 -183 308 -111 276 -144 b 346 -254 276 -222 305 -254 b 415 -183 387 -254 415 -222 b 347 -111 415 -143 386 -111 "},"ĭ":{"x_min":-5.5625,"x_max":338.890625,"ha":325,"o":"m 223 0 l 223 672 l 101 672 l 101 0 l 223 0 m -5 948 b 166 774 -5 860 44 774 b 338 948 270 774 338 843 l 266 948 b 165 852 262 900 231 852 b 66 948 109 852 75 893 l -5 948 "},"8":{"x_min":51.390625,"x_max":661.109375,"ha":713,"o":"m 230 471 b 51 227 119 423 51 341 b 354 -15 51 95 165 -15 b 661 247 526 -15 661 88 b 479 480 661 355 591 436 l 479 485 b 629 696 590 536 629 619 b 365 918 629 810 540 918 b 84 678 205 918 84 821 b 229 475 84 600 127 522 l 230 471 m 356 73 b 176 244 241 73 172 154 b 338 432 176 330 233 401 b 537 234 461 397 537 343 b 356 73 537 141 466 73 m 358 831 b 511 683 468 831 511 756 b 373 519 511 601 451 546 b 201 686 269 547 200 596 b 358 831 201 764 256 831 "},"Ữ":{"x_min":104.171875,"x_max":940.28125,"ha":940,"o":"m 823 1070 b 845 991 837 1045 845 1016 b 781 936 845 953 829 936 l 672 936 l 672 380 b 444 83 672 175 581 83 b 226 380 319 83 226 172 l 226 936 l 104 936 l 104 385 b 440 -15 104 93 248 -15 b 794 389 643 -15 794 101 l 794 863 l 815 864 b 940 982 898 867 940 914 b 916 1087 940 1021 930 1056 l 823 1070 m 362 993 b 398 1055 366 1031 376 1055 b 463 1028 419 1055 437 1042 b 550 1002 495 1013 520 1002 b 643 1137 613 1002 644 1049 l 579 1137 b 541 1082 575 1092 562 1082 b 475 1107 519 1082 497 1095 b 391 1135 444 1123 422 1135 b 297 993 331 1135 295 1078 l 362 993 "},"R":{"x_min":105.5625,"x_max":715.28125,"ha":747,"o":"m 105 0 l 226 0 l 226 405 l 340 405 b 529 223 450 401 501 353 b 590 0 554 107 575 27 l 715 0 b 643 257 695 36 673 126 b 506 446 620 354 577 421 l 506 450 b 681 688 604 483 681 565 b 608 867 681 761 654 825 b 337 943 551 918 466 943 b 105 924 255 943 166 935 l 105 0 m 226 839 b 345 849 247 845 287 849 b 561 675 473 849 561 796 b 350 497 561 568 479 497 l 226 497 l 226 839 "},"":{"x_min":25,"x_max":550,"ha":601,"o":"m 25 -132 b 201 -159 55 -145 129 -159 b 550 105 388 -159 550 -54 b 345 305 550 223 455 290 l 345 309 b 509 503 440 337 509 407 b 268 689 509 618 409 689 b 45 626 176 689 88 656 l 70 546 b 241 593 104 564 170 593 b 387 482 331 593 387 557 b 161 335 387 396 290 344 l 134 333 l 137 243 b 213 246 154 244 181 246 b 425 104 341 246 425 191 b 190 -63 425 2 327 -63 b 38 -41 131 -63 73 -52 l 25 -132 "},"":{"x_min":50,"x_max":377.78125,"ha":438,"o":"m 286 -11 l 286 70 b 377 94 326 73 359 84 l 363 159 b 269 141 343 151 313 141 b 143 276 200 141 143 189 b 272 411 143 354 193 411 b 356 392 312 411 338 401 l 375 461 b 286 480 352 471 320 480 l 286 560 l 222 560 l 222 479 b 50 271 115 461 50 376 b 97 133 50 214 68 165 b 222 72 127 100 166 79 l 222 -11 l 286 -11 "},"Ż":{"x_min":41.671875,"x_max":725,"ha":768,"o":"m 41 0 l 725 0 l 725 101 l 201 101 l 201 105 l 718 863 l 718 936 l 86 936 l 86 835 l 559 835 l 559 831 l 41 70 l 41 0 m 388 1000 b 456 1071 427 1000 456 1034 b 390 1141 456 1107 427 1141 b 320 1071 351 1141 320 1107 b 388 1000 320 1034 350 1000 "},"ħ":{"x_min":-5.5625,"x_max":673.609375,"ha":771,"o":"m 673 0 l 673 400 b 438 686 673 631 529 686 b 313 653 393 686 350 674 b 226 565 276 632 245 600 l 223 565 l 223 767 l 493 767 l 493 843 l 223 843 l 223 986 l 101 986 l 101 843 l -5 843 l -5 767 l 101 767 l 101 0 l 223 0 l 223 405 b 231 464 223 428 225 446 b 395 585 255 529 316 585 b 551 386 511 585 551 494 l 551 0 l 673 0 "},"õ":{"x_min":52.78125,"x_max":709.71875,"ha":763,"o":"m 386 686 b 52 330 201 686 52 554 b 375 -15 52 118 194 -15 b 709 341 536 -15 709 93 b 386 686 709 546 579 686 m 383 594 b 584 337 527 594 584 451 b 380 76 584 186 497 76 b 177 335 261 76 177 187 b 383 594 177 461 240 594 m 276 788 b 312 850 279 827 290 850 b 372 825 329 850 344 842 b 458 796 401 810 427 796 b 552 936 523 796 554 845 l 487 936 b 450 878 484 891 470 878 b 391 902 431 878 413 889 b 304 932 358 918 334 932 b 209 788 244 932 206 878 l 276 788 "},"":{"x_min":55.5625,"x_max":680.5625,"ha":736,"o":"m 366 -15 b 680 337 541 -15 680 118 b 368 689 680 561 540 689 b 55 337 194 689 55 556 b 366 -15 55 112 195 -15 m 369 77 b 173 337 245 77 173 187 b 368 596 173 486 245 596 b 562 337 490 596 562 486 b 369 77 562 187 490 77 "},"ẫ":{"x_min":48.921875,"x_max":582.75,"ha":669,"o":"m 573 412 b 317 686 573 546 523 686 b 96 628 233 686 151 663 l 123 546 b 299 596 170 578 236 596 b 452 442 437 597 452 496 l 452 428 b 48 177 193 429 48 340 b 254 -15 48 80 118 -15 b 459 84 349 -15 421 31 l 463 84 l 473 0 l 582 0 b 573 161 575 45 573 102 l 573 412 m 455 226 b 449 187 455 215 453 201 b 284 75 430 130 373 75 b 171 191 223 75 171 111 b 455 343 171 322 322 346 l 455 226 m 288 927 l 165 764 l 258 764 l 331 866 l 334 866 l 409 764 l 504 764 l 378 927 l 288 927 m 234 943 b 270 998 237 975 248 998 b 330 975 287 998 302 989 b 414 946 359 960 384 946 b 509 1080 480 946 510 992 l 444 1080 b 406 1023 441 1035 428 1023 b 348 1045 389 1023 370 1034 b 262 1075 315 1062 291 1075 b 168 943 202 1075 166 1023 l 234 943 "},"˙":{"x_min":123.609375,"x_max":262.5,"ha":417,"o":"m 193 792 b 262 863 234 792 262 825 b 194 935 262 903 233 935 b 123 863 155 935 123 903 b 193 792 123 825 152 792 "},"ê":{"x_min":53,"x_max":646.015625,"ha":696,"o":"m 641 314 b 646 371 644 328 646 346 b 368 686 646 494 589 686 b 53 325 172 686 53 528 b 383 -15 53 122 176 -15 b 608 27 490 -15 565 8 l 586 115 b 400 80 541 95 487 80 b 169 314 276 80 172 148 l 641 314 m 171 401 b 358 599 180 486 233 599 b 528 401 496 599 529 478 l 171 401 m 321 963 l 190 764 l 282 764 l 362 895 l 365 895 l 446 764 l 539 764 l 405 963 l 321 963 "},"":{"x_min":46,"x_max":541.9375,"ha":417,"o":"m 162 963 l 46 764 l 134 764 l 205 895 l 209 895 l 279 764 l 372 764 l 253 963 l 162 963 m 429 1075 l 333 893 l 404 893 l 541 1075 l 429 1075 "},"„":{"x_min":28.25,"x_max":441,"ha":494,"o":"m 106 -155 b 235 175 143 -91 203 58 l 110 161 b 28 -164 94 61 58 -82 l 106 -155 m 311 -155 b 441 175 349 -91 409 58 l 315 161 b 233 -164 300 61 263 -82 l 311 -155 "},"ч":{"x_min":90.28125,"x_max":616.671875,"ha":715,"o":"m 90 672 l 90 430 b 311 212 90 278 184 212 b 494 262 375 212 448 233 l 495 262 l 495 -8 l 616 -8 l 616 672 l 495 672 l 495 348 b 351 303 459 322 404 303 b 212 446 244 303 212 360 l 212 672 l 90 672 "},"δ":{"x_min":52.328125,"x_max":705.09375,"ha":758,"o":"m 646 935 b 424 1002 607 967 521 1002 b 189 845 266 1002 189 918 b 275 706 189 781 243 732 l 306 681 l 306 674 b 52 323 170 610 52 494 b 378 -15 52 107 205 -15 b 705 328 560 -15 705 119 b 527 644 705 461 638 558 l 413 735 b 313 847 349 784 313 810 b 427 910 313 881 350 910 b 610 853 503 910 581 875 l 646 935 m 453 558 b 582 319 539 492 582 414 b 385 76 582 166 492 76 b 175 323 280 76 175 166 b 378 617 175 471 273 561 l 453 558 "},"Â":{"x_min":35,"x_max":818,"ha":850,"o":"m 588 294 l 688 0 l 818 0 l 498 936 l 354 936 l 35 0 l 159 0 l 257 294 l 588 294 m 282 389 l 373 660 b 420 829 393 717 407 775 l 423 829 b 472 658 437 775 451 720 l 565 389 l 282 389 m 383 1145 l 241 986 l 340 986 l 429 1082 l 432 1082 l 519 986 l 622 986 l 476 1145 l 383 1145 "},"Į":{"x_min":38.890625,"x_max":280.5625,"ha":332,"o":"m 226 936 l 104 936 l 104 0 b 38 -170 80 -37 38 -102 b 168 -291 38 -250 91 -291 b 280 -259 202 -291 251 -280 l 261 -196 b 198 -208 245 -202 225 -208 b 127 -136 158 -208 127 -183 b 184 0 127 -86 163 -29 l 226 0 l 226 936 "},"ω":{"x_min":52.78125,"x_max":911.109375,"ha":964,"o":"m 538 504 l 423 504 l 426 237 b 315 86 427 154 377 86 b 172 346 251 86 172 158 b 283 678 172 489 220 610 l 283 681 l 169 681 b 52 343 111 622 52 494 b 298 -15 52 86 181 -15 b 476 102 381 -15 444 30 l 481 102 b 656 -15 509 30 573 -15 b 911 354 784 -15 911 102 b 795 681 911 508 855 631 l 680 681 l 680 678 b 791 357 744 615 791 489 b 651 86 791 175 720 86 b 536 239 584 86 534 152 l 538 504 "},"Ţ":{"x_min":-1.71875,"x_max":691.328125,"ha":690,"o":"m 283 0 l 405 0 l 405 834 l 691 834 l 691 936 l -1 936 l -1 834 l 283 834 l 283 0 m 249 -308 b 428 -159 335 -303 428 -261 b 373 -57 428 -113 401 -75 l 283 -76 b 330 -161 308 -97 330 -127 b 226 -251 330 -215 280 -243 l 249 -308 "},"₎":{"x_min":18.0625,"x_max":195.828125,"ha":250,"o":"m 88 -286 b 195 50 138 -216 195 -109 b 88 386 195 212 138 319 l 18 386 b 118 50 73 305 118 197 b 18 -286 118 -97 72 -204 l 88 -286 "},"₄":{"x_min":22.21875,"x_max":454.171875,"ha":482,"o":"m 377 -204 l 377 -62 l 454 -62 l 454 6 l 377 6 l 377 337 l 268 337 l 22 -5 l 22 -62 l 284 -62 l 284 -204 l 377 -204 m 284 6 l 120 6 l 119 8 l 238 173 b 286 255 255 198 269 223 l 288 255 b 284 168 287 227 284 198 l 284 6 "},"´":{"x_min":140,"x_max":395.5625,"ha":417,"o":"m 262 963 l 140 764 l 226 764 l 395 963 l 262 963 "},"ỏ":{"x_min":52.78125,"x_max":709.71875,"ha":763,"o":"m 386 686 b 52 330 201 686 52 554 b 375 -15 52 118 194 -15 b 709 341 536 -15 709 93 b 386 686 709 546 579 686 m 383 594 b 584 337 527 594 584 451 b 380 76 584 186 497 76 b 177 335 261 76 177 187 b 383 594 177 461 240 594 m 400 735 b 505 897 431 799 505 821 b 388 1002 505 960 454 1002 b 252 910 319 1002 276 960 l 300 881 b 366 929 315 906 337 929 b 413 884 393 929 413 911 b 334 752 413 832 351 813 l 400 735 "},"Ĉ":{"x_min":50,"x_max":761.109375,"ha":806,"o":"m 734 126 b 536 87 686 102 611 87 b 177 464 309 87 177 233 b 543 850 177 710 323 850 b 730 811 620 850 686 834 l 761 910 b 538 952 729 927 654 952 b 50 460 248 952 50 754 b 511 -15 50 151 247 -15 b 758 29 625 -15 715 6 l 734 126 m 436 1150 l 294 992 l 393 992 l 481 1088 l 484 1088 l 572 992 l 675 992 l 529 1150 l 436 1150 "},"":{"x_min":112.5,"x_max":579.171875,"ha":736,"o":"m 559 179 b 418 151 530 165 483 151 b 227 344 313 151 227 216 b 423 540 227 461 306 540 b 554 515 480 540 526 531 l 576 599 b 440 626 548 611 495 625 l 440 718 l 363 718 l 363 624 b 112 339 212 601 112 489 b 363 63 112 180 213 82 l 363 -36 l 440 -36 l 440 63 b 579 97 501 66 555 84 l 559 179 "},"И":{"x_min":105.5625,"x_max":808.328125,"ha":914,"o":"m 105 936 l 105 0 l 234 0 l 527 467 b 701 781 591 569 655 678 l 705 779 b 694 399 695 661 694 550 l 694 0 l 808 0 l 808 936 l 687 936 l 384 454 b 212 145 316 343 258 242 l 208 146 b 219 542 216 271 219 394 l 219 936 l 105 936 "},"Љ":{"x_min":-8.328125,"x_max":1169.453125,"ha":1224,"o":"m 172 936 l 172 543 b 91 137 172 392 165 209 b -8 86 69 115 29 93 l 9 -11 b 150 33 59 -11 115 11 b 290 551 280 122 290 348 l 290 835 l 575 835 l 575 1 b 762 -8 615 -2 677 -8 b 1091 95 891 -8 1013 19 b 1169 300 1138 144 1169 211 b 809 590 1169 505 997 590 b 695 583 779 590 725 588 l 695 936 l 172 936 m 695 490 b 791 496 726 493 763 496 b 1043 296 923 496 1043 442 b 793 86 1043 154 927 86 b 695 91 754 86 725 86 l 695 490 "},"Ờ":{"x_min":50.265625,"x_max":943.34375,"ha":957,"o":"m 478 83 b 178 464 286 83 178 265 b 479 854 178 665 278 854 b 778 472 680 854 778 660 b 478 83 778 259 669 83 m 822 1030 b 846 941 836 1003 846 974 b 783 879 846 900 829 879 b 629 928 739 879 672 914 b 483 953 593 942 540 953 b 50 461 233 953 50 758 b 471 -15 50 177 222 -15 b 905 478 710 -15 905 157 b 797 809 905 625 860 738 b 943 934 897 800 943 857 b 916 1046 943 979 930 1017 l 822 1030 m 286 1149 l 464 988 l 562 988 l 433 1149 l 286 1149 "},"р":{"x_min":95.828125,"x_max":738.890625,"ha":790,"o":"m 101 -275 l 222 -275 l 222 90 l 225 90 b 431 -15 265 23 343 -15 b 738 346 590 -15 738 104 b 452 686 738 549 616 686 b 213 557 343 686 262 639 l 211 557 l 204 672 l 95 672 b 101 453 98 608 101 539 l 101 -275 m 222 390 b 230 439 222 405 226 423 b 415 589 252 531 331 589 b 615 340 544 589 615 474 b 411 80 615 186 540 80 b 227 223 323 80 250 139 b 222 273 223 239 222 255 l 222 390 "},"Ω":{"x_min":41.671875,"x_max":937.5,"ha":979,"o":"m 733 100 b 918 510 826 179 918 316 b 495 953 918 757 755 953 b 59 497 247 953 59 765 b 244 100 61 318 151 177 l 244 95 l 41 95 l 41 0 l 394 0 l 394 76 b 186 487 283 145 186 312 b 493 854 186 672 295 854 b 793 490 691 854 793 661 b 586 76 793 301 697 152 l 586 0 l 937 0 l 937 95 l 733 95 l 733 100 "},"":{"x_min":112.5,"x_max":366.671875,"ha":394,"o":"m 366 -101 l 366 -25 l 208 -25 l 208 931 l 366 931 l 366 1007 l 112 1007 l 112 -101 l 366 -101 "},"т":{"x_min":13.890625,"x_max":555.5625,"ha":571,"o":"m 13 672 l 13 576 l 223 576 l 223 0 l 345 0 l 345 576 l 555 576 l 555 672 l 13 672 "},"П":{"x_min":104.171875,"x_max":783.328125,"ha":888,"o":"m 104 936 l 104 0 l 226 0 l 226 835 l 661 835 l 661 0 l 783 0 l 783 936 l 104 936 "},"Ö":{"x_min":50,"x_max":905.5625,"ha":957,"o":"m 483 953 b 50 461 233 953 50 758 b 470 -15 50 177 222 -15 b 905 478 709 -15 905 157 b 483 953 905 757 740 953 m 479 854 b 777 472 680 854 777 660 b 477 83 777 259 669 83 b 177 464 286 83 177 262 b 479 854 177 668 277 854 m 348 1002 b 416 1073 390 1002 416 1034 b 350 1142 416 1112 388 1142 b 281 1073 311 1142 281 1110 b 348 1002 281 1034 309 1002 m 605 1002 b 675 1073 648 1002 675 1034 b 608 1142 675 1112 647 1142 b 538 1073 568 1142 538 1110 b 605 1002 538 1034 566 1002 "},"z":{"x_min":25,"x_max":569.4375,"ha":594,"o":"m 25 0 l 569 0 l 569 97 l 177 97 l 177 100 b 263 205 208 133 234 168 l 563 596 l 563 672 l 52 672 l 52 575 l 416 575 l 416 572 b 327 467 386 536 358 504 l 25 70 l 25 0 "},"™":{"x_min":43.0625,"x_max":841.671875,"ha":860,"o":"m 43 936 l 43 874 l 162 874 l 162 558 l 237 558 l 237 874 l 358 874 l 358 936 l 43 936 m 841 558 l 812 936 l 704 936 l 638 749 b 612 656 630 722 622 689 l 611 656 b 586 752 601 695 595 722 l 520 936 l 408 936 l 380 558 l 452 558 l 466 781 b 469 886 468 815 469 852 l 473 886 b 500 779 481 853 493 807 l 568 564 l 645 564 l 713 774 b 745 886 723 809 736 853 l 750 886 b 752 781 751 846 751 810 l 766 558 l 841 558 "},"ặ":{"x_min":48.921875,"x_max":583.640625,"ha":669,"o":"m 573 412 b 318 686 573 546 523 686 b 96 628 233 686 151 663 l 123 546 b 300 596 171 578 236 596 b 453 442 437 597 453 496 l 453 428 b 48 177 193 429 48 340 b 254 -15 48 80 118 -15 b 460 84 350 -15 422 31 l 464 84 l 473 0 l 583 0 b 573 161 576 45 573 102 l 573 412 m 455 226 b 450 187 455 215 454 201 b 285 75 430 130 373 75 b 171 191 223 75 171 111 b 455 343 171 322 322 346 l 455 226 m 162 948 b 335 774 162 860 212 774 b 507 948 439 774 507 843 l 435 948 b 333 852 430 900 400 852 b 235 948 278 852 243 893 l 162 948 m 335 -111 b 264 -183 296 -111 264 -143 b 333 -254 264 -221 293 -254 b 403 -183 375 -254 403 -221 b 335 -111 403 -143 373 -111 "},"Θ":{"x_min":50,"x_max":906.953125,"ha":957,"o":"m 472 -15 b 906 476 711 -15 906 157 b 484 953 906 757 740 953 b 50 460 234 953 50 757 b 472 -15 50 176 223 -15 m 479 83 b 177 462 287 83 177 265 b 480 854 177 665 277 854 b 779 472 681 854 779 660 b 479 83 779 259 670 83 m 290 532 l 290 432 l 666 432 l 666 532 l 290 532 "},"Ř":{"x_min":106.109375,"x_max":715.828125,"ha":747,"o":"m 106 0 l 226 0 l 226 405 l 340 405 b 529 223 450 401 501 353 b 590 0 554 107 575 27 l 715 0 b 643 257 696 36 674 126 b 507 446 621 354 578 421 l 507 450 b 682 688 604 483 682 565 b 608 867 682 761 654 825 b 338 943 551 918 467 943 b 106 924 256 943 167 935 l 106 0 m 226 839 b 346 849 247 845 288 849 b 561 675 474 849 561 796 b 350 497 561 568 479 497 l 226 497 l 226 839 m 414 991 l 556 1149 l 457 1149 l 369 1053 l 367 1053 l 278 1149 l 175 1149 l 321 991 l 414 991 "},"":{"x_min":31.9375,"x_max":420.828125,"ha":454,"o":"m 80 362 b 145 365 95 361 120 362 b 326 437 215 371 280 394 b 420 688 381 489 420 572 b 227 917 420 821 351 917 b 31 725 112 917 31 828 b 200 558 31 628 101 558 b 323 611 254 558 295 579 l 326 611 b 255 483 316 556 291 512 b 138 437 223 457 181 442 b 80 436 116 435 95 435 l 80 362 m 222 847 b 327 703 297 847 327 782 b 322 676 327 692 326 682 b 223 625 304 647 269 625 b 125 729 162 625 125 671 b 222 847 125 797 166 847 "},"Ň":{"x_min":105.125,"x_max":807.90625,"ha":914,"o":"m 219 0 l 219 399 b 210 786 219 555 217 668 l 214 788 b 388 475 260 686 323 579 l 685 0 l 807 0 l 807 936 l 694 936 l 694 544 b 707 159 694 398 696 284 l 703 158 b 537 462 660 253 605 352 l 238 936 l 105 936 l 105 0 l 219 0 m 505 979 l 648 1138 l 549 1138 l 462 1042 l 459 1042 l 370 1138 l 267 1138 l 413 979 l 505 979 "},"ừ":{"x_min":96.796875,"x_max":796.796875,"ha":765,"o":"m 678 806 b 703 727 694 782 703 753 b 638 672 703 692 685 672 l 541 672 l 541 261 b 530 198 541 237 537 215 b 369 86 507 143 450 86 b 219 300 259 86 219 172 l 219 672 l 96 672 l 96 279 b 328 -15 96 44 223 -15 b 550 109 448 -15 520 55 l 553 109 l 560 0 l 669 0 b 663 183 664 52 663 113 l 663 606 l 678 606 b 796 722 746 608 796 654 b 771 822 796 760 787 793 l 678 806 m 202 963 l 371 764 l 457 764 l 335 963 l 202 963 "},"Ợ":{"x_min":50.265625,"x_max":943.34375,"ha":957,"o":"m 478 83 b 178 464 286 83 178 265 b 479 854 178 665 278 854 b 778 472 680 854 778 660 b 478 83 778 259 669 83 m 822 1030 b 846 941 836 1005 846 974 b 783 878 846 899 829 878 b 629 928 739 878 672 914 b 483 953 593 942 540 953 b 50 461 233 953 50 758 b 471 -15 50 177 222 -15 b 905 478 710 -15 905 157 b 797 809 905 625 860 738 b 943 934 897 800 943 857 b 916 1048 943 981 930 1017 l 822 1030 m 478 -251 b 546 -180 516 -251 546 -218 b 479 -111 546 -144 516 -111 b 409 -180 440 -111 409 -144 b 478 -251 409 -218 439 -251 "},"É":{"x_min":104.171875,"x_max":631.9375,"ha":683,"o":"m 588 539 l 226 539 l 226 835 l 611 835 l 611 936 l 104 936 l 104 0 l 631 0 l 631 101 l 226 101 l 226 439 l 588 439 l 588 539 m 419 1149 l 290 986 l 388 986 l 566 1149 l 419 1149 "},"и":{"x_min":97.21875,"x_max":672.21875,"ha":769,"o":"m 97 672 l 97 0 l 238 0 b 448 351 309 118 384 247 b 561 561 488 419 516 473 l 563 561 b 555 284 558 451 555 394 l 555 0 l 672 0 l 672 672 l 529 672 l 319 325 b 209 118 273 247 251 200 l 205 119 b 213 389 211 215 213 283 l 213 672 l 97 672 "},"":{"x_min":-33.328125,"x_max":443.0625,"ha":418,"o":"m 31 796 b 100 864 72 796 100 825 b 34 932 100 903 72 932 b -33 864 -4 932 -33 902 b 31 796 -33 828 -5 796 m 373 796 b 443 864 415 796 443 825 b 377 932 443 903 415 932 b 309 864 338 932 309 902 b 373 796 309 828 336 796 m 209 974 l 102 775 l 183 775 l 337 974 l 209 974 "},"³":{"x_min":11.109375,"x_max":390.28125,"ha":424,"o":"m 62 1055 b 180 1092 84 1070 130 1092 b 268 1023 243 1092 268 1057 b 141 935 268 959 193 935 l 102 935 l 102 871 l 140 871 b 287 772 213 871 287 843 b 165 679 288 729 251 679 b 36 715 113 679 58 701 l 11 646 b 170 607 43 625 104 607 b 390 770 312 607 390 685 b 261 904 390 840 336 893 l 261 907 b 368 1034 327 931 368 977 b 198 1164 368 1100 318 1164 b 38 1121 130 1164 70 1142 l 62 1055 "},"":{"x_min":18.0625,"x_max":195.828125,"ha":250,"o":"m 88 287 b 195 624 138 357 195 464 b 88 960 195 786 138 893 l 18 960 b 118 624 73 879 118 771 b 18 287 118 476 72 369 l 88 287 "},"[":{"x_min":112.5,"x_max":366.671875,"ha":394,"o":"m 366 -155 l 366 -79 l 208 -79 l 208 877 l 366 877 l 366 953 l 112 953 l 112 -155 l 366 -155 "},"ζ":{"x_min":54.25,"x_max":565.359375,"ha":568,"o":"m 473 -197 b 557 45 511 -148 557 -34 b 544 61 557 54 551 59 b 350 102 480 69 413 79 b 177 347 248 139 177 197 b 565 900 177 550 343 788 l 547 985 l 315 985 b 145 989 252 985 190 985 l 133 910 b 295 895 175 897 232 895 l 394 895 l 394 891 b 54 325 179 743 54 517 b 275 16 54 147 152 56 b 438 -20 330 -2 390 -13 b 393 -173 437 -57 412 -141 l 473 -197 "},"∏":{"x_min":12.5,"x_max":840.28125,"ha":854,"o":"m 840 802 l 840 903 l 12 903 l 12 802 l 141 802 l 141 -125 l 256 -125 l 256 802 l 595 802 l 595 -125 l 711 -125 l 711 802 l 840 802 "},"Έ":{"x_min":0,"x_max":729.171875,"ha":779,"o":"m 686 539 l 323 539 l 323 835 l 708 835 l 708 936 l 201 936 l 201 0 l 729 0 l 729 101 l 323 101 l 323 439 l 686 439 l 686 539 m 9 936 l 0 721 l 72 721 l 120 936 l 9 936 "},"Ρ":{"x_min":105.5625,"x_max":681.953125,"ha":739,"o":"m 105 0 l 226 0 l 226 375 b 323 366 254 368 287 366 b 609 469 441 366 544 401 b 681 670 656 518 681 585 b 600 866 681 753 650 821 b 337 943 544 916 456 943 b 105 925 240 943 163 935 l 105 0 m 226 838 b 340 847 247 843 287 847 b 561 663 472 847 561 788 b 326 464 561 536 472 464 b 226 474 286 464 252 467 l 226 838 "},"ğ":{"x_min":53.1875,"x_max":682.34375,"ha":776,"o":"m 676 487 b 682 671 676 568 678 624 l 574 671 l 569 569 l 567 569 b 357 685 536 625 474 685 b 53 329 201 685 53 557 b 339 1 53 143 172 1 b 553 113 443 1 517 51 l 555 113 l 555 40 b 339 -196 555 -130 464 -196 b 142 -141 255 -196 186 -170 l 111 -236 b 335 -291 165 -272 254 -291 b 580 -211 419 -291 514 -271 b 676 97 644 -151 676 -58 l 676 487 m 554 284 b 544 219 554 264 551 240 b 375 94 519 141 451 94 b 176 336 244 94 176 204 b 376 590 176 492 260 590 b 547 460 467 590 525 532 b 554 405 553 444 554 426 l 554 284 m 205 946 b 378 772 205 859 255 772 b 550 946 482 772 550 842 l 478 946 b 376 850 474 899 443 850 b 278 946 321 850 286 892 l 205 946 "},"Ở":{"x_min":50.265625,"x_max":943.34375,"ha":957,"o":"m 478 83 b 178 464 286 83 178 265 b 479 854 178 665 278 854 b 778 472 680 854 778 660 b 478 83 778 259 669 83 m 822 1030 b 846 941 836 1005 846 974 b 783 878 846 899 829 878 b 629 928 739 878 672 914 b 483 953 593 942 540 953 b 50 461 233 953 50 758 b 471 -15 50 177 222 -15 b 905 478 710 -15 905 157 b 797 809 905 625 860 738 b 943 934 897 800 943 857 b 916 1048 943 981 930 1017 l 822 1030 m 511 986 b 609 1137 548 1050 609 1066 b 494 1237 609 1194 558 1237 b 357 1144 423 1237 382 1194 l 404 1116 b 472 1164 419 1139 443 1164 b 518 1121 500 1164 518 1148 b 446 1005 518 1075 468 1064 l 511 986 "},"ª":{"x_min":46.125,"x_max":422.515625,"ha":481,"o":"m 422 369 b 415 478 418 403 415 440 l 415 626 b 239 821 415 727 378 821 b 80 775 179 821 121 804 l 103 717 b 221 753 135 740 176 753 b 325 667 312 753 325 689 l 325 653 b 46 496 146 657 46 594 b 189 362 46 422 97 362 b 330 428 254 362 303 394 l 333 428 l 340 369 l 422 369 m 326 517 b 312 480 326 508 322 493 b 218 429 296 453 260 429 b 137 501 175 429 137 454 b 326 593 137 579 239 596 l 326 517 "},"":{"x_min":33.328125,"x_max":583.328125,"ha":622,"o":"m 583 0 l 583 97 l 331 97 b 218 91 295 97 252 95 l 218 95 l 288 147 b 534 475 434 249 534 345 b 294 691 534 612 434 691 b 41 605 181 691 91 643 l 75 526 b 262 594 122 561 191 594 b 412 458 350 594 412 548 b 101 113 412 345 309 251 l 33 66 l 33 0 l 583 0 "},"ї":{"x_min":-34.71875,"x_max":359.71875,"ha":325,"o":"m 223 1 l 223 674 l 101 674 l 101 1 l 223 1 m 33 793 b 102 864 75 793 102 827 b 36 935 102 904 73 935 b -34 864 -4 935 -34 903 b 33 793 -34 827 -5 793 m 290 793 b 359 864 331 793 359 827 b 291 935 359 904 330 935 b 222 864 252 935 222 903 b 290 793 222 827 250 793 "},"ﬀ":{"x_min":20.828125,"x_max":862.5,"ha":810,"o":"m 638 1 l 638 581 l 800 581 l 800 674 l 638 674 l 638 710 b 768 904 638 814 665 904 b 847 889 804 904 827 897 l 862 982 b 758 1002 840 992 802 1002 b 595 939 702 1002 641 984 b 518 706 538 886 518 800 l 518 674 l 234 674 l 234 702 b 356 889 234 807 261 889 b 429 871 384 889 411 881 l 454 962 b 358 985 433 973 397 985 b 188 923 283 985 227 962 b 113 695 136 869 113 789 l 113 674 l 20 674 l 20 581 l 113 581 l 113 1 l 234 1 l 234 581 l 518 581 l 518 1 l 638 1 "},"":{"x_min":50,"x_max":669.453125,"ha":715,"o":"m 580 917 b 491 910 558 917 527 916 b 202 777 377 896 277 850 b 50 369 112 688 50 547 b 368 -15 50 134 176 -15 b 669 304 556 -15 669 137 b 397 596 669 479 556 596 b 177 490 297 596 220 549 l 175 490 b 488 810 195 640 295 779 b 580 817 523 815 555 818 l 580 917 m 370 79 b 170 339 241 79 172 190 b 183 392 170 361 176 378 b 359 503 216 458 286 503 b 545 296 472 503 545 425 b 370 79 545 166 475 79 "},"":{"x_min":77.78125,"x_max":319.4375,"ha":417,"o":"m 190 1 l 125 -118 b 233 -177 190 -125 233 -141 b 175 -221 233 -208 206 -221 b 98 -201 144 -221 119 -212 l 77 -264 b 176 -287 102 -278 140 -287 b 319 -175 248 -287 319 -255 b 222 -72 319 -118 275 -80 l 265 1 l 190 1 "},"T":{"x_min":-1.390625,"x_max":691.671875,"ha":690,"o":"m 283 0 l 405 0 l 405 834 l 691 834 l 691 936 l -1 936 l -1 834 l 283 834 l 283 0 "},"š":{"x_min":55.921875,"x_max":494.015625,"ha":550,"o":"m 55 31 b 244 -15 103 4 170 -15 b 494 187 401 -15 494 68 b 317 389 494 287 433 346 b 191 504 230 423 191 448 b 302 596 191 554 230 596 b 439 556 365 596 413 572 l 469 644 b 305 686 432 668 373 686 b 73 489 162 686 73 597 b 252 298 73 408 130 343 b 376 176 341 265 376 234 b 247 76 376 119 334 76 b 85 123 186 76 122 101 l 55 31 m 326 764 l 456 963 l 365 963 l 283 831 l 280 831 l 198 963 l 105 963 l 238 764 l 326 764 "},"є":{"x_min":53,"x_max":600.21875,"ha":639,"o":"m 600 642 b 419 686 569 660 501 686 b 53 330 205 686 53 544 b 396 -15 53 134 179 -15 b 600 27 491 -15 566 11 l 576 115 b 415 80 543 101 487 80 b 179 300 283 80 189 166 l 518 300 l 518 385 l 178 385 b 418 592 191 499 271 592 b 571 554 489 592 539 569 l 600 642 "},"Þ":{"x_min":105.5625,"x_max":681.953125,"ha":738,"o":"m 105 0 l 225 0 l 225 216 b 330 209 254 212 291 209 b 681 507 533 209 681 308 b 605 688 681 578 654 643 b 358 765 548 739 468 765 b 225 755 308 765 262 762 l 225 937 l 105 937 l 105 0 m 225 657 b 347 669 247 663 291 669 b 561 493 473 669 561 614 b 329 307 561 379 479 307 b 225 315 293 307 256 308 l 225 657 "},"j":{"x_min":-63.890625,"x_max":252.78125,"ha":338,"o":"m -50 -293 b 158 -216 15 -293 104 -271 b 238 59 218 -155 238 -70 l 238 672 l 116 672 l 116 107 b 69 -144 116 -54 102 -107 b -63 -197 40 -177 -6 -193 l -50 -293 m 177 938 b 101 861 131 938 101 903 b 175 786 101 821 130 786 b 252 861 225 786 252 821 b 177 938 252 903 223 938 "},"Σ":{"x_min":36.15625,"x_max":727.875,"ha":767,"o":"m 194 105 l 495 469 l 209 831 l 209 836 l 683 836 l 683 936 l 52 936 l 52 856 l 361 465 l 36 72 l 36 0 l 727 0 l 727 101 l 194 101 l 194 105 "},"1":{"x_min":144.4375,"x_max":445.828125,"ha":713,"o":"m 327 0 l 445 0 l 445 903 l 341 903 l 144 797 l 168 704 l 325 789 l 327 789 l 327 0 "},"ℓ":{"x_min":41.671875,"x_max":659.71875,"ha":700,"o":"m 269 711 b 365 906 269 849 315 906 b 451 777 415 906 451 870 b 269 411 451 653 383 528 l 269 711 m 600 211 b 411 88 565 159 501 88 b 269 275 329 88 270 136 l 269 296 b 552 779 452 458 552 610 b 372 992 552 907 483 992 b 152 688 248 992 152 904 l 152 321 b 41 239 118 293 79 265 l 77 170 b 154 222 104 187 129 204 b 155 211 155 219 155 216 b 381 -13 168 82 238 -13 b 659 154 501 -13 594 40 l 600 211 "},"ĉ":{"x_min":52.78125,"x_max":583.328125,"ha":622,"o":"m 559 115 b 409 83 525 100 479 83 b 176 335 276 83 176 179 b 413 589 176 474 259 589 b 555 557 480 589 526 572 l 583 650 b 413 686 550 668 486 686 b 52 328 194 686 52 535 b 387 -15 52 122 184 -15 b 580 23 477 -15 548 8 l 559 115 m 318 963 l 187 764 l 279 764 l 358 895 l 361 895 l 443 764 l 536 764 l 402 963 l 318 963 "},"ī":{"x_min":6.9375,"x_max":319.4375,"ha":325,"o":"m 223 0 l 223 672 l 101 672 l 101 0 l 223 0 m 6 893 l 6 814 l 319 814 l 319 893 l 6 893 "},"О":{"x_min":50,"x_max":905.5625,"ha":957,"o":"m 483 953 b 50 461 233 953 50 758 b 470 -15 50 177 222 -15 b 905 478 709 -15 905 157 b 483 953 905 757 740 953 m 479 854 b 777 472 680 854 777 660 b 477 83 777 259 669 83 b 177 464 286 83 177 262 b 479 854 177 668 277 854 "},"ξ":{"x_min":54.640625,"x_max":591.015625,"ha":601,"o":"m 501 603 b 435 604 477 603 454 604 b 239 760 325 608 239 661 b 413 911 239 838 297 911 b 549 879 472 911 523 895 l 575 964 b 406 1002 536 986 480 1002 b 117 767 212 1002 117 884 b 271 571 117 676 168 604 l 271 564 b 54 294 151 532 54 428 b 473 -22 54 59 289 4 b 429 -175 472 -57 447 -143 l 508 -198 b 591 44 546 -150 591 -27 b 577 59 591 52 585 59 b 394 93 521 66 459 76 b 181 305 257 130 181 193 b 464 515 181 421 271 514 l 501 515 l 501 603 "},"Ď":{"x_min":105.5625,"x_max":875,"ha":925,"o":"m 105 2 b 325 -8 166 -4 237 -8 b 740 126 506 -8 651 38 b 875 490 826 212 875 337 b 741 827 875 642 826 750 b 362 943 659 902 536 943 b 105 923 266 943 179 935 l 105 2 m 226 835 b 368 847 258 842 305 847 b 747 486 623 847 748 707 b 348 88 747 233 608 88 b 226 94 301 88 256 90 l 226 835 m 475 989 l 616 1148 l 518 1148 l 430 1052 l 427 1052 l 338 1148 l 236 1148 l 381 989 l 475 989 "},"&":{"x_min":42.96875,"x_max":836.03125,"ha":840,"o":"m 836 0 b 681 166 780 59 731 112 b 816 512 751 248 791 365 l 705 512 b 615 239 687 394 658 304 b 387 499 555 305 466 407 l 387 504 b 592 754 536 578 592 656 b 386 953 592 877 502 953 b 148 721 230 953 148 836 b 226 525 148 656 177 586 l 226 521 b 42 247 119 462 42 375 b 330 -15 42 107 148 -15 b 604 90 434 -15 523 16 b 691 0 640 54 665 26 l 836 0 m 352 76 b 159 265 238 76 159 158 b 280 457 159 365 229 423 b 544 161 384 336 488 222 b 352 76 499 112 431 76 m 376 870 b 486 749 454 870 486 806 b 330 564 486 668 424 618 b 259 733 291 614 259 665 b 376 870 259 806 299 870 "},"":{"x_min":35,"x_max":477,"ha":417,"o":"m 250 1224 l 403 1078 l 477 1078 l 376 1224 l 250 1224 m 164 1144 l 35 985 l 129 985 l 205 1082 l 208 1082 l 285 985 l 382 985 l 251 1144 l 164 1144 "},"G":{"x_min":49.65625,"x_max":819.109375,"ha":897,"o":"m 819 492 l 510 492 l 510 394 l 699 394 l 699 115 b 538 90 671 101 617 90 b 177 468 319 90 177 230 b 553 845 177 703 326 845 b 760 804 648 845 710 828 l 791 903 b 556 946 751 923 664 946 b 49 462 242 946 49 742 b 180 113 49 316 99 191 b 530 -9 271 26 388 -9 b 819 41 656 -9 764 20 l 819 492 "},"ΰ":{"x_min":77.640625,"x_max":663.75,"ha":728,"o":"m 498 672 b 544 398 515 638 544 524 b 366 86 544 205 483 86 b 213 273 292 86 213 137 l 213 547 b 194 672 213 619 206 658 l 77 672 b 92 446 90 635 92 564 l 92 257 b 356 -15 92 72 208 -15 b 663 410 599 -15 663 212 b 613 672 663 522 635 629 l 498 672 m 335 966 l 306 749 l 372 749 l 440 966 l 335 966 m 192 778 b 256 842 231 778 256 807 b 195 906 256 878 230 906 b 130 842 159 906 130 878 b 192 778 130 807 156 778 m 529 778 b 594 842 569 778 594 807 b 531 906 594 878 567 906 b 467 842 495 906 467 878 b 529 778 467 807 494 778 "},"`":{"x_min":31,"x_max":287,"ha":417,"o":"m 31 963 l 200 764 l 287 764 l 164 963 l 31 963 "},"ỗ":{"x_min":52.234375,"x_max":709.171875,"ha":763,"o":"m 385 686 b 52 330 200 686 52 554 b 374 -15 52 118 193 -15 b 709 341 535 -15 709 93 b 385 686 709 546 578 686 m 382 594 b 584 337 527 594 584 451 b 380 76 584 186 496 76 b 177 335 260 76 177 187 b 382 594 177 461 239 594 m 334 927 l 210 764 l 303 764 l 377 866 l 380 866 l 455 764 l 550 764 l 424 927 l 334 927 m 280 943 b 316 998 282 975 293 998 b 375 975 332 998 348 989 b 460 946 405 960 430 946 b 555 1080 525 946 556 992 l 489 1080 b 452 1023 486 1035 474 1023 b 393 1045 435 1023 416 1034 b 307 1075 360 1062 336 1075 b 213 943 248 1075 211 1023 l 280 943 "},"Ễ":{"x_min":103.84375,"x_max":631.625,"ha":683,"o":"m 588 539 l 226 539 l 226 835 l 610 835 l 610 936 l 103 936 l 103 0 l 631 0 l 631 101 l 226 101 l 226 439 l 588 439 l 588 539 m 324 1145 l 183 986 l 281 986 l 370 1082 l 373 1082 l 460 986 l 563 986 l 417 1145 l 324 1145 m 273 1163 b 308 1219 274 1196 287 1219 b 369 1195 324 1219 341 1210 b 452 1166 396 1180 423 1166 b 546 1299 517 1166 549 1213 l 483 1299 b 444 1242 480 1255 466 1242 b 385 1264 427 1242 408 1253 b 299 1295 353 1281 330 1295 b 205 1163 241 1295 203 1242 l 273 1163 "},"ằ":{"x_min":48.90625,"x_max":583.53125,"ha":669,"o":"m 573 412 b 318 686 573 546 523 686 b 97 628 233 686 153 663 l 125 546 b 300 596 172 578 236 596 b 452 442 437 597 452 496 l 452 428 b 48 177 193 429 48 340 b 254 -15 48 80 118 -15 b 459 84 350 -15 422 31 l 462 84 l 473 0 l 583 0 b 573 161 576 45 573 102 l 573 412 m 455 226 b 450 187 455 214 454 200 b 284 75 430 130 373 75 b 171 191 223 75 171 111 b 455 343 171 322 322 346 l 455 226 m 155 1074 l 309 891 l 384 891 l 273 1074 l 155 1074 m 150 913 b 329 739 151 825 207 739 b 508 913 434 739 507 809 l 440 913 b 329 817 436 866 400 817 b 219 913 268 817 227 859 l 150 913 "},"ŏ":{"x_min":52.78125,"x_max":709.71875,"ha":763,"o":"m 386 686 b 52 330 201 686 52 554 b 375 -15 52 118 194 -15 b 709 341 536 -15 709 93 b 386 686 709 546 579 686 m 383 594 b 584 337 527 594 584 451 b 380 76 584 186 497 76 b 177 335 261 76 177 187 b 383 594 177 461 240 594 m 208 948 b 380 774 208 860 258 774 b 552 948 484 774 552 843 l 480 948 b 379 852 476 900 445 852 b 280 948 323 852 288 893 l 208 948 "},"Ả":{"x_min":34.71875,"x_max":818.0625,"ha":850,"o":"m 588 294 l 688 0 l 818 0 l 498 936 l 354 936 l 34 0 l 159 0 l 256 294 l 588 294 m 281 389 l 373 660 b 420 829 393 717 406 775 l 423 829 b 472 658 437 775 451 720 l 565 389 l 281 389 m 458 985 b 558 1134 495 1049 558 1064 b 443 1235 558 1191 506 1235 b 305 1142 372 1235 330 1192 l 351 1114 b 420 1163 368 1138 391 1163 b 466 1119 447 1163 466 1146 b 394 1003 466 1074 416 1062 l 458 985 "},"ý":{"x_min":13,"x_max":645,"ha":654,"o":"m 13 672 l 260 52 b 269 20 267 37 269 27 b 260 -8 269 13 265 4 b 157 -144 231 -70 190 -118 b 50 -204 121 -175 81 -194 l 81 -305 b 231 -227 111 -300 169 -279 b 461 193 314 -154 374 -37 l 645 672 l 515 672 l 382 278 b 339 137 365 229 351 177 l 336 137 b 292 275 325 177 308 230 l 146 672 l 13 672 m 396 963 l 275 764 l 361 764 l 531 963 l 396 963 "},"":{"x_min":33,"x_max":315,"ha":354,"o":"m 217 454 l 33 198 l 130 198 l 315 454 l 130 710 l 33 710 l 217 454 "},"º":{"x_min":25,"x_max":468.0625,"ha":493,"o":"m 250 821 b 25 588 129 821 25 732 b 245 362 25 451 122 362 b 468 594 352 362 466 435 b 250 821 468 725 383 821 m 244 752 b 375 592 337 752 375 661 b 247 432 375 496 320 432 b 118 589 177 432 118 499 b 244 752 118 664 156 752 "},"∞":{"x_min":48.609375,"x_max":962.5,"ha":1011,"o":"m 751 162 b 962 365 873 162 962 257 b 763 571 962 486 880 571 b 505 423 650 571 576 494 b 258 571 438 490 362 571 b 48 365 137 571 48 476 b 247 162 48 247 130 162 b 505 308 361 162 434 239 b 751 162 572 243 648 162 m 754 244 b 561 365 672 244 615 316 b 756 489 613 419 677 489 b 875 365 825 489 875 436 b 754 244 875 300 822 244 m 255 244 b 136 365 186 244 136 296 b 258 489 136 432 188 489 b 450 365 338 489 395 415 b 255 244 397 311 333 244 "},"":{"x_min":31.9375,"x_max":434.71875,"ha":467,"o":"m 229 -6 b 434 275 365 -6 434 105 b 236 549 434 443 363 549 b 31 269 111 549 31 442 b 229 -6 31 97 108 -6 m 233 63 b 129 272 169 63 129 139 b 233 478 129 403 170 478 b 337 272 302 478 337 401 b 233 63 337 141 301 63 "},"ź":{"x_min":24.828125,"x_max":569.28125,"ha":594,"o":"m 24 0 l 569 0 l 569 97 l 177 97 l 177 100 b 263 205 208 133 234 168 l 563 596 l 563 672 l 52 672 l 52 575 l 416 575 l 416 572 b 327 467 385 536 358 504 l 24 70 l 24 0 m 360 963 l 240 764 l 326 764 l 495 963 l 360 963 "},"я":{"x_min":15.28125,"x_max":591.671875,"ha":689,"o":"m 591 667 b 376 681 533 675 455 681 b 150 635 287 681 205 668 b 61 489 98 606 61 558 b 238 321 61 385 151 330 l 238 318 b 162 279 208 311 183 297 b 56 76 102 229 86 141 b 15 0 44 47 30 22 l 145 0 b 173 55 155 16 165 34 b 269 243 200 120 218 202 b 380 282 294 268 329 282 l 470 282 l 470 0 l 591 0 l 591 667 m 470 364 b 366 364 443 364 418 364 b 187 482 294 364 187 396 b 369 599 187 575 287 599 b 470 592 412 599 440 596 l 470 364 "},"Ё":{"x_min":104.171875,"x_max":631.9375,"ha":683,"o":"m 588 539 l 226 539 l 226 835 l 611 835 l 611 936 l 104 936 l 104 0 l 631 0 l 631 101 l 226 101 l 226 439 l 588 439 l 588 539 m 225 1002 b 293 1073 266 1002 293 1034 b 226 1142 293 1112 265 1142 b 158 1073 187 1142 158 1110 b 225 1002 158 1034 186 1002 m 481 1002 b 551 1073 525 1002 551 1034 b 484 1142 551 1112 523 1142 b 415 1073 444 1142 415 1110 b 481 1002 415 1034 443 1002 "},"Ư":{"x_min":104.171875,"x_max":940.28125,"ha":940,"o":"m 823 1070 b 845 989 837 1045 845 1016 b 781 936 845 953 829 936 l 672 936 l 672 380 b 444 83 672 175 581 83 b 226 380 319 83 226 172 l 226 936 l 104 936 l 104 385 b 440 -15 104 93 248 -15 b 794 389 643 -15 794 101 l 794 863 l 815 864 b 940 982 898 867 940 914 b 916 1087 940 1021 930 1056 l 823 1070 "},"ń":{"x_min":95.828125,"x_max":673.609375,"ha":771,"o":"m 101 0 l 223 0 l 223 404 b 231 461 223 425 226 446 b 395 586 254 529 316 586 b 551 387 511 586 551 496 l 551 0 l 673 0 l 673 400 b 436 686 673 631 529 686 b 213 561 325 686 247 624 l 211 561 l 204 672 l 95 672 b 101 490 100 617 101 561 l 101 0 m 441 963 l 319 764 l 405 764 l 575 963 l 441 963 "},"Г":{"x_min":104.171875,"x_max":602.78125,"ha":601,"o":"m 104 936 l 104 0 l 226 0 l 226 835 l 602 835 l 602 936 l 104 936 "},"Ь":{"x_min":105.5625,"x_max":702.78125,"ha":757,"o":"m 105 936 l 105 2 b 294 -8 145 -2 209 -8 b 630 101 423 -8 554 20 b 702 301 675 148 702 214 b 341 593 702 508 533 593 b 226 586 309 593 254 590 l 226 936 l 105 936 m 226 490 b 325 496 256 493 294 496 b 576 294 458 496 576 440 b 326 86 576 150 461 86 b 226 93 284 86 254 87 l 226 490 "},"¤":{"x_min":38.8125,"x_max":677.921875,"ha":713,"o":"m 356 742 b 195 685 294 742 236 720 l 101 791 l 38 727 l 144 628 b 90 457 113 589 90 530 b 141 289 90 388 113 327 l 41 192 l 101 131 l 194 233 b 352 178 231 199 295 178 b 515 236 408 178 473 197 l 611 131 l 672 192 l 568 295 b 616 464 594 329 616 389 b 568 628 616 532 595 591 l 677 727 l 615 791 l 516 687 b 356 742 479 720 420 742 m 352 655 b 518 463 461 655 518 560 b 352 265 518 320 430 265 b 188 459 280 265 188 324 b 352 655 188 567 251 655 "},"Ĝ":{"x_min":49.65625,"x_max":819.109375,"ha":897,"o":"m 819 492 l 510 492 l 510 394 l 699 394 l 699 115 b 538 90 671 101 617 90 b 177 468 319 90 177 230 b 553 845 177 703 326 845 b 760 804 648 845 710 828 l 791 903 b 556 946 751 923 664 946 b 49 462 242 946 49 742 b 180 113 49 316 99 191 b 530 -9 271 26 388 -9 b 819 41 656 -9 764 20 l 819 492 m 452 1149 l 310 991 l 409 991 l 498 1087 l 501 1087 l 588 991 l 691 991 l 545 1149 l 452 1149 "},"p":{"x_min":95.828125,"x_max":738.890625,"ha":790,"o":"m 101 -275 l 222 -275 l 222 90 l 225 90 b 431 -15 265 23 343 -15 b 738 346 590 -15 738 104 b 452 686 738 549 616 686 b 213 557 343 686 262 639 l 211 557 l 204 672 l 95 672 b 101 453 98 608 101 539 l 101 -275 m 222 390 b 230 439 222 405 226 423 b 415 589 252 531 331 589 b 615 340 544 589 615 474 b 411 80 615 186 540 80 b 227 223 323 80 250 139 b 222 273 223 239 222 255 l 222 390 "},"":{"x_min":46,"x_max":463,"ha":417,"o":"m 262 1075 l 392 893 l 463 893 l 374 1075 l 262 1075 m 164 963 l 46 764 l 136 764 l 205 895 l 210 895 l 279 764 l 372 764 l 253 963 l 164 963 "},"Ю":{"x_min":105.5625,"x_max":1154.171875,"ha":1204,"o":"m 105 936 l 105 0 l 226 0 l 226 430 l 362 430 b 751 -15 372 157 525 -15 b 1154 478 973 -15 1154 152 b 763 953 1154 757 1006 953 b 365 533 543 953 390 795 l 226 533 l 226 936 l 105 936 m 756 82 b 481 464 579 82 481 265 b 758 856 481 665 572 856 b 1030 472 944 856 1030 660 b 756 82 1030 259 933 82 "},"":{"x_min":22.21875,"x_max":454.171875,"ha":482,"o":"m 377 0 l 377 141 l 454 141 l 454 211 l 377 211 l 377 542 l 268 542 l 22 198 l 22 141 l 284 141 l 284 0 l 377 0 m 284 211 l 120 211 l 119 212 l 238 378 b 286 460 255 403 269 428 l 288 460 b 284 372 287 432 284 403 l 284 211 "},"ο":{"x_min":52.78125,"x_max":709.71875,"ha":763,"o":"m 375 -15 b 709 341 536 -15 709 93 b 386 686 709 546 579 686 b 52 330 201 686 52 554 b 375 -15 52 118 194 -15 m 380 76 b 177 335 261 76 177 187 b 383 594 177 461 240 594 b 584 337 527 594 584 451 b 380 76 584 186 497 76 "},"S":{"x_min":57.78125,"x_max":623.0625,"ha":685,"o":"m 57 45 b 296 -15 107 12 206 -15 b 623 255 517 -15 623 111 b 385 531 623 393 543 469 b 199 711 256 581 199 624 b 375 852 199 775 248 852 b 552 807 460 852 523 825 l 585 906 b 380 952 545 929 474 952 b 77 697 198 952 77 843 b 324 430 77 567 171 486 b 500 246 450 383 500 332 b 305 86 500 151 428 86 b 89 147 221 86 143 112 l 57 45 "},"ễ":{"x_min":53,"x_max":646.015625,"ha":696,"o":"m 641 314 b 646 371 644 328 646 346 b 368 686 646 494 589 686 b 53 325 172 686 53 528 b 383 -15 53 122 176 -15 b 608 27 490 -15 565 8 l 586 115 b 400 80 541 95 487 80 b 169 314 276 80 172 148 l 641 314 m 171 401 b 358 599 180 486 233 599 b 528 401 496 599 529 478 l 171 401 m 316 927 l 191 764 l 284 764 l 359 866 l 362 866 l 436 764 l 532 764 l 405 927 l 316 927 m 261 943 b 297 998 264 975 275 998 b 357 975 314 998 329 989 b 441 946 386 960 411 946 b 536 1080 507 946 537 992 l 471 1080 b 433 1023 468 1035 455 1023 b 375 1045 416 1023 397 1034 b 289 1075 341 1062 318 1075 b 194 943 229 1075 193 1023 l 261 943 "},"/":{"x_min":-0.9375,"x_max":481,"ha":476,"o":"m 92 -54 l 481 953 l 385 953 l 0 -54 l 92 -54 "},"":{"x_min":-28.265625,"x_max":441.328125,"ha":418,"o":"m 37 796 b 105 864 77 796 105 825 b 39 932 105 903 77 932 b -28 864 0 932 -28 902 b 37 796 -28 828 0 796 m 371 796 b 441 864 413 796 441 825 b 376 932 441 903 413 932 b 307 864 337 932 307 902 b 371 796 307 828 334 796 m 77 974 l 232 775 l 313 775 l 205 974 l 77 974 "},"Ọ":{"x_min":50,"x_max":905.5625,"ha":957,"o":"m 483 953 b 50 461 233 953 50 758 b 470 -15 50 177 222 -15 b 905 478 709 -15 905 157 b 483 953 905 757 740 953 m 479 854 b 777 472 680 854 777 660 b 477 83 777 259 669 83 b 177 464 286 83 177 262 b 479 854 177 668 277 854 m 477 -251 b 545 -180 516 -251 545 -218 b 479 -111 545 -144 516 -111 b 409 -180 440 -111 409 -144 b 477 -251 409 -218 438 -251 "},"Ŧ":{"x_min":-1.390625,"x_max":691.671875,"ha":690,"o":"m 691 834 l 691 936 l -1 936 l -1 834 l 283 834 l 283 525 l 109 525 l 109 444 l 283 444 l 283 0 l 405 0 l 405 444 l 577 444 l 577 525 l 405 525 l 405 834 l 691 834 "},"":{"x_min":93.03125,"x_max":630.53125,"ha":736,"o":"m 630 673 l 93 673 l 93 571 l 505 571 l 505 569 b 124 -137 431 374 237 28 l 238 -158 b 630 595 379 58 544 368 l 630 673 "},"ђ":{"x_min":9.71875,"x_max":718.0625,"ha":774,"o":"m 9 868 l 9 781 l 123 781 l 123 0 l 245 0 l 245 423 b 266 500 245 457 252 480 b 415 581 305 547 361 581 b 543 504 472 581 515 550 b 595 268 584 435 595 353 b 513 -34 595 123 562 20 b 384 -104 476 -76 437 -93 l 406 -198 b 580 -122 470 -193 531 -164 b 718 276 666 -50 718 88 b 644 569 718 387 697 492 b 452 679 601 639 536 679 b 248 583 370 679 297 638 l 245 583 l 245 781 l 559 781 l 559 868 l 245 868 l 245 986 l 123 986 l 123 868 l 9 868 "},"y":{"x_min":13,"x_max":645,"ha":654,"o":"m 13 672 l 260 52 b 269 20 267 37 269 27 b 260 -8 269 13 265 4 b 157 -144 231 -70 190 -118 b 50 -204 121 -175 81 -194 l 81 -305 b 231 -227 111 -300 169 -279 b 461 193 314 -154 374 -37 l 645 672 l 515 672 l 382 278 b 339 137 365 229 351 177 l 336 137 b 292 275 325 177 308 230 l 146 672 l 13 672 "},"Π":{"x_min":104.171875,"x_max":775,"ha":881,"o":"m 775 936 l 104 936 l 104 0 l 226 0 l 226 834 l 652 834 l 652 0 l 775 0 l 775 936 "},"":{"x_min":48.65625,"x_max":388.921875,"ha":440,"o":"m 248 -275 l 248 -189 b 388 -44 340 -175 388 -112 b 252 109 388 30 345 75 b 147 194 173 139 147 157 b 231 258 147 225 168 258 b 345 229 288 258 327 239 l 368 297 b 252 326 343 311 304 325 l 252 404 l 190 404 l 190 322 b 55 183 105 308 55 254 b 201 36 55 107 109 69 b 297 -52 268 11 297 -11 b 201 -123 297 -94 259 -123 b 70 -86 150 -123 104 -107 l 48 -155 b 186 -193 80 -176 133 -191 l 186 -275 l 248 -275 "},"–":{"x_min":41.671875,"x_max":652.78125,"ha":694,"o":"m 41 394 l 41 311 l 652 311 l 652 394 l 41 394 "},"ë":{"x_min":52.953125,"x_max":646.015625,"ha":696,"o":"m 641 315 b 646 372 644 329 646 347 b 368 688 646 496 589 688 b 52 326 172 688 52 529 b 383 -13 52 123 176 -13 b 608 29 490 -13 565 9 l 586 116 b 400 82 541 97 487 82 b 169 315 276 82 172 150 l 641 315 m 171 403 b 358 600 180 487 233 600 b 527 403 496 600 529 479 l 171 403 m 243 793 b 312 864 284 793 312 827 b 246 935 312 904 283 935 b 175 864 205 935 175 903 b 243 793 175 827 204 793 m 500 793 b 569 864 541 793 569 827 b 501 935 569 904 540 935 b 432 864 462 935 432 903 b 500 793 432 827 459 793 "},"б":{"x_min":56.171875,"x_max":681.171875,"ha":733,"o":"m 615 1002 b 449 965 570 986 504 975 b 160 807 317 943 224 901 b 56 434 88 714 56 587 b 370 -16 56 211 133 -16 b 681 340 567 -16 681 120 b 395 672 681 554 560 672 b 160 521 299 672 204 619 l 156 521 b 229 743 163 593 186 683 b 470 869 281 817 361 853 b 610 900 514 876 577 888 l 615 1002 m 557 331 b 372 74 557 206 508 74 b 183 347 239 74 183 236 b 217 490 183 401 195 450 b 370 582 246 544 297 582 b 557 331 514 582 557 440 "},"ƒ":{"x_min":15,"x_max":659,"ha":713,"o":"m 153 469 l 281 469 l 249 196 b 114 -22 232 54 200 -22 b 37 -6 85 -22 60 -18 l 15 -93 b 123 -116 38 -107 77 -116 b 364 186 285 -116 342 5 l 397 469 l 575 469 l 575 558 l 408 558 l 417 629 b 564 822 428 732 469 822 b 636 809 592 822 615 817 l 659 897 b 564 918 639 909 606 917 b 299 622 377 918 316 758 l 291 558 l 153 558 l 153 469 "},"⁽":{"x_min":55.5625,"x_max":233.328125,"ha":250,"o":"m 162 1206 b 55 868 112 1139 55 1031 b 162 533 55 708 112 601 l 233 533 b 133 868 179 615 133 721 b 233 1206 133 1017 177 1127 l 162 1206 "},"у":{"x_min":13,"x_max":645,"ha":654,"o":"m 13 672 l 260 52 b 269 20 267 37 269 27 b 260 -8 269 13 265 4 b 157 -144 231 -70 190 -118 b 50 -204 121 -175 81 -194 l 81 -305 b 231 -227 111 -300 169 -279 b 461 193 314 -154 374 -37 l 645 672 l 515 672 l 382 278 b 339 137 365 229 351 177 l 336 137 b 292 275 325 177 308 230 l 146 672 l 13 672 "},"J":{"x_min":5.5625,"x_max":418.0625,"ha":514,"o":"m 295 319 b 125 87 295 136 233 87 b 22 105 83 87 47 95 l 5 6 b 134 -15 34 -5 88 -15 b 418 309 295 -15 418 61 l 418 936 l 295 936 l 295 319 "},"ŷ":{"x_min":13,"x_max":645,"ha":654,"o":"m 13 672 l 260 52 b 269 20 267 37 269 27 b 260 -8 269 13 265 4 b 157 -144 231 -70 190 -118 b 50 -204 121 -175 81 -194 l 81 -305 b 231 -227 111 -300 169 -279 b 461 193 314 -154 374 -37 l 645 672 l 515 672 l 382 278 b 339 137 365 229 351 177 l 336 137 b 292 275 325 177 308 230 l 146 672 l 13 672 m 286 963 l 156 764 l 247 764 l 328 895 l 331 895 l 411 764 l 504 764 l 371 963 l 286 963 "},"ŕ":{"x_min":95.3125,"x_max":434.203125,"ha":454,"o":"m 100 0 l 223 0 l 223 358 b 227 415 223 378 224 398 b 391 571 243 507 305 571 b 432 568 407 571 420 571 l 432 683 b 399 686 421 685 411 686 b 211 539 317 686 242 629 l 207 539 l 202 672 l 95 672 b 100 462 99 610 100 542 l 100 0 m 300 963 l 178 764 l 264 764 l 434 963 l 300 963 "},"‐":{"x_min":41.671875,"x_max":384.71875,"ha":426,"o":"m 41 419 l 41 330 l 384 330 l 384 419 l 41 419 "},"ώ":{"x_min":52.78125,"x_max":911.109375,"ha":964,"o":"m 500 953 l 426 754 l 506 754 l 623 953 l 500 953 m 538 504 l 423 504 l 426 237 b 315 86 427 154 377 86 b 172 346 251 86 172 158 b 283 678 172 489 220 610 l 283 681 l 169 681 b 52 343 111 622 52 494 b 298 -15 52 86 181 -15 b 476 102 381 -15 444 30 l 481 102 b 656 -15 509 30 573 -15 b 911 354 784 -15 911 102 b 795 681 911 508 855 631 l 680 681 l 680 678 b 791 357 744 615 791 489 b 651 86 791 175 720 86 b 536 239 584 86 534 152 l 538 504 "},"˘":{"x_min":36.109375,"x_max":380.5625,"ha":417,"o":"m 36 948 b 208 774 36 860 86 774 b 380 948 312 774 380 843 l 308 948 b 206 852 304 900 273 852 b 108 948 151 852 116 893 l 36 948 "},"D":{"x_min":105.5625,"x_max":875,"ha":925,"o":"m 105 2 b 325 -8 166 -4 237 -8 b 740 126 506 -8 651 38 b 875 490 826 212 875 337 b 741 827 875 642 826 750 b 362 943 659 902 536 943 b 105 923 266 943 179 935 l 105 2 m 226 835 b 368 847 258 842 305 847 b 747 486 623 847 748 707 b 348 88 747 233 608 88 b 226 94 301 88 256 90 l 226 835 "},"":{"x_min":11.109375,"x_max":390.28125,"ha":424,"o":"m 62 809 b 180 846 84 824 130 846 b 268 777 243 846 268 811 b 141 689 268 713 193 689 l 102 689 l 102 625 l 140 625 b 287 528 213 626 287 599 b 165 435 288 485 251 435 b 36 471 113 435 58 455 l 11 401 b 170 362 43 380 104 362 b 390 525 312 362 390 439 b 261 660 390 596 336 649 l 261 663 b 368 788 327 685 368 731 b 198 918 368 854 318 918 b 38 875 130 918 70 896 l 62 809 "},"":{"x_min":105.125,"x_max":807.90625,"ha":914,"o":"m 219 0 l 219 399 b 210 786 219 555 217 668 l 214 788 b 388 475 260 686 323 579 l 685 0 l 807 0 l 807 936 l 694 936 l 694 544 b 707 159 694 398 696 284 l 703 158 b 537 462 660 253 605 352 l 238 936 l 105 936 l 105 0 l 219 0 m 409 1145 l 266 986 l 364 986 l 453 1082 l 456 1082 l 544 986 l 646 986 l 500 1145 l 409 1145 "},"ł":{"x_min":12.5,"x_max":327.78125,"ha":336,"o":"m 229 0 l 229 492 l 327 577 l 327 675 l 229 590 l 229 986 l 106 986 l 106 495 l 12 415 l 12 319 l 106 399 l 106 0 l 229 0 "},"ĺ":{"x_min":84.71875,"x_max":361.109375,"ha":328,"o":"m 101 0 l 223 0 l 223 986 l 101 986 l 101 0 m 213 1189 l 84 1027 l 183 1027 l 361 1189 l 213 1189 "},"ц":{"x_min":97.21875,"x_max":719.453125,"ha":764,"o":"m 97 672 l 97 0 l 611 0 l 616 -212 l 712 -212 l 719 90 l 650 91 l 650 672 l 529 672 l 529 95 l 219 95 l 219 672 l 97 672 "},"Л":{"x_min":-9.71875,"x_max":720.828125,"ha":825,"o":"m 170 936 l 170 542 b 88 136 170 392 163 208 b -9 86 66 113 27 91 l 5 -11 b 150 33 59 -11 115 11 b 290 551 280 122 290 348 l 290 835 l 598 835 l 598 0 l 720 0 l 720 936 l 170 936 "},"$":{"x_min":91.90625,"x_max":609.96875,"ha":713,"o":"m 390 -118 l 390 26 b 609 262 533 48 609 151 b 394 515 609 386 537 457 b 222 674 273 567 222 603 b 369 795 222 731 262 795 b 544 746 458 795 515 763 l 579 838 b 398 886 537 861 480 884 l 398 1021 l 311 1021 l 311 882 b 103 658 184 861 103 774 b 332 417 103 537 190 472 b 489 251 434 375 489 328 b 323 115 489 172 422 115 b 125 175 246 115 173 143 l 91 82 b 303 20 140 47 222 22 l 303 -118 l 390 -118 "},"w":{"x_min":25,"x_max":1001,"ha":1022,"o":"m 25 672 l 227 0 l 338 0 l 447 319 b 508 542 470 392 491 461 l 510 542 b 570 321 527 462 547 396 l 673 0 l 784 0 l 1001 672 l 880 672 l 784 335 b 733 116 762 255 744 184 l 728 116 b 669 336 713 184 694 255 l 565 672 l 462 672 l 352 329 b 292 116 330 257 308 184 l 288 116 b 240 330 276 186 258 255 l 149 672 l 25 672 "},"о":{"x_min":52.78125,"x_max":709.71875,"ha":763,"o":"m 386 686 b 52 330 201 686 52 554 b 375 -15 52 118 194 -15 b 709 341 536 -15 709 93 b 386 686 709 546 579 686 m 383 594 b 584 337 527 594 584 451 b 380 76 584 186 497 76 b 177 335 261 76 177 187 b 383 594 177 461 240 594 "},"Д":{"x_min":16.671875,"x_max":827.78125,"ha":875,"o":"m 222 936 l 222 699 b 177 304 222 537 209 412 b 86 98 155 230 120 162 l 16 95 l 23 -225 l 118 -225 l 126 0 l 716 0 l 725 -225 l 819 -225 l 827 95 l 745 98 l 745 936 l 222 936 m 334 836 l 625 836 l 625 100 l 211 100 b 287 278 237 150 268 212 b 334 660 320 383 334 510 l 334 836 "},"Ç":{"x_min":50,"x_max":761.109375,"ha":813,"o":"m 736 126 b 537 87 686 102 611 87 b 177 464 309 87 177 233 b 543 850 177 710 323 850 b 731 811 620 850 686 834 l 761 910 b 540 952 730 927 655 952 b 50 460 248 952 50 754 b 443 -9 50 177 213 16 l 384 -115 b 493 -175 450 -123 493 -139 b 433 -218 493 -205 465 -218 b 356 -198 405 -218 377 -211 l 337 -261 b 436 -284 362 -275 400 -284 b 579 -172 508 -284 579 -254 b 481 -69 579 -116 534 -79 l 516 -13 b 759 30 631 -12 718 8 l 736 126 "},"Ŝ":{"x_min":58.421875,"x_max":623.0625,"ha":685,"o":"m 58 45 b 297 -15 108 12 206 -15 b 623 255 517 -15 623 111 b 385 531 623 393 544 469 b 200 711 256 581 200 624 b 376 852 200 775 248 852 b 552 807 460 852 523 825 l 585 906 b 380 952 545 929 474 952 b 77 697 198 952 77 843 b 324 430 77 567 172 486 b 500 246 451 383 500 332 b 305 86 500 151 428 86 b 90 147 222 86 144 112 l 58 45 m 297 1149 l 154 991 l 252 991 l 341 1087 l 344 1087 l 431 991 l 534 991 l 388 1149 l 297 1149 "},"C":{"x_min":50,"x_max":761.109375,"ha":806,"o":"m 734 126 b 536 87 686 102 611 87 b 177 464 309 87 177 233 b 543 850 177 710 323 850 b 730 811 620 850 686 834 l 761 910 b 538 952 729 927 654 952 b 50 460 248 952 50 754 b 511 -15 50 151 247 -15 b 758 29 625 -15 715 6 l 734 126 "},"":{"x_min":31.9375,"x_max":429.171875,"ha":461,"o":"m 370 547 b 316 544 356 547 337 546 b 125 465 237 536 173 511 b 31 225 69 412 31 328 b 237 -6 31 90 108 -6 b 429 186 350 -6 429 79 b 259 360 429 290 359 360 b 129 303 201 360 155 332 l 126 303 b 315 472 141 386 204 457 b 370 474 336 475 356 475 l 370 547 m 237 63 b 123 201 162 63 123 126 b 130 230 123 214 126 222 b 229 293 148 266 186 293 b 334 180 294 293 334 248 b 237 63 334 113 295 63 "},"Ĵ":{"x_min":5.5625,"x_max":543.0625,"ha":514,"o":"m 295 319 b 125 87 295 136 233 87 b 22 105 83 87 47 95 l 5 6 b 134 -15 34 -5 88 -15 b 418 309 295 -15 418 61 l 418 936 l 295 936 l 295 319 m 304 1145 l 162 986 l 261 986 l 350 1082 l 352 1082 l 440 986 l 543 986 l 397 1145 l 304 1145 "},"":{"x_min":108.625,"x_max":616.953125,"ha":736,"o":"m 108 -134 b 266 -158 143 -148 205 -158 b 616 123 473 -158 616 -45 b 553 280 616 183 594 240 b 247 365 480 350 362 368 l 287 574 l 589 574 l 604 674 l 205 674 l 135 275 b 450 215 286 284 396 268 b 493 113 478 189 493 152 b 265 -65 493 -2 385 -65 b 123 -47 212 -65 155 -57 l 108 -134 "},"Ẻ":{"x_min":104.171875,"x_max":631.9375,"ha":683,"o":"m 588 539 l 226 539 l 226 835 l 611 835 l 611 936 l 104 936 l 104 0 l 631 0 l 631 101 l 226 101 l 226 439 l 588 439 l 588 539 m 402 985 b 501 1135 440 1050 501 1064 b 386 1235 501 1192 450 1235 b 248 1144 315 1235 275 1192 l 295 1114 b 363 1163 311 1138 336 1163 b 411 1120 391 1163 411 1146 b 337 1003 411 1074 359 1063 l 402 985 "},"È":{"x_min":103.890625,"x_max":631.671875,"ha":683,"o":"m 588 539 l 226 539 l 226 835 l 610 835 l 610 936 l 103 936 l 103 0 l 631 0 l 631 101 l 226 101 l 226 439 l 588 439 l 588 539 m 165 1149 l 342 988 l 441 988 l 312 1149 l 165 1149 "},"ﬁ":{"x_min":20.921875,"x_max":625.078125,"ha":726,"o":"m 234 0 l 234 579 l 502 579 l 502 0 l 625 0 l 625 672 l 234 672 l 234 706 b 401 903 234 813 272 903 b 543 864 461 903 512 885 l 577 957 b 407 1002 543 982 469 1002 b 113 710 218 1002 113 886 l 113 672 l 20 672 l 20 579 l 113 579 l 113 0 l 234 0 "},"X":{"x_min":35,"x_max":759,"ha":793,"o":"m 759 0 l 467 480 l 752 936 l 611 936 l 485 717 b 400 558 450 657 426 614 l 396 558 b 310 717 371 608 344 656 l 186 936 l 46 936 l 321 474 l 35 0 l 173 0 l 286 205 b 387 392 333 287 361 337 l 390 392 b 497 207 419 337 449 286 l 618 0 l 759 0 "},"ô":{"x_min":52.78125,"x_max":709.71875,"ha":763,"o":"m 386 686 b 52 330 201 686 52 554 b 375 -15 52 118 194 -15 b 709 341 536 -15 709 93 b 386 686 709 546 579 686 m 383 594 b 584 337 527 594 584 451 b 380 76 584 186 497 76 b 177 335 261 76 177 187 b 383 594 177 461 240 594 m 337 963 l 206 764 l 298 764 l 377 895 l 380 895 l 462 764 l 555 764 l 422 963 l 337 963 "},"":{"x_min":59.09375,"x_max":968.8125,"ha":1024,"o":"m 621 483 b 452 294 606 397 532 294 b 360 400 391 294 360 339 b 581 650 360 535 459 650 b 650 639 613 650 636 644 l 621 483 m 704 98 b 495 50 647 68 574 50 b 138 426 289 50 138 194 b 554 889 138 708 328 889 b 891 540 770 889 891 743 b 741 287 891 380 811 284 b 699 443 695 289 678 337 l 746 695 b 597 724 710 711 656 724 b 268 394 404 724 268 567 b 418 219 268 284 338 219 b 614 341 502 219 566 259 l 618 341 b 722 219 616 255 667 219 b 968 550 852 219 968 341 b 566 953 968 782 807 953 b 59 418 257 953 59 704 b 479 -16 59 150 252 -16 b 727 38 572 -16 650 -1 l 704 98 "},"Ė":{"x_min":104.171875,"x_max":631.9375,"ha":683,"o":"m 588 539 l 226 539 l 226 835 l 611 835 l 611 936 l 104 936 l 104 0 l 631 0 l 631 101 l 226 101 l 226 439 l 588 439 l 588 539 m 347 1002 b 415 1073 386 1002 415 1035 b 348 1142 415 1109 386 1142 b 279 1073 309 1142 279 1109 b 347 1002 279 1035 308 1002 "},"г":{"x_min":98.609375,"x_max":511.109375,"ha":535,"o":"m 98 672 l 98 0 l 219 0 l 219 575 l 511 575 l 511 672 l 98 672 "},"ấ":{"x_min":48.921875,"x_max":658.75,"ha":669,"o":"m 574 412 b 318 686 574 546 524 686 b 96 628 233 686 151 663 l 123 546 b 300 596 171 578 236 596 b 453 442 437 597 453 496 l 453 428 b 48 177 193 429 48 340 b 254 -15 48 80 118 -15 b 460 84 350 -15 422 31 l 464 84 l 474 0 l 583 0 b 574 161 576 45 574 102 l 574 412 m 455 226 b 450 187 455 215 454 201 b 285 75 430 130 373 75 b 171 191 223 75 171 111 b 455 343 171 322 322 346 l 455 226 m 279 963 l 162 764 l 251 764 l 322 895 l 325 895 l 396 764 l 489 764 l 369 963 l 279 963 m 546 1075 l 450 893 l 521 893 l 658 1075 l 546 1075 "},"":{"x_min":20.828125,"x_max":581.9375,"ha":639,"o":"m 563 903 l 131 903 l 73 470 b 200 478 106 474 147 478 b 458 279 379 478 458 396 b 245 83 459 158 359 83 b 51 133 162 83 88 111 l 20 40 b 245 -15 65 12 147 -15 b 581 293 441 -15 581 117 b 452 524 581 406 523 485 b 258 572 397 559 329 572 b 184 568 225 572 205 571 l 219 800 l 563 800 l 563 903 "},"Ŀ":{"x_min":104.171875,"x_max":626.390625,"ha":656,"o":"m 104 0 l 626 0 l 626 101 l 226 101 l 226 936 l 104 936 l 104 0 m 472 446 b 540 517 511 446 540 479 b 473 586 540 553 511 586 b 404 517 434 586 404 553 b 472 446 404 479 433 446 "},"х":{"x_min":11,"x_max":626,"ha":643,"o":"m 22 672 l 249 343 l 11 0 l 145 0 l 242 151 b 313 268 269 191 291 227 l 316 268 b 388 151 340 227 362 190 l 488 0 l 626 0 l 391 347 l 620 672 l 487 672 l 394 529 b 326 419 370 493 348 458 l 323 419 b 253 528 301 457 280 490 l 158 672 l 22 672 "},"ŋ":{"x_min":95.828125,"x_max":673.609375,"ha":771,"o":"m 101 0 l 223 0 l 223 404 b 231 461 223 425 226 446 b 395 586 254 529 316 586 b 551 387 511 586 551 496 l 551 70 b 386 -151 551 -58 497 -129 l 409 -248 b 673 82 558 -227 673 -132 l 673 400 b 436 686 673 631 529 686 b 213 561 325 686 247 624 l 211 561 l 204 672 l 95 672 b 101 490 100 617 101 561 l 101 0 "},"Ỵ":{"x_min":16.671875,"x_max":748.609375,"ha":751,"o":"m 436 0 l 436 398 l 748 936 l 612 936 l 477 678 b 383 485 441 607 408 546 l 380 485 b 287 678 351 550 322 607 l 155 936 l 16 936 l 313 397 l 313 0 l 436 0 m 375 -251 b 443 -180 413 -251 443 -218 b 376 -111 443 -144 413 -111 b 306 -180 337 -111 306 -144 b 375 -251 306 -218 336 -251 "},"Ч":{"x_min":98.609375,"x_max":723.609375,"ha":829,"o":"m 98 936 l 98 617 b 375 336 98 389 251 336 b 600 394 456 336 534 357 l 602 394 l 602 -5 l 723 -5 l 723 936 l 602 936 l 602 489 b 416 435 554 457 483 435 b 219 636 286 435 219 507 l 219 936 l 98 936 "},"":{"x_min":50.625,"x_max":558.953125,"ha":613,"o":"m 50 -134 b 208 -158 85 -148 147 -158 b 558 123 415 -158 558 -45 b 495 280 558 183 536 240 b 189 365 422 350 304 368 l 229 574 l 531 574 l 546 674 l 147 674 l 77 275 b 392 215 228 284 338 268 b 435 113 420 189 435 152 b 207 -65 435 -2 327 -65 b 65 -47 154 -65 97 -57 l 50 -134 "},"":{"x_min":29.171875,"x_max":151.390625,"ha":182,"o":"m 88 -212 b 151 -150 126 -212 151 -184 b 90 -87 151 -112 126 -87 b 29 -150 55 -87 29 -112 b 88 -212 29 -184 54 -212 "},"":{"x_min":0.0625,"x_max":157,"ha":182,"o":"m 66 522 b 157 739 97 572 133 661 l 54 731 b 0 515 44 663 22 576 l 66 522 "},"":{"x_min":75,"x_max":327.78125,"ha":417,"o":"m 223 736 b 327 899 255 799 327 821 b 211 1003 327 960 276 1003 b 75 910 141 1003 100 960 l 122 882 b 190 931 138 907 159 931 b 236 884 215 931 236 913 b 158 753 236 832 175 814 l 223 736 "},"ü":{"x_min":97.21875,"x_max":669.453125,"ha":765,"o":"m 663 674 l 541 674 l 541 262 b 530 200 541 239 537 216 b 369 87 508 144 451 87 b 219 303 259 87 219 175 l 219 674 l 97 674 l 97 280 b 329 -13 97 45 223 -13 b 551 111 448 -13 520 57 l 554 111 l 561 1 l 669 1 b 663 186 665 54 663 115 l 663 674 m 256 793 b 326 864 298 793 326 827 b 259 935 326 904 297 935 b 188 864 219 935 188 903 b 256 793 188 827 218 793 m 513 793 b 583 864 555 793 583 827 b 515 935 583 904 554 935 b 445 864 476 935 445 903 b 513 793 445 827 473 793 "},"":{"x_min":36.171875,"x_max":382.046875,"ha":417,"o":"m 108 1162 b 143 1205 112 1182 120 1205 b 202 1181 159 1205 175 1196 b 287 1152 232 1166 257 1152 b 382 1285 352 1152 383 1199 l 316 1285 b 279 1230 313 1241 300 1230 b 220 1252 261 1230 243 1239 b 134 1281 187 1269 163 1281 b 40 1162 75 1281 43 1231 l 108 1162 m 36 1114 b 207 971 45 1038 98 971 b 382 1114 315 971 372 1041 l 316 1114 b 208 1048 305 1077 279 1048 b 101 1114 140 1048 111 1081 l 36 1114 "},"ь":{"x_min":97.21875,"x_max":641.671875,"ha":692,"o":"m 97 672 l 97 2 b 277 -6 148 -2 211 -6 b 570 70 376 -6 497 8 b 641 225 613 107 641 155 b 330 453 641 404 481 453 b 219 446 294 453 248 450 l 219 672 l 97 672 m 218 357 b 305 365 247 362 273 365 b 519 222 397 365 519 339 b 309 80 519 111 400 80 b 218 86 269 80 243 82 l 218 357 "},"":{"x_min":25,"x_max":240.28125,"ha":265,"o":"m 25 289 l 25 222 l 240 222 l 240 289 l 25 289 "},"":{"x_min":31.9375,"x_max":429.171875,"ha":461,"o":"m 370 917 b 316 914 356 917 337 916 b 125 835 237 906 173 881 b 31 594 69 782 31 697 b 237 362 31 460 108 362 b 429 556 350 362 429 448 b 259 729 429 660 359 729 b 129 672 201 729 155 701 l 126 672 b 315 842 141 756 204 827 b 370 843 336 845 356 845 l 370 917 m 237 433 b 123 571 162 433 123 496 b 130 600 123 583 126 592 b 229 663 148 636 186 663 b 334 550 294 663 334 618 b 237 433 334 483 295 433 "},"Ÿ":{"x_min":16.671875,"x_max":748.609375,"ha":751,"o":"m 436 0 l 436 398 l 748 936 l 612 936 l 477 678 b 383 485 441 607 408 546 l 380 485 b 287 678 351 550 322 607 l 155 936 l 16 936 l 313 397 l 313 0 l 436 0 m 258 992 b 326 1063 300 992 326 1024 b 259 1132 326 1102 298 1132 b 191 1063 220 1132 191 1100 b 258 992 191 1024 219 992 m 515 992 b 584 1063 558 992 584 1024 b 518 1132 584 1102 556 1132 b 448 1063 477 1132 448 1100 b 515 992 448 1024 476 992 "},"€":{"x_min":14.28125,"x_max":689.28125,"ha":713,"o":"m 665 130 b 496 84 633 111 569 84 b 300 165 421 84 351 109 b 224 347 261 207 235 266 l 617 347 l 617 417 l 214 417 b 214 440 214 425 214 432 b 217 499 214 461 214 480 l 617 499 l 617 568 l 229 568 b 311 746 243 642 271 704 b 496 821 358 795 421 821 b 651 782 558 821 615 803 l 679 874 b 493 918 640 895 576 918 b 219 803 380 918 289 877 b 105 568 162 746 122 665 l 14 568 l 14 499 l 96 499 b 93 437 94 479 93 458 b 93 417 93 430 93 423 l 14 417 l 14 347 l 100 347 b 200 108 112 247 147 166 b 482 -15 268 27 369 -15 b 689 41 572 -15 646 12 l 665 130 "},"в":{"x_min":97.21875,"x_max":641.671875,"ha":694,"o":"m 97 0 b 287 -8 133 -2 212 -8 b 641 190 419 -8 641 13 b 470 355 641 287 569 341 l 470 358 b 611 511 547 375 611 428 b 311 679 611 660 425 679 b 97 664 233 679 145 672 l 97 0 m 215 589 b 309 594 243 592 268 594 b 490 496 431 594 490 562 b 306 389 490 415 397 389 l 215 389 l 215 589 m 213 309 l 302 309 b 516 191 418 309 516 289 b 311 75 516 93 394 75 b 213 79 273 75 248 76 l 213 309 "},"Η":{"x_min":104.171875,"x_max":801.390625,"ha":906,"o":"m 104 936 l 104 0 l 226 0 l 226 439 l 679 439 l 679 0 l 801 0 l 801 936 l 679 936 l 679 544 l 226 544 l 226 936 l 104 936 "},"С":{"x_min":50,"x_max":761.109375,"ha":806,"o":"m 734 126 b 536 87 686 102 611 87 b 177 464 309 87 177 233 b 543 850 177 710 323 850 b 730 811 620 850 686 834 l 761 910 b 538 952 729 927 654 952 b 50 460 248 952 50 754 b 511 -15 50 151 247 -15 b 758 29 625 -15 715 6 l 734 126 "},"ß":{"x_min":101.390625,"x_max":702.78125,"ha":761,"o":"m 223 0 l 223 633 b 390 906 223 831 283 906 b 534 754 476 906 534 850 b 523 695 534 732 530 711 b 398 524 441 656 398 594 b 506 339 398 446 448 394 b 581 196 555 293 581 254 b 445 79 581 132 534 79 b 329 107 404 79 365 88 l 306 13 b 454 -15 347 -6 402 -15 b 702 205 608 -15 702 75 b 590 419 702 305 645 364 b 519 540 547 464 519 493 b 618 653 519 588 555 626 b 651 767 634 676 651 720 b 404 1002 651 920 536 1002 b 201 931 319 1002 252 978 b 101 628 138 875 101 786 l 101 0 l 223 0 "},"њ":{"x_min":97.21875,"x_max":1036.109375,"ha":1086,"o":"m 97 672 l 97 0 l 219 0 l 219 328 l 502 328 l 502 1 b 684 -6 554 -2 618 -6 b 968 69 781 -6 894 5 b 1036 222 1008 104 1036 153 b 738 445 1036 389 875 445 b 625 438 700 445 652 442 l 625 672 l 502 672 l 502 422 l 219 422 l 219 672 l 97 672 m 623 351 b 715 358 651 356 680 358 b 913 218 806 358 913 331 b 715 80 913 110 802 80 b 623 84 673 80 647 83 l 623 351 "},"":{"x_min":-62,"x_max":449,"ha":417,"o":"m -62 1150 l 115 988 l 207 988 l 81 1150 l -62 1150 m 179 1150 l 355 988 l 449 988 l 321 1150 l 179 1150 "},"Ể":{"x_min":105.84375,"x_max":662.796875,"ha":683,"o":"m 590 539 l 228 539 l 228 835 l 611 835 l 611 936 l 105 936 l 105 0 l 633 0 l 633 101 l 228 101 l 228 439 l 590 439 l 590 539 m 314 1145 l 185 986 l 279 986 l 355 1084 l 358 1084 l 436 986 l 533 986 l 401 1145 l 314 1145 m 566 1047 b 662 1192 604 1111 662 1125 b 553 1289 662 1248 615 1289 b 421 1200 485 1289 444 1249 l 465 1174 b 533 1225 480 1198 504 1225 b 580 1180 560 1225 580 1206 b 508 1064 580 1135 530 1123 l 566 1047 "},"ẳ":{"x_min":48.90625,"x_max":585.015625,"ha":669,"o":"m 573 412 b 318 686 573 546 523 686 b 97 628 233 686 153 662 l 125 546 b 300 596 171 578 237 596 b 453 441 437 597 453 496 l 453 427 b 48 177 193 429 48 340 b 254 -15 48 80 118 -15 b 460 84 350 -15 422 31 l 464 84 l 473 0 l 585 0 b 573 161 576 45 573 102 l 573 412 m 455 226 b 450 187 455 213 454 199 b 285 74 430 130 373 74 b 171 191 223 74 171 111 b 455 343 171 322 322 345 l 455 226 m 344 881 b 441 1024 382 943 441 956 b 329 1122 441 1078 393 1122 b 197 1034 262 1122 221 1081 l 241 1006 b 308 1056 257 1029 280 1056 b 354 1011 335 1056 354 1036 b 283 896 354 967 305 954 l 344 881 m 147 913 b 326 740 148 825 204 740 b 507 913 432 740 504 808 l 437 913 b 326 817 433 865 397 817 b 216 913 265 817 225 858 l 147 913 "},"Ű":{"x_min":104.171875,"x_max":794.453125,"ha":899,"o":"m 104 936 l 104 385 b 440 -15 104 93 248 -15 b 794 389 643 -15 794 101 l 794 936 l 672 936 l 672 380 b 444 83 672 175 581 83 b 226 380 319 83 226 172 l 226 936 l 104 936 m 393 1149 l 281 993 l 370 993 l 525 1149 l 393 1149 m 597 1149 l 486 993 l 575 993 l 729 1149 l 597 1149 "},"c":{"x_min":52.78125,"x_max":583.328125,"ha":622,"o":"m 559 115 b 409 83 525 100 479 83 b 176 335 276 83 176 179 b 413 589 176 474 259 589 b 555 557 480 589 526 572 l 583 650 b 413 686 550 668 486 686 b 52 328 194 686 52 535 b 387 -15 52 122 184 -15 b 580 23 477 -15 548 8 l 559 115 "},"¶":{"x_min":47.203125,"x_max":591.671875,"ha":711,"o":"m 406 -68 l 406 856 l 505 856 l 505 -68 l 591 -68 l 591 928 b 429 939 556 935 502 939 b 47 632 125 939 45 777 b 311 368 50 453 201 368 l 320 368 l 320 -68 l 406 -68 "},"Ή":{"x_min":0,"x_max":897.21875,"ha":1003,"o":"m 201 936 l 201 0 l 322 0 l 322 439 l 775 439 l 775 0 l 897 0 l 897 936 l 775 936 l 775 544 l 322 544 l 322 936 l 201 936 m 9 936 l 0 721 l 72 721 l 119 936 l 9 936 "},"Ụ":{"x_min":104.171875,"x_max":794.453125,"ha":899,"o":"m 104 936 l 104 385 b 440 -15 104 93 248 -15 b 794 389 643 -15 794 101 l 794 936 l 672 936 l 672 380 b 444 83 672 175 581 83 b 226 380 319 83 226 172 l 226 936 l 104 936 m 450 -251 b 518 -180 488 -251 518 -218 b 451 -111 518 -144 488 -111 b 381 -180 412 -111 381 -144 b 450 -251 381 -218 411 -251 "},"γ":{"x_min":-6.9375,"x_max":615.28125,"ha":644,"o":"m 375 -275 b 370 2 373 -180 373 -76 b 377 36 370 15 370 25 b 615 626 506 232 615 454 b 612 672 615 643 615 661 l 497 672 b 497 626 497 660 497 646 b 338 150 497 461 400 261 l 334 150 b 130 672 291 355 190 581 l -6 672 b 230 119 61 569 179 341 b 254 -275 261 -13 258 -145 l 375 -275 "},"­":{"x_min":41.671875,"x_max":384.71875,"ha":404,"o":"m 41 419 l 41 330 l 384 330 l 384 419 l 41 419 "},"ȳ":{"x_min":13,"x_max":645,"ha":654,"o":"m 13 672 l 260 52 b 269 20 267 37 269 27 b 260 -8 269 13 265 4 b 157 -144 231 -70 190 -118 b 50 -204 121 -175 81 -194 l 81 -305 b 231 -227 111 -300 169 -279 b 461 193 314 -154 374 -37 l 645 672 l 515 672 l 382 278 b 339 137 365 229 351 177 l 336 137 b 292 275 325 177 308 230 l 146 672 l 13 672 m 172 893 l 172 814 l 485 814 l 485 893 l 172 893 "},":":{"x_min":73.609375,"x_max":237.5,"ha":288,"o":"m 154 475 b 237 561 205 475 237 512 b 155 649 237 613 205 649 b 73 561 108 649 73 613 b 154 475 73 512 106 475 m 154 -15 b 237 70 205 -15 237 22 b 155 158 237 122 205 158 b 73 70 108 158 73 122 b 154 -15 73 22 106 -15 "},"":{"x_min":18.0625,"x_max":195.828125,"ha":250,"o":"m 88 -82 b 195 254 138 -12 195 94 b 88 590 195 417 138 524 l 18 590 b 118 254 73 510 118 401 b 18 -82 118 107 72 0 l 88 -82 "},"":{"x_min":51,"x_max":498.125,"ha":417,"o":"m 162 1149 l 51 993 l 139 993 l 293 1149 l 162 1149 m 366 1149 l 255 993 l 343 993 l 498 1149 l 366 1149 "},"₫":{"x_min":93.0625,"x_max":672.21875,"ha":713,"o":"m 123 136 l 123 54 l 591 54 l 591 136 l 123 136 m 480 923 l 480 829 l 305 829 l 305 761 l 480 761 l 480 639 l 477 639 b 327 711 452 681 401 711 b 93 454 198 711 93 614 b 313 212 93 309 188 212 b 487 303 397 212 458 250 l 490 303 l 494 223 l 590 223 b 586 346 587 255 586 304 l 586 761 l 672 761 l 672 829 l 586 829 l 586 923 l 480 923 m 480 430 b 475 394 480 419 479 404 b 343 294 459 333 404 294 b 204 458 252 294 204 368 b 347 629 204 557 256 629 b 476 533 412 629 463 585 b 480 496 479 524 480 508 l 480 430 "},"ś":{"x_min":55.125,"x_max":494.015625,"ha":550,"o":"m 55 31 b 244 -15 102 4 170 -15 b 494 187 400 -15 494 68 b 317 389 494 287 432 346 b 191 504 230 423 191 448 b 302 596 191 554 230 596 b 439 556 364 596 413 572 l 469 644 b 305 686 432 668 373 686 b 73 489 162 686 73 597 b 252 298 73 408 130 343 b 375 176 341 265 375 234 b 246 76 375 119 334 76 b 84 123 185 76 121 101 l 55 31 m 338 963 l 217 764 l 303 764 l 473 963 l 338 963 "}," ":{"x_min":0,"x_max":0,"ha":294},"У":{"x_min":3,"x_max":729,"ha":724,"o":"m 3 936 l 313 303 b 318 246 325 280 327 266 b 134 86 287 179 230 86 b 89 90 114 86 100 87 l 77 -8 b 145 -16 93 -13 114 -16 b 356 98 229 -16 297 22 b 531 453 423 184 481 328 l 729 936 l 601 936 l 454 539 b 397 371 431 472 413 418 l 393 371 b 326 535 372 425 350 479 l 140 936 l 3 936 "},"¾":{"x_min":41.234375,"x_max":1019.015625,"ha":1054,"o":"m 91 809 b 207 846 113 824 157 846 b 296 777 271 846 296 811 b 170 689 296 713 221 689 l 132 689 l 132 625 l 170 625 b 317 528 244 627 317 599 b 195 435 319 485 281 435 b 66 471 144 435 88 456 l 41 401 b 200 362 73 380 134 362 b 420 525 342 362 420 439 b 291 660 420 596 366 649 l 291 663 b 396 788 356 685 396 731 b 225 918 396 854 346 918 b 67 874 157 918 99 896 l 91 809 m 321 -15 l 848 918 l 770 918 l 242 -15 l 321 -15 m 935 0 l 935 143 l 1019 143 l 1019 211 l 935 211 l 935 549 l 834 549 l 566 197 l 566 143 l 844 143 l 844 0 l 935 0 m 844 211 l 666 211 l 664 212 l 799 386 b 845 462 814 408 827 432 l 848 462 b 844 375 846 437 844 408 l 844 211 "},"Ί":{"x_min":0,"x_max":323.609375,"ha":429,"o":"m 201 936 l 201 0 l 323 0 l 323 936 l 201 936 m 9 936 l 0 721 l 72 721 l 120 936 l 9 936 "},"ŉ":{"x_min":25,"x_max":673.609375,"ha":771,"o":"m 101 0 l 223 0 l 223 404 b 231 461 223 425 226 446 b 395 586 254 529 316 586 b 551 387 511 586 551 496 l 551 0 l 673 0 l 673 400 b 436 686 673 631 529 686 b 213 561 325 686 247 624 l 211 561 l 204 672 l 95 672 b 101 490 100 617 101 561 l 101 0 m 77 745 b 170 904 100 761 170 811 b 122 1005 170 953 144 991 l 33 981 b 76 899 56 961 76 931 b 25 785 76 846 48 811 l 77 745 "},"⁶":{"x_min":31.9375,"x_max":429.171875,"ha":461,"o":"m 370 1163 b 316 1160 356 1163 337 1162 b 125 1081 237 1152 173 1127 b 31 840 69 1028 31 943 b 237 607 31 704 108 607 b 429 800 350 607 429 693 b 259 975 429 906 359 975 b 129 918 201 975 155 948 l 126 918 b 315 1088 141 1002 204 1073 b 370 1089 336 1091 356 1091 l 370 1163 m 237 678 b 123 815 162 678 123 740 b 130 846 123 828 126 838 b 229 909 148 882 186 909 b 334 795 294 909 334 864 b 237 678 334 728 295 678 "},"":{"x_min":77.78125,"x_max":675,"ha":736,"o":"m 612 842 b 77 328 280 824 77 615 b 386 -15 77 122 201 -15 b 675 282 530 -15 675 94 b 416 547 675 447 556 547 b 213 446 319 547 248 496 l 209 447 b 620 752 240 604 370 736 l 612 842 m 387 77 b 201 286 273 77 201 173 b 245 401 201 332 212 366 b 386 461 272 429 322 461 b 554 275 486 461 554 389 b 387 77 554 143 469 77 "},"Ȝ":{"x_min":43.0625,"x_max":612.5,"ha":667,"o":"m 87 -160 b 612 259 406 -122 612 47 b 363 515 612 409 504 503 l 363 519 b 534 747 458 562 534 643 b 281 953 534 870 431 953 b 43 888 187 953 87 915 l 68 806 b 258 856 102 824 184 856 b 412 728 348 854 412 804 b 133 497 412 618 290 532 l 150 411 b 280 434 197 426 251 434 b 484 252 411 437 484 354 b 72 -64 484 88 294 -32 l 87 -160 "},"":{"x_min":66.671875,"x_max":683.328125,"ha":736,"o":"m 423 0 l 423 159 l 637 159 l 637 227 l 423 227 l 423 311 l 637 311 l 637 379 l 461 379 l 683 715 l 556 715 l 430 504 b 372 393 409 465 387 428 l 369 393 b 315 501 354 426 337 460 l 195 715 l 66 715 l 273 379 l 97 379 l 97 311 l 308 311 l 308 227 l 97 227 l 97 159 l 308 159 l 308 0 l 423 0 "},"Ģ":{"x_min":49.65625,"x_max":819.109375,"ha":897,"o":"m 819 492 l 510 492 l 510 394 l 699 394 l 699 115 b 538 90 671 101 617 90 b 177 468 319 90 177 230 b 553 845 177 703 326 845 b 760 804 648 845 710 828 l 791 903 b 556 946 751 923 664 946 b 49 462 242 946 49 742 b 180 113 49 316 99 191 b 530 -9 271 26 388 -9 b 819 41 656 -9 764 20 l 819 492 m 413 -308 b 592 -159 499 -303 592 -261 b 537 -57 592 -113 564 -75 l 446 -76 b 494 -161 471 -97 494 -127 b 389 -251 494 -215 444 -243 l 413 -308 "},"m":{"x_min":95.828125,"x_max":1062.5,"ha":1158,"o":"m 101 0 l 220 0 l 220 404 b 230 464 220 425 223 447 b 381 586 250 525 306 586 b 522 403 475 586 522 510 l 522 0 l 641 0 l 641 415 b 651 476 641 437 645 458 b 797 586 673 535 726 586 b 943 379 894 586 943 510 l 943 0 l 1062 0 l 1062 394 b 840 686 1062 628 930 686 b 693 639 776 686 733 670 b 616 551 665 618 637 590 l 613 551 b 425 686 584 631 515 686 b 212 562 312 686 250 626 l 208 562 l 202 672 l 95 672 b 101 490 98 617 101 561 l 101 0 "},"Ị":{"x_min":98.609375,"x_max":234.71875,"ha":332,"o":"m 104 936 l 104 0 l 226 0 l 226 936 l 104 936 m 166 -251 b 234 -180 205 -251 234 -218 b 168 -111 234 -144 205 -111 b 98 -180 129 -111 98 -144 b 166 -251 98 -218 127 -251 "},"Е":{"x_min":104.171875,"x_max":631.9375,"ha":683,"o":"m 588 539 l 226 539 l 226 835 l 611 835 l 611 936 l 104 936 l 104 0 l 631 0 l 631 101 l 226 101 l 226 439 l 588 439 l 588 539 "},"":{"x_min":140.28125,"x_max":276.390625,"ha":417,"o":"m 208 -251 b 276 -180 247 -251 276 -218 b 209 -111 276 -144 247 -111 b 140 -180 170 -111 140 -144 b 208 -251 140 -218 169 -251 "},"ž":{"x_min":24.90625,"x_max":569.0625,"ha":594,"o":"m 24 0 l 569 0 l 569 97 l 177 97 l 177 100 b 263 205 208 133 234 168 l 563 596 l 563 672 l 52 672 l 52 575 l 416 575 l 416 572 b 327 467 385 536 358 504 l 24 70 l 24 0 m 359 764 l 489 963 l 398 963 l 316 831 l 313 831 l 231 963 l 138 963 l 272 764 l 359 764 "},"⁵":{"x_min":26.390625,"x_max":387.5,"ha":428,"o":"m 372 1153 l 91 1153 l 55 889 b 134 895 76 891 104 895 b 291 785 247 895 291 849 b 169 679 291 718 231 679 b 45 709 116 679 69 696 l 26 639 b 172 607 54 624 111 607 b 387 792 300 607 387 685 b 311 932 387 861 352 909 b 181 962 273 955 227 962 b 138 960 163 962 150 962 l 156 1077 l 372 1077 l 372 1153 "},"ớ":{"x_min":52.84375,"x_max":769.546875,"ha":768,"o":"m 383 594 b 586 339 529 596 586 453 b 380 76 584 186 497 76 b 177 335 261 76 177 187 b 383 594 177 461 240 594 m 652 770 b 676 688 666 745 676 717 b 619 632 675 651 655 632 b 501 668 576 632 534 658 b 386 686 463 679 427 686 b 52 330 201 686 52 554 b 375 -15 52 118 194 -15 b 709 341 536 -15 709 93 b 640 564 709 430 684 507 b 769 683 725 560 769 610 b 745 785 769 722 759 757 l 652 770 m 443 963 l 320 764 l 407 764 l 576 963 l 443 963 "},"":{"x_min":28.875,"x_max":387.21875,"ha":417,"o":"m 266 1075 l 156 892 l 230 892 l 384 1075 l 266 1075 m 28 913 b 208 740 30 827 85 740 b 387 913 312 740 385 809 l 317 913 b 208 817 313 866 278 817 b 98 913 146 817 106 859 l 28 913 "},"á":{"x_min":48.921875,"x_max":583.640625,"ha":669,"o":"m 573 412 b 318 686 573 546 523 686 b 96 628 233 686 151 663 l 123 546 b 300 596 171 578 236 596 b 453 442 437 597 453 496 l 453 428 b 48 177 193 429 48 340 b 254 -15 48 80 118 -15 b 460 84 350 -15 422 31 l 464 84 l 473 0 l 583 0 b 573 161 576 45 573 102 l 573 412 m 455 226 b 450 187 455 215 454 201 b 285 75 430 130 373 75 b 171 191 223 75 171 111 b 455 343 171 322 322 346 l 455 226 m 382 963 l 261 764 l 347 764 l 516 963 l 382 963 "},"×":{"x_min":56,"x_max":773,"ha":828,"o":"m 56 670 l 353 365 l 56 61 l 117 0 l 414 304 l 711 0 l 773 61 l 474 365 l 773 670 l 711 731 l 414 426 l 117 731 l 56 670 "},"п":{"x_min":97.21875,"x_max":654.171875,"ha":751,"o":"m 97 672 l 97 0 l 219 0 l 219 576 l 531 576 l 531 0 l 654 0 l 654 672 l 97 672 "},"Ǻ":{"x_min":34.875,"x_max":819.59375,"ha":850,"o":"m 433 961 b 558 1068 509 961 558 1007 b 434 1178 558 1130 512 1178 b 307 1068 354 1178 307 1128 b 433 961 307 1009 354 961 m 432 1013 b 370 1068 395 1013 370 1038 b 430 1128 370 1100 391 1128 b 494 1070 469 1128 494 1102 b 432 1013 494 1035 469 1013 m 508 1323 l 359 1203 l 468 1203 l 666 1323 l 508 1323 m 590 294 l 690 0 l 819 0 l 500 936 l 352 936 l 34 0 l 159 0 l 257 294 l 590 294 m 282 389 l 373 660 b 420 829 393 717 407 775 l 423 829 b 472 658 437 775 451 720 l 565 389 l 282 389 "},"K":{"x_min":105.5625,"x_max":766.671875,"ha":753,"o":"m 105 0 l 226 0 l 226 357 l 316 460 l 623 0 l 766 0 l 401 539 l 740 936 l 590 936 l 304 585 b 230 485 280 554 255 521 l 226 485 l 226 936 l 105 936 l 105 0 "},"7":{"x_min":78.96875,"x_max":648.40625,"ha":713,"o":"m 78 903 l 78 802 l 520 802 l 520 799 l 128 0 l 255 0 l 648 822 l 648 903 l 78 903 "},"¨":{"x_min":9.71875,"x_max":405.5625,"ha":417,"o":"m 77 793 b 147 864 119 793 147 827 b 80 935 147 904 118 935 b 9 864 40 935 9 903 b 77 793 9 827 38 793 m 336 793 b 405 864 377 793 405 827 b 337 935 405 904 376 935 b 268 864 298 935 268 903 b 336 793 268 827 295 793 "},"Y":{"x_min":16.671875,"x_max":748.609375,"ha":751,"o":"m 436 0 l 436 398 l 748 936 l 612 936 l 477 678 b 383 485 441 607 408 546 l 380 485 b 287 678 351 550 322 607 l 155 936 l 16 936 l 313 397 l 313 0 l 436 0 "},"E":{"x_min":104.171875,"x_max":631.9375,"ha":683,"o":"m 588 539 l 226 539 l 226 835 l 611 835 l 611 936 l 104 936 l 104 0 l 631 0 l 631 101 l 226 101 l 226 439 l 588 439 l 588 539 "},"Ô":{"x_min":50,"x_max":905.5625,"ha":957,"o":"m 483 953 b 50 461 233 953 50 758 b 470 -15 50 177 222 -15 b 905 478 709 -15 905 157 b 483 953 905 757 740 953 m 479 854 b 777 472 680 854 777 660 b 477 83 777 259 669 83 b 177 464 286 83 177 262 b 479 854 177 668 277 854 m 429 1149 l 287 991 l 386 991 l 475 1087 l 477 1087 l 565 991 l 668 991 l 522 1149 l 429 1149 "},"":{"x_min":0.0625,"x_max":157,"ha":182,"o":"m 66 -296 b 157 -79 97 -246 133 -157 l 54 -87 b 0 -303 44 -155 22 -241 l 66 -296 "},"ổ":{"x_min":52.78125,"x_max":709.71875,"ha":763,"o":"m 386 687 b 52 331 201 687 52 555 b 375 -14 52 118 194 -14 b 709 342 536 -14 709 93 b 386 687 709 546 579 687 m 383 595 b 584 338 527 595 584 452 b 380 77 584 186 497 77 b 177 335 261 77 177 188 b 383 595 177 462 240 595 m 334 963 l 218 765 l 306 765 l 377 895 l 380 895 l 451 765 l 543 765 l 425 963 l 334 963 m 584 881 b 679 1025 620 944 679 956 b 569 1123 679 1079 631 1123 b 437 1034 501 1123 461 1082 l 481 1007 b 547 1057 497 1030 519 1057 b 594 1012 573 1057 594 1037 b 523 898 594 968 545 955 l 584 881 "},"Є":{"x_min":51.4375,"x_max":755.609375,"ha":800,"o":"m 755 907 b 537 952 722 925 655 952 b 51 467 233 952 51 731 b 515 -15 51 164 250 -15 b 754 30 626 -15 708 6 l 733 123 b 537 86 677 100 609 86 b 182 430 323 86 187 240 l 661 430 l 661 526 l 180 526 b 541 852 200 708 329 852 b 726 813 615 852 682 835 l 755 907 "},"Ï":{"x_min":-29.171875,"x_max":363.890625,"ha":332,"o":"m 104 936 l 104 0 l 226 0 l 226 936 l 104 936 m 37 1002 b 105 1073 79 1002 105 1034 b 38 1142 105 1112 77 1142 b -29 1073 0 1142 -29 1110 b 37 1002 -29 1034 -1 1002 m 294 1002 b 363 1073 337 1002 363 1034 b 297 1142 363 1112 336 1142 b 227 1073 256 1142 227 1110 b 294 1002 227 1034 255 1002 "},"ġ":{"x_min":53.1875,"x_max":682.34375,"ha":776,"o":"m 676 487 b 682 671 676 568 678 624 l 574 671 l 569 569 l 567 569 b 357 685 536 625 474 685 b 53 329 201 685 53 557 b 339 1 53 143 172 1 b 553 113 443 1 517 51 l 555 113 l 555 40 b 339 -196 555 -130 464 -196 b 142 -141 255 -196 186 -170 l 111 -236 b 335 -291 165 -272 254 -291 b 580 -211 419 -291 514 -271 b 676 97 644 -151 676 -58 l 676 487 m 554 284 b 544 219 554 264 551 240 b 375 94 519 141 451 94 b 176 336 244 94 176 204 b 376 590 176 492 260 590 b 547 460 467 590 525 532 b 554 405 553 444 554 426 l 554 284 m 386 795 b 455 867 428 795 455 828 b 387 938 455 906 426 938 b 317 867 349 938 317 906 b 386 795 317 828 346 795 "},"Ẳ":{"x_min":34.71875,"x_max":818.0625,"ha":850,"o":"m 588 294 l 688 0 l 818 0 l 498 936 l 354 936 l 34 0 l 159 0 l 256 294 l 588 294 m 281 389 l 373 660 b 420 829 393 717 406 775 l 423 829 b 472 658 437 775 451 720 l 563 389 l 281 389 m 450 1081 b 545 1226 487 1144 545 1156 b 436 1323 545 1278 498 1323 b 304 1234 368 1323 327 1283 l 348 1206 b 415 1256 363 1230 386 1256 b 461 1212 441 1256 461 1238 b 390 1098 461 1169 412 1155 l 450 1081 m 258 1114 b 430 971 268 1036 322 971 b 604 1114 538 971 595 1041 l 538 1114 b 431 1046 529 1077 502 1046 b 325 1114 362 1046 334 1081 l 258 1114 "},"ứ":{"x_min":97.21875,"x_max":797.21875,"ha":765,"o":"m 679 806 b 704 727 694 782 704 753 b 638 672 704 692 686 672 l 541 672 l 541 261 b 530 198 541 237 537 215 b 369 86 508 143 451 86 b 219 300 259 86 219 172 l 219 672 l 97 672 l 97 279 b 329 -15 97 44 223 -15 b 551 109 448 -15 520 55 l 554 109 l 561 0 l 669 0 b 663 183 665 52 663 113 l 663 606 l 679 606 b 797 722 747 608 797 654 b 772 822 797 760 787 793 l 679 806 m 459 963 l 337 764 l 423 764 l 593 963 l 459 963 "},"έ":{"x_min":54.171875,"x_max":583.328125,"ha":611,"o":"m 356 953 l 281 754 l 363 754 l 479 953 l 356 953 m 220 357 b 54 189 122 340 54 271 b 337 -15 54 37 202 -15 b 583 45 431 -15 531 11 l 561 127 b 363 77 520 104 437 77 b 181 198 265 77 181 119 b 393 314 181 280 272 314 l 479 314 l 479 400 l 397 400 b 209 497 291 400 209 429 b 365 597 209 557 270 597 b 533 554 431 597 504 574 l 559 635 b 355 686 509 668 441 686 b 87 505 176 686 87 594 b 220 362 88 437 131 382 l 220 357 "},"":{"x_min":25,"x_max":240.28125,"ha":265,"o":"m 25 903 l 25 836 l 240 836 l 240 903 l 25 903 "},"Ấ":{"x_min":35,"x_max":820,"ha":850,"o":"m 589 294 l 690 0 l 820 0 l 499 936 l 354 936 l 35 0 l 160 0 l 257 294 l 589 294 m 282 389 l 374 660 b 421 829 393 717 407 775 l 424 829 b 472 658 437 775 451 720 l 565 389 l 282 389 m 389 1144 l 261 985 l 354 985 l 432 1082 l 435 1082 l 511 985 l 608 985 l 476 1144 l 389 1144 m 658 1249 l 542 1103 l 614 1103 l 782 1249 l 658 1249 "},"":{"x_min":87.5,"x_max":329.171875,"ha":417,"o":"m 170 5 b 87 -165 137 -30 87 -95 b 218 -284 87 -243 140 -284 b 329 -252 251 -284 300 -273 l 309 -189 b 245 -202 293 -197 270 -202 b 176 -133 204 -202 176 -176 b 250 5 176 -80 229 -20 l 170 5 "},"ể":{"x_min":54.109375,"x_max":661.0625,"ha":696,"o":"m 641 314 b 647 371 645 328 647 346 b 369 687 647 495 590 687 b 54 325 173 687 54 528 b 384 -14 54 122 177 -14 b 609 28 491 -14 566 8 l 587 115 b 401 81 543 96 488 81 b 170 314 277 81 173 149 l 641 314 m 172 402 b 359 599 181 487 234 599 b 529 402 497 599 530 478 l 172 402 m 315 963 l 197 765 l 287 765 l 358 895 l 361 895 l 431 765 l 524 765 l 404 963 l 315 963 m 565 881 b 661 1025 601 944 661 956 b 549 1123 661 1079 612 1123 b 416 1034 481 1123 441 1082 l 462 1007 b 529 1057 477 1030 499 1057 b 574 1012 555 1057 574 1037 b 504 898 574 968 526 955 l 565 881 "},"":{"x_min":27.78125,"x_max":304.171875,"ha":394,"o":"m 122 -112 b 304 454 209 4 302 182 b 122 1020 304 727 209 906 l 27 1020 b 201 454 126 881 201 704 b 27 -112 201 204 125 25 l 122 -112 "},"ϋ":{"x_min":78.046875,"x_max":664.15625,"ha":728,"o":"m 229 774 b 297 845 271 774 297 807 b 230 914 297 884 268 914 b 161 845 191 914 161 882 b 229 774 161 807 189 774 m 483 774 b 553 845 526 774 553 807 b 486 914 553 884 523 914 b 416 845 446 914 416 882 b 483 774 416 807 444 774 m 500 672 b 544 398 515 638 544 524 b 366 86 544 205 483 86 b 214 273 293 86 214 137 l 214 547 b 194 672 214 619 207 658 l 78 672 b 93 446 90 635 93 564 l 93 257 b 357 -15 93 72 208 -15 b 664 410 600 -15 664 212 b 614 672 664 522 636 629 l 500 672 "},"й":{"x_min":97.21875,"x_max":672.21875,"ha":769,"o":"m 97 672 l 97 0 l 238 0 b 448 351 309 118 384 247 b 561 561 488 419 516 473 l 563 561 b 555 284 558 451 555 394 l 555 0 l 672 0 l 672 672 l 529 672 l 319 325 b 209 118 273 247 251 200 l 205 119 b 213 389 211 215 213 283 l 213 672 l 97 672 m 204 946 b 379 774 209 851 256 774 b 563 946 486 774 556 833 l 476 946 b 381 840 469 886 441 840 b 293 946 326 840 297 886 l 204 946 "},"b":{"x_min":95.828125,"x_max":738.890625,"ha":790,"o":"m 101 173 b 95 0 101 113 98 45 l 200 0 l 206 109 l 209 109 b 436 -15 261 22 338 -15 b 738 344 586 -15 738 104 b 454 686 738 547 622 686 b 225 564 345 686 268 639 l 222 564 l 222 986 l 101 986 l 101 173 m 222 389 b 229 440 222 408 225 425 b 413 590 254 532 331 590 b 615 340 545 590 615 475 b 411 82 615 186 540 82 b 227 225 322 82 250 140 b 222 269 223 239 222 254 l 222 389 "},"ύ":{"x_min":77.78125,"x_max":663.890625,"ha":728,"o":"m 377 953 l 302 754 l 386 754 l 501 953 l 377 953 m 498 672 b 544 398 515 638 544 524 b 366 86 544 205 483 86 b 213 273 293 86 213 137 l 213 547 b 194 672 213 619 206 658 l 77 672 b 93 446 90 635 93 564 l 93 257 b 356 -15 93 72 208 -15 b 663 410 600 -15 663 212 b 613 672 663 522 636 629 l 498 672 "},"ﬂ":{"x_min":20.828125,"x_max":626.390625,"ha":726,"o":"m 234 0 l 234 579 l 391 579 l 391 672 l 234 672 l 234 707 b 404 907 234 814 277 907 b 504 889 451 907 483 900 l 504 0 l 626 0 l 626 957 b 425 1002 575 985 502 1002 b 208 934 330 1002 261 978 b 113 701 145 879 113 796 l 113 672 l 20 672 l 20 579 l 113 579 l 113 0 l 234 0 "},"":{"x_min":15.28125,"x_max":676.390625,"ha":699,"o":"m 550 0 l 550 247 l 676 247 l 676 341 l 550 341 l 550 903 l 418 903 l 15 326 l 15 247 l 434 247 l 434 0 l 550 0 m 138 341 l 138 344 l 359 651 b 434 785 384 693 406 732 l 438 785 b 434 643 436 738 434 690 l 434 341 l 138 341 "},"":{"x_min":105.5625,"x_max":308.328125,"ha":417,"o":"m 129 -308 b 308 -159 215 -303 308 -261 b 252 -57 308 -113 280 -75 l 162 -76 b 209 -161 187 -97 209 -127 b 105 -251 209 -215 159 -243 l 129 -308 "},"ф":{"x_min":52.78125,"x_max":838.890625,"ha":890,"o":"m 388 985 l 390 685 b 52 332 201 670 52 553 b 390 -12 52 122 195 0 l 388 -273 l 502 -273 l 501 -11 b 838 339 690 1 838 118 b 501 686 838 547 697 671 l 502 985 l 388 985 m 390 72 b 173 335 256 88 173 197 b 390 601 173 474 255 585 l 390 72 m 501 601 b 718 339 636 583 718 478 b 501 70 718 201 636 90 l 501 601 "},"":{"x_min":20.375,"x_max":1030.09375,"ha":1124,"o":"m 978 960 b 810 1003 942 984 871 1003 b 517 711 621 1003 517 888 l 517 674 l 234 674 l 234 699 b 278 854 234 757 245 818 b 366 889 299 875 327 889 b 449 866 396 889 428 878 l 484 956 b 366 985 459 968 412 985 b 193 920 291 985 232 960 b 113 697 137 864 113 781 l 113 674 l 20 674 l 20 581 l 113 581 l 113 1 l 234 1 l 234 581 l 517 581 l 517 1 l 638 1 l 638 581 l 907 581 l 907 108 b 860 -144 907 -52 893 -105 b 727 -196 831 -176 784 -191 l 741 -291 b 949 -215 806 -291 895 -269 b 1030 61 1009 -154 1030 -69 l 1030 674 l 638 674 l 638 707 b 805 904 638 814 677 904 b 942 868 862 904 912 888 l 978 960 "},"Ŋ":{"x_min":105.125,"x_max":807.90625,"ha":914,"o":"m 219 0 l 219 400 b 210 786 219 555 217 668 l 214 788 b 388 475 260 686 323 579 l 691 -8 b 514 -182 681 -107 625 -160 l 539 -277 b 807 52 716 -250 807 -144 l 807 936 l 694 936 l 694 544 b 707 159 694 398 696 284 l 703 158 b 537 462 660 254 605 352 l 238 936 l 105 936 l 105 0 l 219 0 "},"Ũ":{"x_min":104.171875,"x_max":794.453125,"ha":899,"o":"m 104 936 l 104 385 b 440 -15 104 93 248 -15 b 794 389 643 -15 794 101 l 794 936 l 672 936 l 672 380 b 444 83 672 175 581 83 b 226 380 319 83 226 172 l 226 936 l 104 936 m 341 993 b 377 1055 345 1031 355 1055 b 443 1028 398 1055 416 1042 b 529 1002 475 1013 500 1002 b 622 1137 593 1002 623 1049 l 558 1137 b 520 1082 554 1092 541 1082 b 454 1107 498 1082 476 1095 b 370 1135 423 1123 401 1135 b 276 993 311 1135 275 1078 l 341 993 "},"Щ":{"x_min":105.5625,"x_max":1154.171875,"ha":1200,"o":"m 105 936 l 105 0 l 1043 0 l 1051 -226 l 1145 -226 l 1154 95 l 1072 98 l 1072 936 l 952 936 l 952 101 l 648 101 l 648 936 l 529 936 l 529 101 l 225 101 l 225 936 l 105 936 "},"L":{"x_min":104.171875,"x_max":626.390625,"ha":656,"o":"m 104 0 l 626 0 l 626 101 l 226 101 l 226 936 l 104 936 l 104 0 "},"":{"x_min":66.671875,"x_max":665.28125,"ha":736,"o":"m 487 444 b 633 633 586 492 633 553 b 373 843 633 750 530 843 b 100 618 219 843 100 752 b 240 439 100 531 162 472 l 240 435 b 66 215 137 389 66 315 b 362 -15 66 80 186 -15 b 665 230 529 -15 665 80 b 486 440 665 329 591 403 l 487 444 m 372 760 b 519 628 447 760 519 715 b 386 478 519 550 459 500 b 218 628 280 505 218 553 b 372 760 218 710 287 760 m 365 72 b 188 226 255 72 188 136 b 343 398 188 304 251 368 b 540 219 469 365 540 307 b 365 72 540 130 462 72 "},";":{"x_min":41.859375,"x_max":252.96875,"ha":301,"o":"m 127 -161 b 240 165 159 -95 216 57 l 105 158 b 41 -170 97 59 65 -87 l 127 -161 m 164 448 b 252 540 218 448 252 489 b 166 632 252 594 218 632 b 79 540 115 632 79 593 b 164 448 79 489 114 448 "},"ď":{"x_min":52.765625,"x_max":887.5,"ha":797,"o":"m 559 986 l 559 584 l 556 584 b 354 686 526 637 458 686 b 52 326 191 686 51 550 b 341 -15 52 121 179 -15 b 568 116 451 -15 531 41 l 572 116 l 577 0 l 686 0 b 680 173 683 45 680 113 l 680 986 l 559 986 m 559 281 b 554 228 559 262 558 245 b 375 82 531 138 456 82 b 176 331 244 82 176 195 b 377 590 176 479 251 590 b 554 449 469 590 536 526 b 559 398 558 434 559 413 l 559 281 m 794 723 b 887 897 815 740 887 793 b 837 999 887 943 862 983 l 750 979 b 793 889 773 958 793 923 b 743 765 793 832 765 790 l 794 723 "},"":{"x_min":-45.953125,"x_max":466.546875,"ha":418,"o":"m 17 1002 b 86 1070 58 1002 86 1031 b 20 1139 86 1109 58 1139 b -45 1070 -16 1139 -45 1109 b 17 1002 -45 1034 -19 1002 m 397 1002 b 466 1070 438 1002 466 1031 b 401 1139 466 1109 438 1139 b 334 1070 363 1139 334 1109 b 397 1002 334 1034 361 1002 m 197 1150 l 84 988 l 177 988 l 338 1150 l 197 1150 "},"Ο":{"x_min":50,"x_max":905.5625,"ha":957,"o":"m 470 -15 b 905 478 709 -15 905 157 b 483 953 905 757 740 953 b 50 461 233 953 50 758 b 470 -15 50 177 222 -15 m 477 83 b 177 464 286 83 177 265 b 479 854 177 665 277 854 b 777 472 680 854 777 660 b 477 83 777 259 669 83 "},"Ĭ":{"x_min":-5.5625,"x_max":337.5,"ha":332,"o":"m 104 936 l 104 0 l 226 0 l 226 936 l 104 936 m -5 1144 b 163 996 -2 1060 47 996 b 337 1144 283 996 334 1062 l 266 1144 b 166 1075 259 1107 233 1075 b 66 1144 98 1075 73 1112 l -5 1144 "},"":{"x_min":18,"x_max":399,"ha":417,"o":"m 159 1145 l 18 986 l 116 986 l 205 1082 l 208 1082 l 296 986 l 399 986 l 253 1145 l 159 1145 "},"ŧ":{"x_min":25,"x_max":423.609375,"ha":460,"o":"m 423 579 l 423 672 l 248 672 l 248 834 l 129 797 l 129 672 l 25 672 l 25 579 l 129 579 l 129 419 l 37 419 l 37 344 l 129 344 l 129 212 b 176 36 129 133 143 73 b 308 -15 205 4 251 -15 b 416 1 355 -15 393 -6 l 411 94 b 340 86 393 88 373 86 b 248 211 275 86 248 130 l 248 344 l 384 344 l 384 419 l 248 419 l 248 579 l 423 579 "},"À":{"x_min":35,"x_max":818,"ha":850,"o":"m 588 294 l 688 0 l 818 0 l 498 936 l 354 936 l 35 0 l 159 0 l 257 294 l 588 294 m 282 389 l 373 660 b 420 829 393 717 407 775 l 423 829 b 472 658 437 775 451 720 l 565 389 l 282 389 m 223 1149 l 401 988 l 500 988 l 370 1149 l 223 1149 "},"Ϊ":{"x_min":-30.5625,"x_max":361.109375,"ha":332,"o":"m 37 988 b 105 1057 79 988 105 1020 b 38 1127 105 1096 76 1127 b -30 1057 0 1127 -30 1095 b 37 988 -30 1020 -2 988 m 291 988 b 361 1057 334 988 361 1020 b 294 1127 361 1096 331 1127 b 225 1057 254 1127 225 1095 b 291 988 225 1020 252 988 m 104 936 l 104 0 l 226 0 l 226 936 l 104 936 "},"½":{"x_min":40.28125,"x_max":986.109375,"ha":1054,"o":"m 255 369 l 255 911 l 170 911 l 40 850 l 55 778 l 155 827 l 158 827 l 158 369 l 255 369 m 243 -15 l 769 918 l 691 918 l 165 -15 l 243 -15 m 611 0 l 986 0 l 986 76 l 750 76 l 750 79 l 791 118 b 976 393 897 212 976 287 b 793 549 976 467 923 549 b 622 492 722 549 659 522 l 651 428 b 768 471 677 447 719 471 b 873 373 840 471 873 428 b 698 132 873 303 813 239 l 611 51 l 611 0 "},"":{"x_min":41.671875,"x_max":1347.21875,"ha":1389,"o":"m 41 499 l 41 415 l 1347 415 l 1347 499 l 41 499 "},"'":{"x_min":70.828125,"x_max":191.671875,"ha":261,"o":"m 70 961 l 93 628 l 168 628 l 191 961 l 70 961 "},"ĳ":{"x_min":86.109375,"x_max":577.78125,"ha":663,"o":"m 223 0 l 223 672 l 101 672 l 101 0 l 223 0 m 162 938 b 86 861 116 938 86 903 b 159 786 86 820 115 786 b 237 861 208 786 237 820 b 162 938 237 904 206 938 m 273 -293 b 483 -216 340 -293 429 -271 b 563 59 543 -155 563 -70 l 563 672 l 441 672 l 441 107 b 394 -145 441 -54 427 -107 b 261 -197 365 -177 318 -193 l 273 -293 m 502 938 b 426 861 456 938 426 903 b 500 786 426 821 455 786 b 577 861 550 786 577 821 b 502 938 577 903 548 938 "},"Р":{"x_min":105.5625,"x_max":681.953125,"ha":739,"o":"m 105 0 l 226 0 l 226 375 b 323 366 254 368 287 366 b 609 469 441 366 544 401 b 681 670 656 518 681 585 b 600 866 681 753 650 821 b 337 943 544 916 456 943 b 105 925 240 943 163 935 l 105 0 m 226 838 b 340 847 247 843 287 847 b 561 663 472 847 561 788 b 326 464 561 536 472 464 b 226 474 286 464 252 467 l 226 838 "},"˛":{"x_min":87.5,"x_max":329.171875,"ha":417,"o":"m 170 5 b 87 -165 137 -30 87 -95 b 218 -284 87 -243 140 -284 b 329 -252 251 -284 300 -273 l 309 -189 b 245 -202 293 -197 270 -202 b 176 -133 204 -202 176 -176 b 250 5 176 -80 229 -20 l 170 5 "},"":{"x_min":26.390625,"x_max":387.5,"ha":428,"o":"m 372 909 l 91 909 l 55 643 b 134 649 76 646 104 649 b 291 539 247 649 291 604 b 169 433 291 472 231 433 b 45 464 116 433 69 450 l 26 394 b 172 361 54 379 111 361 b 387 547 300 361 387 440 b 311 686 387 615 352 663 b 181 716 273 709 227 716 b 138 714 163 716 150 716 l 156 832 l 372 832 l 372 909 "},"⁷":{"x_min":25.96875,"x_max":391.25,"ha":408,"o":"m 25 1155 l 25 1078 l 292 1078 l 292 1077 l 55 615 l 152 615 l 391 1095 l 391 1155 l 25 1155 "},"Ć":{"x_min":50,"x_max":761.109375,"ha":806,"o":"m 734 126 b 536 87 686 102 611 87 b 177 464 309 87 177 233 b 543 850 177 710 323 850 b 730 811 620 850 686 834 l 761 910 b 538 952 729 927 654 952 b 50 460 248 952 50 754 b 511 -15 50 151 247 -15 b 758 29 625 -15 715 6 l 734 126 m 555 1152 l 426 989 l 525 989 l 702 1152 l 555 1152 "},"Т":{"x_min":-1.390625,"x_max":691.671875,"ha":690,"o":"m 283 0 l 405 0 l 405 834 l 691 834 l 691 936 l -1 936 l -1 834 l 283 834 l 283 0 "},"£":{"x_min":77.734375,"x_max":654.125,"ha":713,"o":"m 654 0 l 654 101 l 240 101 l 240 104 b 336 254 287 144 320 194 b 341 410 348 304 345 357 l 530 410 l 530 497 l 330 497 b 315 646 322 542 315 586 b 466 820 315 745 358 820 b 591 792 524 820 566 806 l 618 884 b 466 918 588 902 538 918 b 199 647 312 918 199 811 b 215 497 199 593 208 539 l 86 497 l 86 410 l 229 410 b 236 312 234 373 236 346 b 77 69 236 208 170 116 l 77 0 l 654 0 "},"":{"x_min":48.65625,"x_max":388.921875,"ha":440,"o":"m 248 -70 l 248 15 b 388 159 340 29 388 91 b 252 314 388 234 345 279 b 147 398 173 343 147 361 b 231 462 147 429 168 462 b 345 433 288 462 327 443 l 368 501 b 252 531 343 515 304 529 l 252 608 l 190 608 l 190 526 b 55 387 105 512 55 458 b 201 240 55 311 109 273 b 297 151 268 215 297 193 b 201 80 297 109 259 80 b 70 118 150 80 104 97 l 48 48 b 186 11 80 27 133 12 l 186 -70 l 248 -70 "},"ẹ":{"x_min":52.953125,"x_max":646.015625,"ha":696,"o":"m 641 314 b 646 371 644 328 646 346 b 368 686 646 494 589 686 b 52 325 172 686 52 528 b 383 -15 52 122 176 -15 b 608 27 490 -15 565 8 l 586 115 b 400 80 541 95 487 80 b 169 314 276 80 172 148 l 641 314 m 171 401 b 358 599 180 486 233 599 b 527 401 496 599 529 478 l 171 401 m 347 -112 b 276 -183 308 -112 276 -144 b 346 -254 276 -222 305 -254 b 415 -183 387 -254 415 -222 b 347 -112 415 -143 386 -112 "},"ů":{"x_min":97.21875,"x_max":669.453125,"ha":765,"o":"m 663 672 l 541 672 l 541 261 b 530 198 541 237 537 215 b 369 86 508 143 451 86 b 219 301 259 86 219 173 l 219 672 l 97 672 l 97 279 b 329 -15 97 44 223 -15 b 551 109 448 -15 520 55 l 554 109 l 561 0 l 669 0 b 663 184 665 52 663 113 l 663 672 m 383 746 b 522 872 462 746 522 800 b 384 1003 522 948 468 1003 b 241 872 297 1003 241 946 b 383 746 241 802 300 746 m 381 797 b 312 872 340 797 312 835 b 380 952 312 916 338 952 b 454 874 426 952 454 917 b 381 797 454 832 426 797 "},"Ō":{"x_min":50,"x_max":905.5625,"ha":957,"o":"m 483 953 b 50 461 233 953 50 758 b 470 -15 50 177 222 -15 b 905 478 709 -15 905 157 b 483 953 905 757 740 953 m 479 854 b 777 472 680 854 777 660 b 477 83 777 259 669 83 b 177 464 286 83 177 262 b 479 854 177 668 277 854 m 312 1103 l 312 1027 l 645 1027 l 645 1103 l 312 1103 "},"":{"x_min":19.4375,"x_max":400,"ha":417,"o":"m 161 1145 l 19 986 l 118 986 l 206 1082 l 209 1082 l 297 986 l 400 986 l 254 1145 l 161 1145 m 109 1163 b 144 1219 111 1196 123 1219 b 205 1195 161 1219 177 1210 b 288 1166 233 1180 259 1166 b 383 1299 354 1166 386 1213 l 319 1299 b 280 1242 316 1255 302 1242 b 222 1264 263 1242 244 1253 b 136 1295 190 1281 166 1295 b 41 1163 77 1295 40 1242 l 109 1163 "},"а":{"x_min":48.921875,"x_max":583.640625,"ha":669,"o":"m 573 412 b 318 686 573 546 523 686 b 96 628 233 686 151 663 l 123 546 b 300 596 171 578 236 596 b 453 442 437 597 453 496 l 453 428 b 48 177 193 429 48 340 b 254 -15 48 80 118 -15 b 460 84 350 -15 422 31 l 464 84 l 473 0 l 583 0 b 573 161 576 45 573 102 l 573 412 m 455 226 b 450 187 455 215 454 201 b 285 75 430 130 373 75 b 171 191 223 75 171 111 b 455 343 171 322 322 346 l 455 226 "},"Ğ":{"x_min":49.65625,"x_max":819.109375,"ha":897,"o":"m 819 492 l 510 492 l 510 394 l 699 394 l 699 115 b 538 90 671 101 617 90 b 177 468 319 90 177 230 b 553 845 177 703 326 845 b 760 804 648 845 710 828 l 791 903 b 556 946 751 923 664 946 b 49 462 242 946 49 742 b 180 113 49 316 99 191 b 530 -9 271 26 388 -9 b 819 41 656 -9 764 20 l 819 492 m 320 1149 b 489 1002 323 1066 373 1002 b 663 1149 609 1002 660 1067 l 592 1149 b 492 1081 585 1113 559 1081 b 392 1149 424 1081 399 1117 l 320 1149 "},"ә":{"x_min":48.609375,"x_max":641.671875,"ha":456,"o":"m 108 556 b 295 590 156 575 209 590 b 525 357 422 590 522 522 l 52 357 b 48 300 50 344 48 325 b 326 -13 48 177 106 -13 b 641 346 522 -13 641 144 b 312 686 641 549 518 686 b 86 642 205 686 130 661 l 108 556 m 523 269 b 336 73 513 184 462 73 b 166 269 198 73 165 193 l 523 269 "},"v":{"x_min":18,"x_max":654,"ha":668,"o":"m 18 672 l 273 0 l 390 0 l 654 672 l 526 672 l 395 296 b 338 122 373 233 354 177 l 334 122 b 280 296 320 177 302 233 l 148 672 l 18 672 "},"Ї":{"x_min":-29.171875,"x_max":363.890625,"ha":332,"o":"m 104 936 l 104 0 l 226 0 l 226 936 l 104 936 m 37 1002 b 105 1073 79 1002 105 1034 b 38 1142 105 1112 77 1142 b -29 1073 0 1142 -29 1110 b 37 1002 -29 1034 -1 1002 m 294 1002 b 363 1073 337 1002 363 1034 b 297 1142 363 1112 336 1142 b 227 1073 256 1142 227 1110 b 294 1002 227 1034 255 1002 "},"û":{"x_min":96.796875,"x_max":669.75,"ha":765,"o":"m 664 672 l 541 672 l 541 261 b 530 198 541 237 537 215 b 369 86 508 143 451 86 b 219 301 259 86 219 173 l 219 672 l 96 672 l 96 279 b 329 -15 96 44 223 -15 b 551 109 448 -15 521 55 l 554 109 l 561 0 l 669 0 b 664 184 665 52 664 113 l 664 672 m 338 963 l 207 764 l 299 764 l 380 895 l 383 895 l 464 764 l 557 764 l 423 963 l 338 963 "},"":{"x_min":26.390625,"x_max":387.5,"ha":428,"o":"m 372 539 l 91 539 l 55 273 b 134 279 76 275 104 279 b 291 169 247 279 291 233 b 169 63 291 102 231 63 b 45 94 116 63 69 80 l 26 24 b 172 -8 54 9 111 -8 b 387 177 300 -8 387 70 b 311 316 387 245 352 293 b 181 346 273 339 227 346 b 138 344 163 346 150 346 l 156 462 l 372 462 l 372 539 "},"Ź":{"x_min":41.859375,"x_max":725.203125,"ha":768,"o":"m 41 0 l 725 0 l 725 101 l 201 101 l 201 105 l 718 863 l 718 936 l 86 936 l 86 835 l 559 835 l 559 831 l 41 70 l 41 0 m 451 1149 l 322 986 l 421 986 l 598 1149 l 451 1149 "},"ˉ":{"x_min":52.78125,"x_max":365.28125,"ha":417,"o":"m 52 893 l 52 814 l 365 814 l 365 893 l 52 893 "},"Ĺ":{"x_min":103.96875,"x_max":626.1875,"ha":656,"o":"m 103 0 l 626 0 l 626 101 l 226 101 l 226 936 l 103 936 l 103 0 m 248 1149 l 119 986 l 217 986 l 395 1149 l 248 1149 "},"ỵ":{"x_min":12.5,"x_max":644.4375,"ha":654,"o":"m 12 672 l 261 52 b 269 20 268 37 269 27 b 259 -8 269 13 266 4 b 158 -144 231 -70 190 -118 b 50 -204 120 -175 80 -194 l 80 -307 b 230 -227 111 -301 169 -280 b 461 193 313 -155 373 -37 l 644 672 l 515 672 l 381 278 b 338 137 365 229 351 177 l 336 137 b 291 275 325 177 308 230 l 145 672 l 12 672 m 452 -111 b 381 -183 413 -111 381 -143 b 451 -254 381 -221 411 -254 b 520 -183 493 -254 520 -221 b 452 -111 520 -143 491 -111 "},"Č":{"x_min":50,"x_max":761.109375,"ha":806,"o":"m 734 126 b 536 87 686 102 611 87 b 177 464 309 87 177 233 b 543 850 177 710 323 850 b 730 811 620 850 686 834 l 761 910 b 538 952 729 927 654 952 b 50 460 248 952 50 754 b 511 -15 50 151 247 -15 b 758 29 625 -15 715 6 l 734 126 m 537 991 l 679 1149 l 580 1149 l 493 1053 l 490 1053 l 401 1149 l 298 1149 l 444 991 l 537 991 "},"x":{"x_min":11,"x_max":626,"ha":643,"o":"m 22 672 l 249 343 l 11 0 l 145 0 l 242 151 b 313 268 269 191 291 227 l 316 268 b 388 151 340 227 362 190 l 488 0 l 626 0 l 391 347 l 620 672 l 487 672 l 394 529 b 326 419 370 493 348 458 l 323 419 b 253 528 301 457 280 490 l 158 672 l 22 672 "},"":{"x_min":87.296875,"x_max":664.671875,"ha":736,"o":"m 664 0 l 664 98 l 259 98 l 259 101 b 348 264 310 134 346 190 b 343 308 348 278 346 293 l 536 308 l 536 385 l 329 385 b 320 469 324 411 320 440 b 471 644 320 576 370 644 b 596 617 528 644 571 631 l 623 706 b 471 740 592 724 540 740 b 203 471 311 740 203 631 b 215 385 203 443 209 414 l 95 385 l 95 308 l 230 308 b 236 247 233 289 236 268 b 87 69 236 172 179 108 l 87 0 l 664 0 "},"è":{"x_min":52.953125,"x_max":646.015625,"ha":696,"o":"m 641 314 b 646 371 644 328 646 346 b 368 686 646 494 589 686 b 52 325 172 686 52 528 b 383 -15 52 122 176 -15 b 608 27 490 -15 565 8 l 586 115 b 400 80 541 95 487 80 b 169 314 276 80 172 148 l 641 314 m 171 401 b 358 599 180 486 233 599 b 527 401 496 599 529 478 l 171 401 m 187 963 l 357 764 l 443 764 l 321 963 l 187 963 "},"Ń":{"x_min":105.125,"x_max":807.90625,"ha":914,"o":"m 219 0 l 219 399 b 210 786 219 555 217 668 l 214 788 b 388 475 260 686 323 579 l 685 0 l 807 0 l 807 936 l 694 936 l 694 544 b 707 159 694 398 696 284 l 703 158 b 537 462 660 253 605 352 l 238 936 l 105 936 l 105 0 l 219 0 m 513 1149 l 385 986 l 484 986 l 662 1149 l 513 1149 "},"":{"x_min":55.5625,"x_max":233.328125,"ha":250,"o":"m 162 590 b 55 252 112 524 55 415 b 162 -82 55 93 112 -13 l 233 -82 b 133 252 179 0 133 105 b 233 590 133 401 177 511 l 162 590 "},"μ":{"x_min":101.390625,"x_max":731.953125,"ha":768,"o":"m 559 104 b 679 -15 570 18 619 -15 b 722 -9 700 -15 706 -13 l 731 79 b 668 185 681 82 668 111 l 668 673 l 545 673 l 545 261 b 534 197 545 237 541 215 b 375 85 512 142 455 85 b 223 275 266 85 223 171 l 223 673 l 101 673 l 101 -26 b 120 -274 101 -134 106 -233 l 230 -274 b 215 -20 218 -219 215 -95 l 215 61 b 362 -12 244 10 301 -12 b 555 104 462 -12 527 51 l 559 104 "},".":{"x_min":72.21875,"x_max":237.5,"ha":288,"o":"m 152 -15 b 237 72 204 -15 237 22 b 155 159 237 123 204 159 b 72 72 106 159 72 122 b 152 -15 72 22 105 -15 "},"‘":{"x_min":49.0625,"x_max":256,"ha":288,"o":"m 174 636 b 256 961 189 736 226 879 l 178 953 b 49 622 140 889 81 739 l 174 636 "},"π":{"x_min":19.4375,"x_max":734.71875,"ha":771,"o":"m 722 578 l 734 672 l 212 672 b 19 638 104 672 50 658 l 36 565 b 172 578 70 574 118 578 b 79 0 168 398 129 132 l 194 0 b 288 578 243 111 283 400 l 508 578 l 508 187 b 530 0 508 80 518 20 l 647 0 b 629 200 637 34 629 90 l 629 578 l 722 578 "},"Ỏ":{"x_min":50,"x_max":905.5625,"ha":957,"o":"m 483 953 b 50 461 233 953 50 758 b 470 -15 50 177 222 -15 b 905 478 709 -15 905 157 b 483 953 905 757 740 953 m 479 854 b 777 472 680 854 777 660 b 477 83 777 259 669 83 b 177 464 286 83 177 262 b 479 854 177 668 277 854 m 511 986 b 609 1137 548 1050 609 1066 b 494 1237 609 1194 558 1237 b 356 1144 423 1237 381 1194 l 404 1116 b 472 1164 419 1139 443 1164 b 518 1121 500 1164 518 1148 b 445 1005 518 1075 468 1064 l 511 986 "},"Ớ":{"x_min":50.265625,"x_max":943.34375,"ha":957,"o":"m 478 83 b 178 464 286 83 178 265 b 479 854 178 665 278 854 b 778 472 680 854 778 660 b 478 83 778 259 669 83 m 822 1030 b 846 941 836 1003 846 974 b 783 879 846 899 829 879 b 629 928 739 879 672 914 b 483 953 593 942 540 953 b 50 461 233 953 50 758 b 471 -15 50 177 222 -15 b 905 478 710 -15 905 157 b 797 809 905 625 860 738 b 943 934 897 800 943 857 b 916 1046 943 979 930 1017 l 822 1030 m 544 1149 l 416 986 l 515 986 l 693 1149 l 544 1149 "},"9":{"x_min":56.671875,"x_max":663.609375,"ha":713,"o":"m 133 -14 b 245 -7 162 -15 201 -14 b 508 113 342 3 438 45 b 663 536 596 199 663 338 b 365 918 663 769 549 918 b 56 597 180 918 56 768 b 321 320 56 443 160 320 b 535 416 413 320 485 355 l 540 416 b 420 177 523 311 480 231 b 231 90 369 127 302 99 b 133 85 190 85 159 83 l 133 -14 m 353 825 b 540 552 483 825 540 707 b 528 507 540 532 535 519 b 351 412 496 452 433 412 b 177 604 245 412 177 491 b 353 825 177 733 251 825 "},"":{"x_min":29.171875,"x_max":151.390625,"ha":182,"o":"m 88 361 b 151 423 126 361 151 389 b 90 486 151 461 126 486 b 29 423 55 486 29 461 b 88 361 29 389 54 361 "},"l":{"x_min":101.390625,"x_max":223.609375,"ha":328,"o":"m 101 0 l 223 0 l 223 986 l 101 986 l 101 0 "},"Ẫ":{"x_min":34.984375,"x_max":818.3125,"ha":850,"o":"m 589 294 l 689 0 l 818 0 l 498 936 l 354 936 l 34 0 l 159 0 l 257 294 l 589 294 m 282 389 l 373 660 b 421 829 393 717 407 775 l 423 829 b 472 658 437 775 451 720 l 565 389 l 282 389 m 379 1145 l 237 986 l 336 986 l 425 1082 l 428 1082 l 515 986 l 618 986 l 472 1145 l 379 1145 m 328 1163 b 362 1219 329 1196 341 1219 b 423 1195 379 1219 396 1210 b 507 1166 451 1180 478 1166 b 601 1299 572 1166 604 1213 l 537 1299 b 498 1242 534 1255 521 1242 b 440 1264 482 1242 462 1253 b 354 1295 408 1281 384 1295 b 259 1163 296 1295 258 1242 l 328 1163 "},"":{"x_min":40,"x_max":550,"ha":582,"o":"m 322 710 l 223 710 l 40 454 l 223 198 l 323 198 l 137 454 l 322 710 m 550 710 l 451 710 l 267 454 l 451 198 l 550 198 l 365 454 l 550 710 "},"Ъ":{"x_min":-2.78125,"x_max":822.21875,"ha":876,"o":"m -2 936 l -2 836 l 237 836 l 237 2 b 423 -8 277 -2 341 -8 b 750 101 550 -8 673 19 b 822 300 794 148 822 214 b 470 593 822 504 651 593 b 358 586 434 593 386 590 l 358 936 l -2 936 m 358 490 b 455 496 387 493 423 496 b 695 296 577 496 695 440 b 454 86 695 154 590 86 b 358 93 415 86 384 87 l 358 490 "},"Ś":{"x_min":57.78125,"x_max":623.0625,"ha":685,"o":"m 57 45 b 296 -15 107 12 206 -15 b 623 255 517 -15 623 111 b 385 531 623 393 543 469 b 199 711 256 581 199 624 b 375 852 199 775 248 852 b 552 807 460 852 523 825 l 585 906 b 380 952 545 929 474 952 b 77 697 198 952 77 843 b 324 430 77 567 171 486 b 500 246 450 383 500 332 b 305 86 500 151 428 86 b 89 147 221 86 143 112 l 57 45 m 413 1152 l 285 989 l 384 989 l 561 1152 l 413 1152 "},"Ü":{"x_min":104.171875,"x_max":794.453125,"ha":899,"o":"m 104 936 l 104 385 b 440 -15 104 93 248 -15 b 794 389 643 -15 794 101 l 794 936 l 672 936 l 672 380 b 444 83 672 175 581 83 b 226 380 319 83 226 172 l 226 936 l 104 936 m 322 1002 b 390 1073 363 1002 390 1034 b 323 1142 390 1112 362 1142 b 255 1073 284 1142 255 1110 b 322 1002 255 1034 283 1002 m 580 1002 b 650 1073 623 1002 650 1034 b 583 1142 650 1112 622 1142 b 513 1073 543 1142 513 1110 b 580 1002 513 1034 541 1002 "},"à":{"x_min":48.921875,"x_max":583.578125,"ha":669,"o":"m 573 412 b 318 686 573 546 523 686 b 96 628 233 686 151 663 l 123 546 b 300 596 171 578 236 596 b 453 442 437 597 453 496 l 453 428 b 48 177 193 429 48 340 b 254 -15 48 80 118 -15 b 459 84 350 -15 422 31 l 464 84 l 473 0 l 583 0 b 573 161 576 45 573 102 l 573 412 m 455 226 b 450 187 455 215 454 201 b 284 75 430 130 373 75 b 171 191 223 75 171 111 b 455 343 171 322 322 346 l 455 226 m 132 963 l 301 764 l 387 764 l 265 963 l 132 963 "},"η":{"x_min":81.9375,"x_max":688.890625,"ha":771,"o":"m 211 561 b 191 672 211 604 204 647 l 81 672 b 101 490 97 626 101 558 l 101 0 l 223 0 l 223 405 b 231 461 223 425 226 447 b 395 586 254 529 316 586 b 551 387 511 586 551 496 l 551 -29 b 572 -275 551 -118 555 -233 l 688 -275 b 673 -25 675 -219 673 -101 l 673 400 b 436 686 673 631 529 686 b 213 561 325 686 247 624 l 211 561 "},"ó":{"x_min":52.78125,"x_max":709.71875,"ha":763,"o":"m 386 686 b 52 330 201 686 52 554 b 375 -15 52 118 194 -15 b 709 341 536 -15 709 93 b 386 686 709 546 579 686 m 383 594 b 584 337 527 594 584 451 b 380 76 584 186 497 76 b 177 335 261 76 177 187 b 383 594 177 461 240 594 m 429 963 l 308 764 l 394 764 l 563 963 l 429 963 "},"":{"x_min":9.71875,"x_max":573.609375,"ha":625,"o":"m 9 45 b 244 -15 54 16 143 -15 b 573 255 459 -15 573 111 b 372 486 572 382 483 465 l 372 489 b 538 703 481 529 538 608 b 280 918 538 813 458 918 b 43 849 183 918 91 884 l 76 760 b 256 820 115 788 184 820 b 415 683 369 820 415 756 b 213 531 415 576 302 531 l 145 531 l 145 439 l 213 439 b 447 258 331 439 445 385 b 243 83 448 182 398 83 b 43 139 156 83 77 118 l 9 45 "},"₀":{"x_min":31.9375,"x_max":434.71875,"ha":467,"o":"m 229 -211 b 434 70 365 -211 434 -98 b 236 344 434 239 363 344 b 31 65 111 344 31 237 b 229 -211 31 -107 108 -211 m 233 -140 b 129 69 169 -140 129 -65 b 233 273 129 198 170 273 b 337 69 302 273 337 198 b 233 -140 337 -62 301 -140 "},"¦":{"x_min":119.4375,"x_max":212.5,"ha":332,"o":"m 119 241 l 119 -244 l 212 -244 l 212 241 l 119 241 m 119 936 l 119 450 l 212 450 l 212 936 l 119 936 "},"":{"x_min":75.015625,"x_max":663.984375,"ha":736,"o":"m 284 314 l 311 515 l 455 515 l 429 314 l 284 314 m 241 -4 l 272 232 l 416 232 l 384 -4 l 469 -4 l 500 232 l 632 232 l 632 314 l 512 314 l 537 515 l 663 515 l 663 597 l 550 597 l 580 827 l 498 827 l 468 597 l 322 597 l 352 827 l 270 827 l 240 597 l 108 597 l 108 515 l 229 515 l 202 314 l 75 314 l 75 232 l 190 232 l 158 -4 l 241 -4 "},"Ỷ":{"x_min":16.671875,"x_max":748.609375,"ha":751,"o":"m 436 0 l 436 398 l 748 936 l 612 936 l 477 678 b 383 485 441 607 408 546 l 380 485 b 287 678 351 550 322 607 l 155 936 l 16 936 l 313 397 l 313 0 l 436 0 m 408 985 b 508 1135 445 1049 508 1064 b 393 1235 508 1191 456 1235 b 254 1142 322 1235 280 1192 l 301 1114 b 369 1163 316 1138 341 1163 b 416 1119 397 1163 416 1146 b 343 1003 416 1074 366 1063 l 408 985 "},"Ő":{"x_min":50,"x_max":905.5625,"ha":957,"o":"m 483 953 b 50 461 233 953 50 758 b 470 -15 50 177 222 -15 b 905 478 709 -15 905 157 b 483 953 905 757 740 953 m 479 854 b 777 472 680 854 777 660 b 477 83 777 259 669 83 b 177 464 286 83 177 262 b 479 854 177 668 277 854 m 443 1153 l 331 998 l 420 998 l 575 1153 l 443 1153 m 647 1153 l 536 998 l 625 998 l 779 1153 l 647 1153 "},"":{"x_min":25,"x_max":240.28125,"ha":265,"o":"m 25 84 l 25 18 l 240 18 l 240 84 l 25 84 "},"Ž":{"x_min":41.921875,"x_max":725.0625,"ha":768,"o":"m 41 0 l 725 0 l 725 101 l 201 101 l 201 105 l 718 863 l 718 936 l 86 936 l 86 835 l 559 835 l 559 831 l 41 70 l 41 0 m 444 986 l 587 1145 l 489 1145 l 401 1049 l 398 1049 l 309 1145 l 207 1145 l 352 986 l 444 986 "},"е":{"x_min":52.953125,"x_max":646.015625,"ha":696,"o":"m 641 314 b 646 371 644 328 646 346 b 368 686 646 494 589 686 b 52 325 172 686 52 528 b 383 -15 52 122 176 -15 b 608 27 490 -15 565 8 l 586 115 b 400 80 541 95 487 80 b 169 314 276 80 172 148 l 641 314 m 171 401 b 358 599 180 486 233 599 b 527 401 496 599 529 478 l 171 401 "},"Î":{"x_min":-23.609375,"x_max":356.9375,"ha":332,"o":"m 104 936 l 104 0 l 226 0 l 226 936 l 104 936 m 118 1145 l -23 986 l 75 986 l 163 1082 l 166 1082 l 254 986 l 356 986 l 211 1145 l 118 1145 "},"e":{"x_min":52.953125,"x_max":646.015625,"ha":696,"o":"m 641 314 b 646 371 644 328 646 346 b 368 686 646 494 589 686 b 52 325 172 686 52 528 b 383 -15 52 122 176 -15 b 608 27 490 -15 565 8 l 586 115 b 400 80 541 95 487 80 b 169 314 276 80 172 148 l 641 314 m 171 401 b 358 599 180 486 233 599 b 527 401 496 599 529 478 l 171 401 "},"ό":{"x_min":52.78125,"x_max":709.71875,"ha":763,"o":"m 401 953 l 327 754 l 408 754 l 523 953 l 401 953 m 375 -15 b 709 341 536 -15 709 93 b 386 686 709 546 579 686 b 52 330 201 686 52 554 b 375 -15 52 118 194 -15 m 380 76 b 177 335 261 76 177 187 b 383 594 177 461 240 594 b 584 337 527 594 584 451 b 380 76 584 186 497 76 "},"":{"x_min":11.109375,"x_max":390.28125,"ha":424,"o":"m 62 439 b 180 476 84 454 130 476 b 268 407 243 476 268 442 b 141 319 268 343 193 319 l 102 319 l 102 255 l 140 255 b 287 158 213 257 287 229 b 165 65 288 115 251 65 b 36 101 113 65 58 86 l 11 31 b 170 -6 43 11 104 -6 b 390 155 312 -6 390 69 b 261 290 390 226 336 279 l 261 293 b 368 418 327 315 368 361 b 198 549 368 485 318 549 b 38 505 130 549 70 526 l 62 439 "},"":{"x_min":25.03125,"x_max":562.53125,"ha":594,"o":"m 562 673 l 25 673 l 25 571 l 437 571 l 437 569 b 56 -137 363 374 169 28 l 170 -158 b 562 595 311 58 476 368 l 562 673 "},"Ề":{"x_min":103.859375,"x_max":631.625,"ha":683,"o":"m 589 539 l 226 539 l 226 835 l 610 835 l 610 936 l 103 936 l 103 0 l 631 0 l 631 101 l 226 101 l 226 439 l 588 439 l 589 539 m 401 1224 l 552 1080 l 627 1080 l 526 1224 l 401 1224 m 313 1145 l 185 986 l 278 986 l 356 1084 l 359 1084 l 435 986 l 533 986 l 401 1145 l 313 1145 "},"Ĕ":{"x_min":104.171875,"x_max":631.9375,"ha":683,"o":"m 588 539 l 226 539 l 226 835 l 611 835 l 611 936 l 104 936 l 104 0 l 631 0 l 631 101 l 226 101 l 226 439 l 588 439 l 588 539 m 180 1146 b 351 999 183 1063 233 999 b 525 1146 470 999 522 1064 l 454 1146 b 352 1078 447 1110 420 1078 b 252 1146 284 1078 259 1114 l 180 1146 "},"ļ":{"x_min":48.21875,"x_max":250.984375,"ha":328,"o":"m 100 0 l 223 0 l 223 986 l 100 986 l 100 0 m 71 -308 b 250 -159 157 -303 250 -261 b 195 -57 250 -113 223 -75 l 105 -76 b 152 -161 130 -95 152 -127 b 48 -251 152 -215 102 -243 l 71 -308 "},"ị":{"x_min":86.109375,"x_max":237.5,"ha":325,"o":"m 223 0 l 223 672 l 101 672 l 101 0 l 223 0 m 162 938 b 86 861 116 938 86 903 b 159 786 86 820 115 786 b 237 861 208 786 237 820 b 162 938 237 904 206 938 m 162 -111 b 91 -183 123 -111 91 -143 b 161 -254 91 -221 120 -254 b 230 -183 202 -254 230 -221 b 162 -111 230 -143 201 -111 "},"":{"x_min":48.65625,"x_max":388.921875,"ha":440,"o":"m 248 300 l 248 386 b 388 531 340 400 388 462 b 252 685 388 606 345 650 b 147 770 173 714 147 732 b 231 834 147 800 168 834 b 345 804 288 834 327 814 l 368 872 b 252 902 343 886 304 900 l 252 979 l 190 979 l 190 897 b 55 758 105 884 55 829 b 201 611 55 682 109 644 b 297 522 268 586 297 564 b 201 451 297 480 259 451 b 70 489 150 451 104 468 l 48 419 b 186 382 80 398 133 383 l 186 300 l 248 300 "},"Ѓ":{"x_min":104.171875,"x_max":602.78125,"ha":601,"o":"m 104 936 l 104 0 l 226 0 l 226 835 l 602 835 l 602 936 l 104 936 m 393 1149 l 263 986 l 362 986 l 540 1149 l 393 1149 "},"ò":{"x_min":52.78125,"x_max":709.71875,"ha":763,"o":"m 386 686 b 52 330 201 686 52 554 b 375 -15 52 118 194 -15 b 709 341 536 -15 709 93 b 386 686 709 546 579 686 m 383 594 b 584 337 527 594 584 451 b 380 76 584 186 497 76 b 177 335 261 76 177 187 b 383 594 177 461 240 594 m 201 963 l 370 764 l 456 764 l 334 963 l 201 963 "},"ﬄ":{"x_min":20.828125,"x_max":1030.5625,"ha":1132,"o":"m 484 960 b 372 985 463 970 418 985 b 191 918 297 985 234 960 b 113 689 134 861 113 775 l 113 674 l 20 674 l 20 581 l 113 581 l 113 1 l 234 1 l 234 581 l 518 581 l 518 1 l 640 1 l 640 581 l 797 581 l 797 674 l 638 674 l 638 708 b 808 909 638 815 681 909 b 908 891 855 909 887 902 l 908 1 l 1030 1 l 1030 959 b 829 1003 979 986 906 1003 b 613 935 734 1003 665 980 b 518 703 550 881 518 797 l 518 674 l 234 674 l 234 700 b 280 854 234 761 245 818 b 369 889 301 877 329 889 b 452 868 398 889 427 882 l 484 960 "},"^":{"x_min":85,"x_max":745,"ha":828,"o":"m 745 262 l 458 903 l 371 903 l 85 262 l 180 262 l 412 802 l 415 802 l 647 262 l 745 262 "},"":{"x_min":86.109375,"x_max":611.109375,"ha":736,"o":"m 86 -132 b 262 -159 116 -145 190 -159 b 611 105 450 -159 611 -54 b 406 305 611 223 516 290 l 406 309 b 570 503 501 337 570 407 b 329 689 570 618 470 689 b 106 626 237 689 150 656 l 131 546 b 302 593 165 564 231 593 b 448 482 393 593 448 557 b 222 335 448 396 351 344 l 195 333 l 198 243 b 275 246 215 244 243 246 b 486 104 402 246 486 191 b 251 -63 486 2 388 -63 b 100 -41 193 -63 134 -52 l 86 -132 "},"∙":{"x_min":61.109375,"x_max":226.390625,"ha":288,"o":"m 141 278 b 226 364 193 278 226 315 b 144 451 226 415 193 451 b 61 364 95 451 61 415 b 141 278 61 315 94 278 "},"к":{"x_min":101.390625,"x_max":656.953125,"ha":665,"o":"m 101 672 l 101 0 l 222 0 l 222 296 l 245 296 b 466 137 358 296 420 246 b 529 0 488 82 511 29 l 656 0 b 586 164 626 54 604 119 b 359 369 533 284 468 357 l 651 672 l 502 672 l 251 380 l 222 380 l 222 672 l 101 672 "},"":{"x_min":88.890625,"x_max":365.28125,"ha":394,"o":"m 270 1020 b 88 451 183 903 90 724 b 270 -112 88 180 183 2 l 365 -112 b 191 450 268 26 191 202 b 365 1020 191 703 263 882 l 270 1020 "},"ū":{"x_min":97.21875,"x_max":669.453125,"ha":765,"o":"m 663 672 l 541 672 l 541 261 b 530 198 541 237 537 215 b 369 86 508 143 451 86 b 219 301 259 86 219 173 l 219 672 l 97 672 l 97 279 b 329 -15 97 44 223 -15 b 551 109 448 -15 520 55 l 554 109 l 561 0 l 669 0 b 663 184 665 52 663 113 l 663 672 m 226 893 l 226 814 l 538 814 l 538 893 l 226 893 "},"ˆ":{"x_min":35,"x_max":384,"ha":417,"o":"m 165 963 l 35 764 l 126 764 l 207 895 l 210 895 l 290 764 l 384 764 l 250 963 l 165 963 "},"Ẅ":{"x_min":20.828125,"x_max":1163.890625,"ha":1175,"o":"m 384 0 l 518 487 b 590 793 552 608 575 700 l 593 793 b 654 487 605 699 625 607 l 772 0 l 898 0 l 1163 936 l 1040 936 l 916 464 b 841 140 887 347 861 243 l 838 140 b 773 461 825 239 800 350 l 659 936 l 533 936 l 408 464 b 331 139 376 343 347 232 l 329 139 b 259 462 312 229 287 346 l 148 936 l 20 936 l 258 0 l 384 0 m 462 1002 b 530 1073 504 1002 530 1034 b 463 1142 530 1112 502 1142 b 395 1073 425 1142 395 1110 b 462 1002 395 1034 423 1002 m 719 1002 b 788 1073 762 1002 788 1034 b 722 1142 788 1112 761 1142 b 652 1073 681 1142 652 1110 b 719 1002 652 1034 680 1002 "},"":{"x_min":40,"x_max":387,"ha":417,"o":"m 40 1245 l 195 1100 l 270 1100 l 167 1245 l 40 1245 m 41 1114 b 212 971 51 1038 103 971 b 387 1114 321 971 378 1041 l 323 1114 b 213 1048 312 1077 285 1048 b 106 1114 145 1048 116 1081 l 41 1114 "},"č":{"x_min":52.78125,"x_max":583.328125,"ha":622,"o":"m 559 115 b 409 83 525 100 479 83 b 176 335 276 83 176 179 b 413 589 176 474 259 589 b 555 557 480 589 526 572 l 583 650 b 413 686 550 668 486 686 b 52 328 194 686 52 535 b 387 -15 52 122 184 -15 b 580 23 477 -15 548 8 l 559 115 m 408 764 l 538 963 l 447 963 l 365 831 l 362 831 l 280 963 l 187 963 l 320 764 l 408 764 "},"’":{"x_min":47,"x_max":253.9375,"ha":288,"o":"m 128 948 b 47 622 113 847 76 704 l 124 631 b 253 961 162 695 222 845 l 128 948 "},"Ν":{"x_min":105.125,"x_max":807.90625,"ha":914,"o":"m 219 0 l 219 399 b 210 786 219 555 217 668 l 214 788 b 388 475 260 686 323 579 l 685 0 l 807 0 l 807 936 l 694 936 l 694 544 b 707 159 694 398 696 284 l 703 158 b 537 462 660 253 605 352 l 238 936 l 105 936 l 105 0 l 219 0 "},"-":{"x_min":41.671875,"x_max":384.71875,"ha":426,"o":"m 41 419 l 41 330 l 384 330 l 384 419 l 41 419 "},"Q":{"x_min":50,"x_max":912.5,"ha":957,"o":"m 912 -36 b 638 23 833 -22 731 0 l 638 29 b 905 479 794 84 905 237 b 484 953 905 756 740 953 b 50 460 231 953 50 760 b 462 -15 50 157 238 -6 b 519 -29 480 -15 498 -22 b 877 -137 627 -66 751 -104 l 912 -36 m 477 83 b 177 462 286 83 177 262 b 481 854 177 665 277 854 b 777 472 680 854 777 661 b 477 83 777 259 669 83 "},"ȝ":{"x_min":26.390625,"x_max":555.5625,"ha":593,"o":"m 59 -290 b 555 79 383 -264 555 -101 b 340 297 555 201 468 282 l 340 300 b 487 496 427 336 487 404 b 252 686 487 611 393 686 b 26 618 162 686 77 651 l 52 537 b 223 590 86 556 152 590 b 368 474 312 590 368 547 b 112 282 368 372 261 316 l 129 196 b 251 216 168 207 213 216 b 430 65 375 216 430 147 b 48 -196 430 -150 101 -191 l 59 -290 "},"ј":{"x_min":-63.890625,"x_max":252.78125,"ha":338,"o":"m -50 -293 b 158 -216 15 -293 104 -271 b 238 59 218 -155 238 -70 l 238 672 l 116 672 l 116 107 b 69 -144 116 -54 102 -107 b -63 -197 40 -177 -6 -193 l -50 -293 m 177 938 b 101 861 131 938 101 903 b 175 786 101 821 130 786 b 252 861 225 786 252 821 b 177 938 252 903 223 938 "},"ě":{"x_min":52.953125,"x_max":646.015625,"ha":696,"o":"m 641 314 b 646 371 644 328 646 346 b 368 686 646 494 589 686 b 52 325 172 686 52 528 b 383 -15 52 122 176 -15 b 608 27 490 -15 565 8 l 586 115 b 400 80 541 95 487 80 b 169 314 276 80 172 148 l 641 314 m 171 401 b 358 599 180 486 233 599 b 527 401 496 599 529 478 l 171 401 m 396 764 l 526 963 l 434 963 l 352 831 l 350 831 l 268 963 l 175 963 l 308 764 l 396 764 "},"œ":{"x_min":53.28125,"x_max":1147.90625,"ha":1199,"o":"m 1145 315 b 1147 372 1146 328 1147 348 b 876 686 1147 490 1092 686 b 631 526 772 686 681 633 l 628 526 b 375 686 586 628 489 686 b 53 332 194 686 53 550 b 367 -15 53 119 189 -15 b 626 143 469 -15 576 34 l 629 143 b 896 -15 682 33 779 -15 b 1114 30 970 -15 1060 0 l 1090 118 b 911 80 1046 98 995 80 b 688 315 782 80 688 162 l 1145 315 m 375 594 b 574 336 515 594 574 464 b 376 76 574 182 494 76 b 178 335 261 76 178 189 b 375 594 178 450 229 594 m 686 403 b 867 599 694 486 746 599 b 1031 403 1000 599 1032 478 l 686 403 "},"":{"x_min":57.78125,"x_max":623.0625,"ha":472,"o":"m 57 45 b 292 -15 110 11 211 -15 b 302 -15 295 -15 299 -15 l 246 -112 b 353 -170 311 -119 353 -136 b 296 -214 353 -201 327 -214 b 220 -194 267 -214 242 -205 l 200 -254 b 296 -278 223 -268 259 -278 b 439 -166 370 -278 439 -246 b 342 -69 439 -115 395 -77 l 381 -8 b 623 255 545 20 623 132 b 385 531 623 393 543 469 b 199 711 256 581 199 624 b 375 852 199 775 248 852 b 552 807 460 852 523 825 l 585 906 b 380 952 545 929 474 952 b 77 697 198 952 77 843 b 324 430 77 567 171 486 b 500 246 450 383 500 332 b 305 86 500 151 428 86 b 89 147 221 86 143 112 l 57 45 "},"":{"x_min":33.328125,"x_max":422.21875,"ha":456,"o":"m 233 549 b 52 403 130 549 52 490 b 140 283 52 355 80 309 l 140 279 b 33 140 73 251 33 207 b 225 -6 33 63 100 -6 b 422 152 340 -6 422 57 b 313 289 422 219 376 265 l 313 291 b 401 414 376 319 401 368 b 233 549 401 483 345 549 m 227 58 b 126 151 163 58 126 102 b 218 251 126 197 158 234 b 327 144 283 233 327 205 b 227 58 327 95 288 58 m 227 485 b 313 404 288 485 313 443 b 237 316 313 360 280 330 b 140 407 177 332 140 360 b 227 485 140 448 170 485 "},"Ộ":{"x_min":50,"x_max":905.5625,"ha":957,"o":"m 483 953 b 50 461 233 953 50 758 b 470 -15 50 177 222 -15 b 905 478 709 -15 905 157 b 483 953 905 757 740 953 m 479 854 b 777 472 680 854 777 660 b 477 83 777 259 669 83 b 177 464 286 83 177 262 b 479 854 177 668 277 854 m 429 1145 l 287 986 l 386 986 l 475 1082 l 477 1082 l 565 986 l 668 986 l 522 1145 l 429 1145 m 477 -251 b 545 -180 516 -251 545 -218 b 479 -111 545 -144 516 -111 b 409 -180 440 -111 409 -144 b 477 -251 409 -218 438 -251 "},"Ậ":{"x_min":34.71875,"x_max":818.0625,"ha":850,"o":"m 588 294 l 688 0 l 818 0 l 498 936 l 354 936 l 34 0 l 159 0 l 256 294 l 588 294 m 281 389 l 373 660 b 420 829 393 717 406 775 l 423 829 b 472 658 437 775 451 720 l 565 389 l 281 389 m 380 1145 l 238 986 l 337 986 l 426 1082 l 429 1082 l 516 986 l 619 986 l 473 1145 l 380 1145 m 419 -251 b 487 -180 458 -251 487 -218 b 420 -111 487 -144 458 -111 b 351 -180 381 -111 351 -144 b 419 -251 351 -218 380 -251 "},"#":{"x_min":51.015625,"x_max":639.984375,"ha":690,"o":"m 260 354 l 287 556 l 431 556 l 405 354 l 260 354 m 213 0 l 248 272 l 392 272 l 356 0 l 439 0 l 476 272 l 608 272 l 608 354 l 488 354 l 513 556 l 639 556 l 639 638 l 526 638 l 560 903 l 478 903 l 444 638 l 298 638 l 334 903 l 252 903 l 216 638 l 84 638 l 84 556 l 205 556 l 178 354 l 51 354 l 51 272 l 166 272 l 130 0 l 213 0 "},"Џ":{"x_min":104.171875,"x_max":779.171875,"ha":882,"o":"m 104 936 l 104 0 l 381 0 l 391 -243 l 493 -243 l 502 0 l 779 0 l 779 936 l 656 936 l 656 101 l 226 101 l 226 936 l 104 936 "},"":{"x_min":-3,"x_max":273,"ha":417,"o":"m -3 1149 l 174 988 l 273 988 l 144 1149 l -3 1149 "},"Å":{"x_min":34.71875,"x_max":818.0625,"ha":850,"o":"m 588 294 l 688 0 l 818 0 l 498 936 l 354 936 l 34 0 l 159 0 l 256 294 l 588 294 m 281 389 l 373 660 b 420 829 393 717 406 775 l 423 829 b 472 658 437 775 451 720 l 565 389 l 281 389 m 429 1220 b 288 1093 341 1220 288 1163 b 427 971 288 1025 344 971 b 565 1093 508 971 565 1024 b 429 1220 565 1164 512 1220 m 425 1170 b 493 1096 466 1170 493 1137 b 426 1023 493 1055 466 1023 b 359 1093 386 1023 359 1057 b 425 1170 359 1134 383 1170 "},"ș":{"x_min":55.125,"x_max":494.015625,"ha":550,"o":"m 55 31 b 244 -15 102 4 170 -15 b 494 187 400 -15 494 68 b 317 389 494 287 432 346 b 191 504 230 423 191 448 b 302 596 191 554 230 596 b 439 556 364 596 413 572 l 469 644 b 305 686 432 668 373 686 b 73 489 162 686 73 597 b 252 298 73 408 130 343 b 375 176 341 265 375 234 b 246 76 375 119 334 76 b 84 123 185 76 121 101 l 55 31 m 188 -308 b 367 -159 274 -303 367 -261 b 312 -57 367 -113 339 -75 l 221 -76 b 269 -161 246 -95 269 -127 b 164 -251 269 -215 219 -243 l 188 -308 "},"₈":{"x_min":33.328125,"x_max":422.21875,"ha":456,"o":"m 233 344 b 52 198 130 344 52 286 b 140 79 52 151 80 105 l 140 75 b 33 -63 73 47 33 2 b 225 -211 33 -140 100 -211 b 422 -51 340 -211 422 -147 b 313 84 422 15 376 61 l 313 87 b 401 209 376 115 401 164 b 233 344 401 279 345 344 m 227 -145 b 126 -52 163 -145 126 -101 b 218 47 126 -6 158 30 b 327 -59 283 29 327 1 b 227 -145 327 -108 288 -145 m 227 280 b 313 200 288 280 313 239 b 237 112 313 155 280 126 b 140 202 177 127 140 155 b 227 280 140 244 170 280 "},"¸":{"x_min":75,"x_max":315.28125,"ha":417,"o":"m 187 4 l 122 -112 b 230 -170 187 -118 230 -134 b 170 -214 231 -202 201 -214 b 95 -194 147 -214 119 -207 l 75 -254 b 169 -278 98 -268 136 -278 b 315 -165 247 -278 315 -247 b 218 -69 315 -111 268 -75 l 263 4 l 187 4 "},"=":{"x_min":55.5625,"x_max":772.21875,"ha":828,"o":"m 772 468 l 772 551 l 55 551 l 55 468 l 772 468 m 772 196 l 772 279 l 55 279 l 55 196 l 772 196 "},"ạ":{"x_min":48.921875,"x_max":583.640625,"ha":669,"o":"m 573 412 b 318 686 573 546 523 686 b 96 628 233 686 151 663 l 123 546 b 300 596 171 578 236 596 b 453 442 437 597 453 496 l 453 428 b 48 177 193 429 48 340 b 254 -15 48 80 118 -15 b 460 84 350 -15 422 31 l 464 84 l 473 0 l 583 0 b 573 161 576 45 573 102 l 573 412 m 455 226 b 450 187 455 215 454 201 b 285 75 430 130 373 75 b 171 191 223 75 171 111 b 455 343 171 322 322 346 l 455 226 m 335 -111 b 264 -183 296 -111 264 -143 b 333 -254 264 -221 293 -254 b 403 -183 375 -254 403 -221 b 335 -111 403 -143 373 -111 "},"ρ":{"x_min":94.4375,"x_max":730.5625,"ha":782,"o":"m 218 83 b 422 -15 258 20 334 -15 b 730 346 581 -15 730 108 b 422 686 730 547 609 686 b 191 588 320 686 243 643 b 94 280 138 532 94 454 l 94 -30 b 109 -275 94 -134 98 -233 l 226 -275 b 215 -25 216 -219 215 -101 l 215 83 l 218 83 m 215 319 b 412 586 215 505 316 586 b 606 341 537 586 606 475 b 402 80 606 191 531 80 b 220 215 316 80 243 139 b 215 264 216 230 215 247 l 215 319 "},"Ћ":{"x_min":-1.390625,"x_max":837.5,"ha":938,"o":"m -1 936 l -1 835 l 254 835 l 254 0 l 376 0 l 376 471 b 552 531 420 504 493 531 b 672 485 605 531 643 514 b 716 332 704 448 716 401 l 716 0 l 837 0 l 837 347 b 763 565 837 440 813 514 b 591 631 725 606 669 631 b 379 567 512 631 431 599 l 376 567 l 376 835 l 702 835 l 702 936 l -1 936 "},"ú":{"x_min":97.21875,"x_max":669.453125,"ha":765,"o":"m 663 672 l 541 672 l 541 261 b 530 198 541 237 537 215 b 369 86 508 143 451 86 b 219 301 259 86 219 173 l 219 672 l 97 672 l 97 279 b 329 -15 97 44 223 -15 b 551 109 448 -15 520 55 l 554 109 l 561 0 l 669 0 b 663 184 665 52 663 113 l 663 672 m 445 963 l 323 764 l 409 764 l 579 963 l 445 963 "},"˚":{"x_min":56.9375,"x_max":336.109375,"ha":417,"o":"m 197 746 b 336 872 276 746 336 800 b 198 1003 336 948 281 1003 b 56 872 112 1003 56 946 b 197 746 56 802 115 746 m 197 797 b 127 872 155 797 127 835 b 195 952 127 916 152 952 b 268 874 240 952 268 917 b 197 797 268 832 240 797 "},"д":{"x_min":11.515625,"x_max":692.0625,"ha":736,"o":"m 174 672 l 174 497 b 135 229 174 403 161 312 b 68 91 119 180 97 134 l 11 88 l 17 -212 l 111 -212 l 118 0 l 583 0 l 589 -212 l 685 -212 l 692 90 l 622 91 l 622 672 l 174 672 m 280 579 l 503 579 l 503 93 l 193 93 b 246 218 214 130 232 172 b 280 469 269 293 280 379 l 280 579 "},"¯":{"x_min":52.78125,"x_max":365.28125,"ha":417,"o":"m 52 893 l 52 814 l 365 814 l 365 893 l 52 893 "},"":{"x_min":105.5625,"x_max":308.328125,"ha":417,"o":"m 129 -308 b 308 -159 215 -303 308 -261 b 252 -57 308 -113 280 -75 l 162 -76 b 209 -161 187 -95 209 -127 b 105 -251 209 -215 159 -243 l 129 -308 "},"u":{"x_min":97.21875,"x_max":669.453125,"ha":765,"o":"m 663 672 l 541 672 l 541 261 b 530 198 541 237 537 215 b 369 86 508 143 451 86 b 219 301 259 86 219 173 l 219 672 l 97 672 l 97 279 b 329 -15 97 44 223 -15 b 551 109 448 -15 520 55 l 554 109 l 561 0 l 669 0 b 663 184 665 52 663 113 l 663 672 "},"З":{"x_min":43.0625,"x_max":627.78125,"ha":683,"o":"m 101 793 b 297 854 152 825 225 854 b 465 706 397 854 465 802 b 244 533 465 610 368 533 l 190 533 l 190 442 l 245 442 b 500 261 365 442 500 401 b 286 83 500 158 423 83 b 75 140 208 83 126 111 l 43 45 b 287 -15 115 2 202 -15 b 627 257 458 -15 627 62 b 398 492 626 392 529 478 l 398 494 b 591 724 506 519 591 608 b 316 953 591 868 479 953 b 69 882 213 953 133 924 l 101 793 "},"Α":{"x_min":35,"x_max":818,"ha":850,"o":"m 588 294 l 688 0 l 818 0 l 498 936 l 354 936 l 35 0 l 159 0 l 257 294 l 588 294 m 282 389 l 373 660 b 420 829 393 717 407 775 l 423 829 b 472 658 437 775 451 720 l 565 389 l 282 389 "},"":{"x_min":33,"x_max":541,"ha":582,"o":"m 217 454 l 33 198 l 130 198 l 314 454 l 130 710 l 33 710 l 217 454 m 443 454 l 259 198 l 356 198 l 541 454 l 356 710 l 257 710 l 443 454 "},"ẻ":{"x_min":52.953125,"x_max":646.015625,"ha":696,"o":"m 641 314 b 646 371 644 328 646 346 b 368 686 646 494 589 686 b 52 325 172 686 52 528 b 383 -15 52 122 176 -15 b 608 27 490 -15 565 8 l 586 115 b 400 80 541 95 487 80 b 169 314 276 80 172 148 l 641 314 m 171 401 b 358 599 180 486 233 599 b 527 401 496 599 529 478 l 171 401 m 366 735 b 472 897 398 799 472 820 b 354 1002 472 960 421 1002 b 218 910 284 1002 243 960 l 266 881 b 333 929 282 906 302 929 b 380 884 359 929 380 911 b 301 752 380 832 318 813 l 366 735 "},"ẵ":{"x_min":48.921875,"x_max":583.640625,"ha":669,"o":"m 573 412 b 318 686 573 546 523 686 b 96 628 233 686 151 663 l 123 546 b 300 596 171 578 236 596 b 453 442 437 597 453 496 l 453 428 b 48 177 193 429 48 340 b 254 -15 48 80 118 -15 b 460 84 350 -15 422 31 l 464 84 l 473 0 l 583 0 b 573 161 576 45 573 102 l 573 412 m 455 226 b 450 187 455 215 454 201 b 285 75 430 130 373 75 b 171 191 223 75 171 111 b 455 343 171 322 322 346 l 455 226 m 233 968 b 268 1011 236 989 246 1011 b 328 988 285 1011 300 1003 b 412 959 357 973 382 959 b 507 1092 478 959 508 1006 l 441 1092 b 404 1036 439 1048 425 1036 b 344 1059 386 1036 366 1046 b 258 1088 312 1075 289 1088 b 165 968 200 1088 168 1036 l 233 968 m 158 913 b 333 740 160 825 211 740 b 511 913 439 740 508 809 l 441 913 b 333 814 437 866 403 814 b 226 913 273 814 235 859 l 158 913 "},"ữ":{"x_min":97.21875,"x_max":797.21875,"ha":765,"o":"m 679 806 b 704 727 694 782 704 753 b 638 672 704 692 686 672 l 541 672 l 541 261 b 530 198 541 237 537 215 b 369 86 508 143 451 86 b 219 300 259 86 219 172 l 219 672 l 97 672 l 97 279 b 329 -15 97 44 223 -15 b 551 109 448 -15 519 55 l 554 109 l 561 0 l 669 0 b 663 183 665 52 663 113 l 663 606 l 679 606 b 797 722 747 608 797 654 b 772 822 797 760 787 795 l 679 806 m 279 788 b 315 850 281 827 293 850 b 375 827 331 850 347 842 b 461 796 404 810 430 796 b 555 936 526 796 556 845 l 490 936 b 452 878 487 891 473 878 b 394 902 434 878 416 889 b 306 932 361 918 337 932 b 212 788 247 932 209 878 l 279 788 "},"":{"x_min":49.9375,"x_max":662.015625,"ha":713,"o":"m 201 234 b 167 456 179 293 166 368 b 356 824 169 678 241 824 b 481 753 412 824 453 797 l 201 234 m 514 670 b 544 456 534 608 544 536 b 353 79 544 225 481 79 b 234 147 303 79 265 103 l 514 670 m 656 901 l 595 942 l 541 850 b 363 918 494 896 434 918 b 49 449 180 918 48 754 b 127 113 51 304 79 189 l 63 10 l 124 -32 l 174 54 b 349 -14 223 7 283 -14 b 662 461 548 -14 662 154 b 588 792 662 600 637 713 l 656 901 "},"":{"x_min":36.1875,"x_max":665.34375,"ha":776,"o":"m 659 487 b 665 671 659 568 661 624 l 557 671 l 552 569 l 550 569 b 340 685 519 625 457 685 b 36 329 184 685 36 557 b 322 1 36 143 155 1 b 536 113 426 1 500 51 l 538 113 l 538 40 b 322 -196 538 -130 447 -196 b 125 -141 238 -196 169 -170 l 94 -236 b 318 -291 148 -272 237 -291 b 563 -211 402 -291 497 -271 b 659 97 627 -151 659 -58 l 659 487 m 537 284 b 527 219 537 264 534 240 b 358 94 502 141 434 94 b 159 336 227 94 159 204 b 359 590 159 492 243 590 b 530 460 450 590 508 532 b 537 405 536 444 537 426 l 537 284 m 284 786 b 320 849 287 825 298 849 b 380 824 337 849 352 839 b 465 795 408 809 434 795 b 559 935 530 795 561 843 l 494 935 b 457 877 491 889 477 877 b 398 900 438 877 420 888 b 312 931 366 917 343 931 b 218 786 252 931 215 877 l 284 786 "},"é":{"x_min":52.953125,"x_max":646.015625,"ha":696,"o":"m 641 314 b 646 371 644 328 646 346 b 368 686 646 494 589 686 b 52 325 172 686 52 528 b 383 -15 52 122 176 -15 b 608 27 490 -15 565 8 l 586 115 b 400 80 541 95 487 80 b 169 314 276 80 172 148 l 641 314 m 171 401 b 358 599 180 486 233 599 b 527 401 496 599 529 478 l 171 401 m 422 963 l 300 764 l 386 764 l 555 963 l 422 963 "},"Ş":{"x_min":57.78125,"x_max":623.0625,"ha":685,"o":"m 57 45 b 292 -15 110 11 211 -15 b 302 -15 295 -15 299 -15 l 246 -112 b 353 -170 311 -119 353 -136 b 296 -214 353 -201 327 -214 b 220 -194 267 -214 242 -205 l 200 -254 b 296 -278 223 -268 259 -278 b 439 -166 370 -278 439 -246 b 342 -69 439 -115 395 -77 l 381 -8 b 623 255 545 20 623 132 b 385 531 623 393 543 469 b 199 711 256 581 199 624 b 375 852 199 775 248 852 b 552 807 460 852 523 825 l 585 906 b 380 952 545 929 474 952 b 77 697 198 952 77 843 b 324 430 77 567 171 486 b 500 246 450 383 500 332 b 305 86 500 151 428 86 b 89 147 221 86 143 112 l 57 45 "},"B":{"x_min":105.5625,"x_max":695.828125,"ha":753,"o":"m 105 2 b 293 -8 145 -2 209 -8 b 615 79 445 -8 551 19 b 695 266 663 123 695 186 b 502 500 695 405 591 479 l 502 504 b 661 710 600 539 661 618 b 581 875 661 784 630 839 b 326 943 525 923 447 943 b 105 923 243 943 158 935 l 105 2 m 226 842 b 333 850 245 846 277 850 b 537 697 455 850 537 806 b 336 539 537 607 462 539 l 226 539 l 226 842 m 226 448 l 326 448 b 568 268 458 448 568 394 b 327 86 568 132 452 86 b 226 91 284 86 251 87 l 226 448 "},"…":{"x_min":148.609375,"x_max":1238.890625,"ha":1389,"o":"m 229 -15 b 313 72 280 -15 313 22 b 231 159 313 123 280 159 b 148 72 183 159 148 122 b 229 -15 148 22 181 -15 m 691 -15 b 776 72 743 -15 776 22 b 694 159 776 123 743 159 b 611 72 645 159 611 122 b 691 -15 611 22 644 -15 m 1154 -15 b 1238 72 1205 -15 1238 22 b 1156 159 1238 123 1205 159 b 1073 72 1108 159 1073 122 b 1154 -15 1073 22 1106 -15 "},"Ủ":{"x_min":104.171875,"x_max":794.453125,"ha":899,"o":"m 104 936 l 104 385 b 440 -15 104 93 248 -15 b 794 389 643 -15 794 101 l 794 936 l 672 936 l 672 380 b 444 83 672 175 581 83 b 226 380 319 83 226 172 l 226 936 l 104 936 m 481 985 b 581 1135 519 1049 581 1064 b 466 1235 581 1191 530 1235 b 329 1142 395 1235 354 1192 l 375 1114 b 444 1163 391 1138 415 1163 b 490 1119 470 1163 490 1146 b 418 1003 490 1074 440 1063 l 481 985 "},"H":{"x_min":104.171875,"x_max":801.390625,"ha":906,"o":"m 104 936 l 104 0 l 226 0 l 226 439 l 679 439 l 679 0 l 801 0 l 801 936 l 679 936 l 679 544 l 226 544 l 226 936 l 104 936 "},"î":{"x_min":-11.109375,"x_max":337.5,"ha":325,"o":"m 223 0 l 223 672 l 101 672 l 101 0 l 223 0 m 119 963 l -11 764 l 80 764 l 161 895 l 163 895 l 244 764 l 337 764 l 204 963 l 119 963 "},"ν":{"x_min":5.5625,"x_max":616.671875,"ha":651,"o":"m 5 672 l 251 0 l 366 0 b 616 624 488 204 616 432 b 612 672 616 640 615 658 l 498 672 b 500 610 500 653 500 633 b 326 119 500 454 381 227 l 320 119 b 263 296 302 177 286 234 l 134 672 l 5 672 "},"ư":{"x_min":97.21875,"x_max":797.21875,"ha":765,"o":"m 679 807 b 704 728 694 782 704 754 b 638 672 704 692 686 672 l 541 672 l 541 261 b 530 198 541 237 537 215 b 369 86 508 143 451 86 b 219 300 259 86 219 172 l 219 672 l 97 672 l 97 279 b 329 -15 97 44 223 -15 b 551 109 448 -15 520 55 l 554 109 l 561 0 l 669 0 b 663 183 665 52 663 113 l 663 606 l 679 606 b 797 724 747 608 797 654 b 772 824 797 760 787 795 l 679 807 "},"Ό":{"x_min":0,"x_max":961.109375,"ha":1011,"o":"m 526 -15 b 961 478 765 -15 961 157 b 538 953 961 757 795 953 b 105 461 288 953 105 758 b 526 -15 105 177 277 -15 m 533 83 b 233 464 341 83 233 265 b 534 854 233 665 333 854 b 833 472 736 854 833 660 b 533 83 833 259 725 83 m 9 936 l 0 721 l 72 721 l 120 936 l 9 936 "},"":{"x_min":30.5625,"x_max":386.109375,"ha":417,"o":"m 30 1159 b 205 1009 37 1067 91 1009 b 386 1159 323 1009 379 1066 l 293 1159 b 208 1073 287 1113 272 1073 b 123 1159 143 1073 129 1116 l 30 1159 "},"−":{"x_min":55.5625,"x_max":772.21875,"ha":828,"o":"m 55 412 l 55 329 l 772 329 l 772 412 l 55 412 "},"ā":{"x_min":48.921875,"x_max":583.640625,"ha":669,"o":"m 573 412 b 318 686 573 546 523 686 b 96 628 233 686 151 663 l 123 546 b 300 596 171 578 236 596 b 453 442 437 597 453 496 l 453 428 b 48 177 193 429 48 340 b 254 -15 48 80 118 -15 b 460 84 350 -15 422 31 l 464 84 l 473 0 l 583 0 b 573 161 576 45 573 102 l 573 412 m 455 226 b 450 187 455 215 454 201 b 285 75 430 130 373 75 b 171 191 223 75 171 111 b 455 343 171 322 322 346 l 455 226 m 179 893 l 179 814 l 491 814 l 491 893 l 179 893 "},"ĵ":{"x_min":-63.890625,"x_max":343.0625,"ha":338,"o":"m -50 -293 b 158 -216 15 -293 104 -271 b 238 59 218 -155 238 -70 l 238 672 l 116 672 l 116 107 b 69 -144 116 -54 102 -107 b -63 -197 40 -177 -6 -193 l -50 -293 m 125 953 l -5 754 l 86 754 l 166 885 l 169 885 l 250 754 l 343 754 l 209 953 l 125 953 "},"Ĩ":{"x_min":-5.59375,"x_max":338.9375,"ha":332,"o":"m 104 936 l 104 0 l 226 0 l 226 936 l 104 936 m 59 993 b 95 1055 63 1031 73 1055 b 161 1028 116 1055 134 1042 b 245 1002 191 1013 216 1002 b 338 1137 309 1002 340 1049 l 275 1137 b 237 1082 270 1092 258 1082 b 170 1107 215 1082 193 1095 b 88 1135 141 1123 119 1135 b -5 993 29 1135 -6 1078 l 59 993 "},"*":{"x_min":42,"x_max":535.015625,"ha":576,"o":"m 373 953 l 289 757 l 286 757 l 200 952 l 115 903 l 246 732 l 246 729 l 42 756 l 42 661 l 247 689 l 247 685 l 115 515 l 194 465 l 283 661 l 286 661 l 371 466 l 458 516 l 325 683 l 325 687 l 535 661 l 535 756 l 325 728 l 325 730 l 457 904 l 373 953 "},"ă":{"x_min":48.921875,"x_max":583.640625,"ha":669,"o":"m 573 412 b 318 686 573 546 523 686 b 96 628 233 686 151 663 l 123 546 b 300 596 171 578 236 596 b 453 442 437 597 453 496 l 453 428 b 48 177 193 429 48 340 b 254 -15 48 80 118 -15 b 460 84 350 -15 422 31 l 464 84 l 473 0 l 583 0 b 573 161 576 45 573 102 l 573 412 m 455 226 b 450 187 455 215 454 201 b 285 75 430 130 373 75 b 171 191 223 75 171 111 b 455 343 171 322 322 346 l 455 226 m 162 948 b 335 774 162 860 212 774 b 507 948 439 774 507 843 l 435 948 b 333 852 430 900 400 852 b 235 948 278 852 243 893 l 162 948 "},"Χ":{"x_min":35,"x_max":759,"ha":793,"o":"m 759 0 l 467 480 l 752 936 l 611 936 l 485 717 b 400 558 450 657 426 614 l 396 558 b 310 717 371 608 344 656 l 186 936 l 46 936 l 321 474 l 35 0 l 173 0 l 286 205 b 387 392 335 287 361 337 l 390 392 b 497 207 419 337 449 286 l 618 0 l 759 0 "},"†":{"x_min":59.71875,"x_max":634.71875,"ha":694,"o":"m 290 936 l 301 643 l 59 653 l 59 553 l 301 564 l 290 -69 l 404 -69 l 393 564 l 634 553 l 634 653 l 393 643 l 404 936 l 290 936 "},"°":{"x_min":40.28125,"x_max":408.328125,"ha":442,"o":"m 226 953 b 40 765 122 953 40 872 b 222 586 40 668 113 586 b 408 772 318 586 408 660 b 226 953 408 867 340 953 m 222 888 b 333 771 302 888 333 822 b 223 651 333 703 287 651 b 115 765 161 651 115 701 b 222 888 115 825 151 888 "},"Ξ":{"x_min":59.71875,"x_max":701.390625,"ha":750,"o":"m 75 936 l 75 836 l 686 836 l 686 936 l 75 936 m 120 535 l 120 435 l 640 435 l 640 535 l 120 535 m 59 101 l 59 0 l 701 0 l 701 101 l 59 101 "},"ồ":{"x_min":53.046875,"x_max":710,"ha":763,"o":"m 386 686 b 53 330 201 686 53 554 b 375 -15 53 118 194 -15 b 710 341 536 -15 710 93 b 386 686 710 546 579 686 m 383 594 b 585 337 528 594 585 451 b 380 76 585 186 497 76 b 178 335 261 76 178 187 b 383 594 178 461 240 594 m 441 1075 l 571 893 l 641 893 l 553 1075 l 441 1075 m 343 963 l 226 764 l 315 764 l 385 895 l 389 895 l 458 764 l 551 764 l 432 963 l 343 963 "},"Ķ":{"x_min":105.484375,"x_max":766.59375,"ha":753,"o":"m 105 0 l 226 0 l 226 357 l 316 460 l 623 0 l 766 0 l 401 539 l 740 936 l 590 936 l 304 585 b 230 485 280 554 255 521 l 226 485 l 226 936 l 105 936 l 105 0 m 298 -305 b 477 -157 384 -300 477 -258 b 422 -54 477 -111 449 -72 l 331 -73 b 379 -158 356 -94 379 -125 b 274 -248 379 -212 329 -240 l 298 -305 "},"ŵ":{"x_min":25,"x_max":1001,"ha":1022,"o":"m 25 672 l 227 0 l 338 0 l 447 319 b 508 542 470 392 491 461 l 510 542 b 570 321 527 462 547 396 l 673 0 l 784 0 l 1001 672 l 880 672 l 784 335 b 733 116 762 255 744 184 l 728 116 b 669 336 713 184 694 255 l 565 672 l 462 672 l 352 329 b 292 116 330 257 308 184 l 288 116 b 240 330 276 186 258 255 l 149 672 l 25 672 m 467 963 l 335 764 l 427 764 l 508 895 l 510 895 l 591 764 l 684 764 l 551 963 l 467 963 "},"΄":{"x_min":117,"x_max":314.21875,"ha":418,"o":"m 190 964 l 117 765 l 198 765 l 314 964 l 190 964 "},"ǽ":{"x_min":50.0625,"x_max":1023.890625,"ha":1074,"o":"m 1019 323 b 1023 378 1022 336 1023 357 b 761 686 1023 489 966 686 b 526 544 654 686 570 632 l 523 544 b 307 686 495 631 427 686 b 97 625 240 686 157 664 l 126 546 b 298 596 166 574 234 596 b 454 447 434 596 454 480 l 454 419 b 50 176 194 423 50 332 b 259 -15 50 79 119 -15 b 508 133 375 -15 466 40 l 512 133 b 768 -15 551 37 652 -15 b 989 30 857 -15 936 2 l 966 116 b 783 79 930 100 876 79 b 568 323 657 79 563 164 l 1019 323 m 456 239 b 450 190 456 222 454 205 b 287 75 430 127 375 73 b 170 186 223 75 170 115 b 456 337 170 318 327 340 l 456 239 m 568 411 b 748 600 572 487 626 600 b 907 411 872 600 909 479 l 568 411 m 594 963 l 473 764 l 559 764 l 729 963 l 594 963 "},"Β":{"x_min":105.5625,"x_max":695.828125,"ha":753,"o":"m 105 2 b 293 -8 145 -2 209 -8 b 615 79 445 -8 551 19 b 695 266 663 123 695 186 b 502 500 695 405 591 479 l 502 504 b 661 710 600 539 661 618 b 581 875 661 784 630 839 b 326 943 525 923 447 943 b 105 923 243 943 158 935 l 105 2 m 226 842 b 333 850 245 846 277 850 b 537 697 455 850 537 806 b 336 539 537 607 462 539 l 226 539 l 226 842 m 226 448 l 326 448 b 568 268 458 448 568 394 b 327 86 568 132 452 86 b 226 91 284 86 251 87 l 226 448 "},"Ļ":{"x_min":104.171875,"x_max":626.390625,"ha":656,"o":"m 104 0 l 626 0 l 626 101 l 226 101 l 226 936 l 104 936 l 104 0 m 259 -308 b 438 -159 345 -303 438 -261 b 383 -57 438 -113 411 -75 l 293 -76 b 340 -161 318 -97 340 -127 b 236 -251 340 -215 290 -243 l 259 -308 "},"Õ":{"x_min":50,"x_max":905.5625,"ha":957,"o":"m 483 953 b 50 461 233 953 50 758 b 470 -15 50 177 222 -15 b 905 478 709 -15 905 157 b 483 953 905 757 740 953 m 479 854 b 777 472 680 854 777 660 b 477 83 777 259 669 83 b 177 464 286 83 177 262 b 479 854 177 668 277 854 m 370 998 b 406 1057 375 1034 384 1057 b 472 1031 427 1057 445 1045 b 556 1005 502 1016 527 1005 b 650 1139 620 1005 651 1052 l 586 1139 b 548 1085 581 1095 569 1085 b 481 1110 526 1085 504 1098 b 400 1138 452 1125 430 1138 b 305 998 340 1138 304 1081 l 370 998 "},"№":{"x_min":102.78125,"x_max":1229.171875,"ha":1272,"o":"m 1012 889 b 790 643 890 889 790 800 b 1009 404 790 490 884 404 b 1229 650 1120 404 1229 477 b 1012 889 1229 795 1145 889 m 1008 820 b 1129 648 1095 820 1129 728 b 1009 474 1129 546 1083 474 b 890 645 944 474 890 546 b 1008 820 890 728 927 820 m 1193 274 l 1193 346 l 827 346 l 827 274 l 1193 274 m 211 0 l 211 374 b 204 760 211 534 208 643 l 206 762 b 348 454 248 659 297 556 l 587 0 l 711 0 l 711 909 l 602 909 l 602 538 b 615 157 602 393 605 283 l 613 156 b 472 457 575 250 527 350 l 236 909 l 102 909 l 102 0 l 211 0 "},"χ":{"x_min":15,"x_max":629,"ha":635,"o":"m 24 672 l 255 216 l 15 -264 l 119 -296 l 245 -27 b 309 115 270 26 291 75 l 315 116 l 515 -296 l 629 -265 l 384 218 l 620 672 l 502 672 l 401 458 b 331 309 373 400 351 354 l 326 309 l 155 672 l 24 672 "},"":{"x_min":0.0625,"x_max":157,"ha":182,"o":"m 66 -91 b 157 125 97 -41 133 47 l 54 116 b 0 -98 44 48 22 -37 l 66 -91 "},"ί":{"x_min":100.984375,"x_max":309.3125,"ha":328,"o":"m 184 953 l 110 754 l 192 754 l 309 953 l 184 953 m 223 672 l 100 672 l 100 150 b 227 -15 100 16 155 -15 b 281 -8 246 -15 269 -12 l 288 80 b 223 162 235 77 223 102 l 223 672 "},"Ζ":{"x_min":41.671875,"x_max":725,"ha":768,"o":"m 41 0 l 725 0 l 725 101 l 201 101 l 201 105 l 718 863 l 718 936 l 86 936 l 86 835 l 559 835 l 559 831 l 41 70 l 41 0 "},"Ľ":{"x_min":104.171875,"x_max":626.390625,"ha":656,"o":"m 104 0 l 626 0 l 626 101 l 226 101 l 226 936 l 104 936 l 104 0 m 361 700 b 540 849 447 705 540 747 b 484 952 540 895 512 933 l 394 932 b 441 847 419 911 441 881 b 337 757 441 793 391 765 l 361 700 "},"ť":{"x_min":25,"x_max":497.21875,"ha":471,"o":"m 129 795 l 129 672 l 25 672 l 25 579 l 129 579 l 129 212 b 176 35 129 132 143 73 b 308 -15 205 3 251 -15 b 418 0 355 -15 394 -7 l 412 93 b 341 85 393 88 373 85 b 248 216 272 85 248 132 l 248 579 l 425 579 l 425 672 l 248 672 l 248 833 l 129 795 m 384 751 b 497 907 419 765 497 812 b 448 1003 497 951 472 987 l 359 984 b 401 904 383 965 401 934 b 348 800 401 852 373 818 l 384 751 "},"5":{"x_min":58.328125,"x_max":619.4375,"ha":713,"o":"m 601 903 l 169 903 l 111 470 b 237 478 144 474 184 478 b 495 279 416 478 495 396 b 283 83 497 158 397 83 b 88 133 200 83 126 111 l 58 40 b 283 -15 102 12 184 -15 b 619 293 479 -15 619 117 b 490 524 619 406 561 485 b 295 572 434 559 366 572 b 222 568 262 572 243 571 l 256 800 l 601 800 l 601 903 "},"o":{"x_min":52.78125,"x_max":709.71875,"ha":763,"o":"m 386 686 b 52 330 201 686 52 554 b 375 -15 52 118 194 -15 b 709 341 536 -15 709 93 b 386 686 709 546 579 686 m 383 594 b 584 337 527 594 584 451 b 380 76 584 186 497 76 b 177 335 261 76 177 187 b 383 594 177 461 240 594 "},"Ѕ":{"x_min":57.78125,"x_max":623.0625,"ha":685,"o":"m 57 45 b 296 -15 107 12 206 -15 b 623 255 517 -15 623 111 b 385 531 623 393 543 469 b 199 711 256 581 199 624 b 375 852 199 775 248 852 b 552 807 460 852 523 825 l 585 906 b 380 952 545 929 474 952 b 77 697 198 952 77 843 b 324 430 77 567 171 486 b 500 246 450 383 500 332 b 305 86 500 151 428 86 b 89 147 221 86 143 112 l 57 45 "},"d":{"x_min":52.765625,"x_max":686.109375,"ha":783,"o":"m 559 986 l 559 585 l 556 585 b 354 686 526 638 458 686 b 52 326 191 686 51 550 b 341 -15 52 122 179 -15 b 568 116 451 -15 531 41 l 572 116 l 577 0 l 686 0 b 680 173 683 45 680 113 l 680 986 l 559 986 m 559 282 b 554 229 559 262 558 246 b 375 83 531 139 456 83 b 176 332 244 83 176 196 b 377 590 176 479 251 590 b 554 450 469 590 536 526 b 559 398 558 435 559 414 l 559 282 "},",":{"x_min":21.5625,"x_max":241,"ha":288,"o":"m 107 -162 b 241 175 146 -97 207 57 l 104 161 b 21 -172 89 59 52 -88 l 107 -162 "},"":{"x_min":25.96875,"x_max":391.25,"ha":408,"o":"m 25 909 l 25 832 l 292 832 l 292 831 l 55 369 l 152 369 l 391 849 l 391 909 l 25 909 "},"\"":{"x_min":70.828125,"x_max":398.609375,"ha":468,"o":"m 70 961 l 93 628 l 168 628 l 191 961 l 70 961 m 277 961 l 301 628 l 375 628 l 398 961 l 277 961 "},"ľ":{"x_min":101.390625,"x_max":422.21875,"ha":339,"o":"m 101 0 l 223 0 l 223 986 l 101 986 l 101 0 m 331 725 b 422 894 352 743 422 793 b 372 999 422 943 397 983 l 286 979 b 327 889 308 958 327 923 b 279 765 327 832 300 791 l 331 725 "},"":{"x_min":50,"x_max":377.78125,"ha":438,"o":"m 286 -215 l 286 -133 b 377 -109 326 -130 359 -118 l 363 -44 b 269 -62 343 -52 313 -62 b 143 72 200 -62 143 -15 b 272 207 143 150 193 207 b 356 187 312 207 338 197 l 375 257 b 286 276 352 266 320 276 l 286 355 l 222 355 l 222 275 b 50 66 115 257 50 172 b 97 -70 50 9 68 -38 b 222 -132 127 -104 166 -125 l 222 -215 l 286 -215 "},"ė":{"x_min":52.953125,"x_max":646.015625,"ha":696,"o":"m 641 314 b 646 371 644 328 646 346 b 368 686 646 494 589 686 b 52 325 172 686 52 528 b 383 -15 52 122 176 -15 b 608 27 490 -15 565 8 l 586 115 b 400 80 541 95 487 80 b 169 314 276 80 172 148 l 641 314 m 171 401 b 358 599 180 486 233 599 b 527 401 496 599 529 478 l 171 401 m 352 792 b 422 863 394 792 422 825 b 354 935 422 903 393 935 b 283 863 315 935 283 903 b 352 792 283 825 312 792 "},"ề":{"x_min":53,"x_max":646.015625,"ha":696,"o":"m 640 314 b 646 371 644 328 646 346 b 368 686 646 494 589 686 b 53 325 172 686 53 528 b 383 -15 53 122 176 -15 b 608 27 490 -15 565 8 l 586 115 b 400 80 541 95 487 80 b 169 314 276 80 172 148 l 640 314 m 171 401 b 358 599 180 486 233 599 b 528 401 496 599 529 478 l 171 401 m 421 1075 l 550 893 l 619 893 l 532 1075 l 421 1075 m 321 963 l 203 764 l 293 764 l 364 895 l 366 895 l 437 764 l 530 764 l 409 963 l 321 963 "},"Í":{"x_min":93.0625,"x_max":369.4375,"ha":332,"o":"m 104 936 l 104 0 l 226 0 l 226 936 l 104 936 m 222 1149 l 93 986 l 191 986 l 369 1149 l 222 1149 "},"":{"x_min":36.109375,"x_max":365.28125,"ha":503,"o":"m 365 0 l 365 674 l 263 674 l 36 572 l 58 480 l 245 567 l 248 567 l 248 0 l 365 0 "},"":{"x_min":4.171875,"x_max":580.5625,"ha":621,"o":"m 580 0 l 580 101 l 176 101 l 176 104 l 247 170 b 558 656 437 354 558 489 b 281 918 558 785 476 918 b 27 827 179 918 88 878 l 66 740 b 258 817 108 775 176 817 b 436 640 393 817 436 732 b 100 168 436 504 330 387 l 4 75 l 4 0 l 580 0 "},"⁾":{"x_min":18.0625,"x_max":195.828125,"ha":250,"o":"m 88 533 b 195 870 138 603 195 710 b 88 1206 195 1032 138 1139 l 18 1206 b 118 870 73 1125 118 1017 b 18 533 118 722 72 615 l 88 533 "},"Ú":{"x_min":104.171875,"x_max":794.453125,"ha":899,"o":"m 104 936 l 104 385 b 440 -15 104 93 248 -15 b 794 389 643 -15 794 101 l 794 936 l 672 936 l 672 380 b 444 83 672 175 581 83 b 226 380 319 83 226 172 l 226 936 l 104 936 m 509 1149 l 380 986 l 479 986 l 656 1149 l 509 1149 "},"Ơ":{"x_min":50.265625,"x_max":943.34375,"ha":957,"o":"m 478 83 b 178 464 286 83 178 265 b 479 854 178 665 278 854 b 778 472 680 854 778 660 b 478 83 778 259 669 83 m 822 1030 b 846 941 836 1005 846 974 b 783 878 846 899 829 878 b 629 928 739 878 672 914 b 483 953 593 942 540 953 b 50 461 233 953 50 758 b 471 -15 50 177 222 -15 b 905 478 710 -15 905 157 b 797 809 905 625 860 738 b 943 934 897 800 943 857 b 916 1048 943 981 930 1017 l 822 1030 "},"":{"x_min":50,"x_max":377.78125,"ha":438,"o":"m 286 358 l 286 440 b 377 464 326 443 359 454 l 363 529 b 269 511 343 521 313 511 b 143 646 200 511 143 558 b 272 781 143 724 193 781 b 356 761 312 781 338 771 l 375 831 b 286 850 352 840 320 850 l 286 929 l 222 929 l 222 849 b 50 640 115 831 50 746 b 97 503 50 583 68 535 b 222 442 127 469 166 448 l 222 358 l 286 358 "},"Ŷ":{"x_min":16.671875,"x_max":748.609375,"ha":751,"o":"m 436 0 l 436 398 l 748 936 l 612 936 l 477 678 b 383 485 441 607 408 546 l 380 485 b 287 678 351 550 322 607 l 155 936 l 16 936 l 313 397 l 313 0 l 436 0 m 327 1145 l 186 986 l 284 986 l 373 1082 l 376 1082 l 463 986 l 566 986 l 420 1145 l 327 1145 "},"":{"x_min":44.4375,"x_max":690.28125,"ha":736,"o":"m 690 69 l 690 162 l 563 162 l 563 683 l 431 683 l 44 148 l 44 69 l 450 69 l 450 -162 l 563 -162 l 563 69 l 690 69 m 450 162 l 166 162 l 165 166 l 373 443 b 448 574 400 483 426 529 l 454 572 b 450 441 450 528 450 486 l 450 162 "},"Ự":{"x_min":104.171875,"x_max":940.28125,"ha":940,"o":"m 823 1070 b 845 989 837 1045 845 1016 b 781 936 845 953 829 936 l 672 936 l 672 380 b 444 83 672 175 581 83 b 226 380 319 83 226 172 l 226 936 l 104 936 l 104 385 b 440 -15 104 93 248 -15 b 794 389 643 -15 794 101 l 794 863 l 815 864 b 940 982 898 867 940 914 b 916 1087 940 1021 930 1056 l 823 1070 m 469 -111 b 398 -183 430 -111 398 -143 b 468 -254 398 -221 427 -254 b 537 -183 509 -254 537 -221 b 469 -111 537 -143 508 -111 "},"Ý":{"x_min":16.78125,"x_max":748.71875,"ha":751,"o":"m 436 0 l 436 398 l 748 936 l 612 936 l 477 678 b 383 485 441 607 408 546 l 380 485 b 287 678 351 550 322 607 l 155 936 l 16 936 l 314 397 l 314 0 l 436 0 m 444 1142 l 315 979 l 414 979 l 591 1142 l 444 1142 "},"ŝ":{"x_min":55.9375,"x_max":494.015625,"ha":550,"o":"m 55 31 b 244 -15 103 4 171 -15 b 494 187 401 -15 494 68 b 317 389 494 287 433 346 b 191 504 230 423 191 448 b 302 596 191 554 230 596 b 439 556 365 596 413 572 l 469 644 b 305 686 432 668 373 686 b 73 489 162 686 73 597 b 252 298 73 408 130 343 b 376 176 341 265 376 234 b 247 76 376 119 334 76 b 85 123 186 76 122 101 l 55 31 m 234 963 l 104 764 l 196 764 l 274 895 l 277 895 l 359 764 l 452 764 l 319 963 l 234 963 "},"₁":{"x_min":30.5625,"x_max":245.828125,"ha":339,"o":"m 245 -204 l 245 338 l 161 338 l 30 276 l 45 204 l 145 253 l 148 253 l 148 -204 l 245 -204 "},"ą":{"x_min":48.921875,"x_max":645.265625,"ha":669,"o":"m 573 412 b 317 686 573 546 523 686 b 96 628 233 686 151 663 l 123 546 b 299 596 170 578 236 596 b 452 442 437 597 452 496 l 452 428 b 48 177 193 429 48 340 b 254 -15 48 80 118 -15 b 459 84 349 -15 421 31 l 463 84 l 473 4 b 406 -168 446 -34 406 -98 b 530 -286 406 -244 459 -286 b 645 -252 567 -286 611 -276 l 625 -189 b 561 -202 607 -197 588 -202 b 495 -133 523 -202 495 -180 b 549 0 495 -84 528 -27 l 584 0 b 573 161 575 44 573 98 l 573 412 m 455 226 b 449 187 455 214 453 200 b 284 75 430 130 373 75 b 170 191 223 75 170 111 b 455 343 170 322 322 346 l 455 226 "},"":{"x_min":77.78125,"x_max":241.671875,"ha":319,"o":"m 226 0 l 206 663 l 112 663 l 93 0 l 226 0 m 161 949 b 77 861 112 949 77 913 b 159 777 77 814 111 777 b 241 861 209 777 241 814 b 161 949 241 913 209 949 "},"Ắ":{"x_min":36,"x_max":819,"ha":850,"o":"m 588 294 l 688 0 l 819 0 l 498 936 l 353 936 l 36 0 l 160 0 l 258 294 l 588 294 m 281 389 l 373 660 b 420 829 392 718 406 775 l 423 829 b 471 658 437 775 451 720 l 564 389 l 281 389 m 256 1114 b 428 971 266 1036 320 971 b 603 1114 537 971 594 1041 l 538 1114 b 430 1046 527 1077 501 1046 b 323 1114 362 1046 333 1081 l 256 1114 m 483 1245 l 378 1099 l 455 1099 l 609 1245 l 483 1245 "},"ã":{"x_min":48.921875,"x_max":583.640625,"ha":669,"o":"m 573 412 b 318 686 573 546 523 686 b 96 628 233 686 151 663 l 123 546 b 300 596 171 578 236 596 b 453 442 437 597 453 496 l 453 428 b 48 177 193 429 48 340 b 254 -15 48 80 118 -15 b 460 84 350 -15 422 31 l 464 84 l 473 0 l 583 0 b 573 161 576 45 573 102 l 573 412 m 455 226 b 450 187 455 215 454 201 b 285 75 430 130 373 75 b 171 191 223 75 171 111 b 455 343 171 322 322 346 l 455 226 m 226 788 b 262 850 229 827 240 850 b 322 825 279 850 294 842 b 408 796 351 810 378 796 b 503 936 473 796 504 845 l 437 936 b 398 878 435 891 421 878 b 340 902 382 878 362 889 b 254 932 308 918 285 932 b 160 788 194 932 157 878 l 226 788 "},"":{"x_min":137.5,"x_max":276.390625,"ha":417,"o":"m 208 -111 b 137 -183 169 -111 137 -143 b 206 -254 137 -221 166 -254 b 276 -183 248 -254 276 -221 b 208 -111 276 -143 247 -111 "},"æ":{"x_min":50.0625,"x_max":1023.890625,"ha":1074,"o":"m 1019 323 b 1023 378 1022 336 1023 357 b 761 686 1023 489 966 686 b 526 544 654 686 571 632 l 523 544 b 307 686 496 631 427 686 b 97 625 240 686 157 664 l 126 546 b 298 596 166 574 234 596 b 454 447 434 596 454 480 l 454 419 b 50 176 194 423 50 332 b 259 -15 50 79 119 -15 b 508 133 375 -15 466 40 l 512 133 b 768 -15 551 37 652 -15 b 989 30 857 -15 936 2 l 966 116 b 783 79 930 100 876 79 b 568 323 657 79 564 164 l 1019 323 m 457 239 b 450 190 457 222 454 205 b 287 75 430 127 375 73 b 170 186 223 75 170 115 b 457 337 170 318 327 340 l 457 239 m 568 411 b 748 600 572 487 626 600 b 907 411 872 600 909 479 l 568 411 "},"":{"x_min":43.0625,"x_max":387.5,"ha":417,"o":"m 233 1081 b 329 1226 269 1144 329 1157 b 219 1323 329 1280 281 1323 b 86 1234 151 1323 111 1283 l 130 1207 b 197 1256 147 1230 169 1256 b 244 1212 223 1256 244 1238 b 173 1098 244 1169 194 1155 l 233 1081 m 43 1114 b 212 971 51 1038 104 971 b 387 1114 322 971 379 1041 l 323 1114 b 213 1046 312 1077 286 1046 b 108 1114 145 1046 116 1081 l 43 1114 "},"ĩ":{"x_min":-8.46875,"x_max":334.765625,"ha":325,"o":"m 223 0 l 223 672 l 101 672 l 101 0 l 223 0 m 58 788 b 94 850 61 827 72 850 b 154 827 111 850 126 842 b 240 796 183 810 209 796 b 334 936 305 796 336 845 l 269 936 b 231 878 266 891 252 878 b 172 902 213 878 194 889 b 86 932 140 918 116 932 b -8 788 26 932 -11 878 l 58 788 "},"":{"x_min":50,"x_max":663.890625,"ha":713,"o":"m 365 918 b 50 448 181 918 50 753 b 350 -15 52 150 173 -15 b 663 461 548 -15 663 154 b 365 918 663 749 554 918 m 356 824 b 540 455 484 824 540 678 b 356 79 540 225 480 79 b 173 447 245 79 173 212 b 356 824 173 693 251 824 "},"~":{"x_min":67.890625,"x_max":760.15625,"ha":828,"o":"m 151 291 b 233 410 152 375 183 410 b 400 348 283 410 334 380 b 601 287 495 304 545 287 b 759 497 687 287 766 343 l 677 497 b 602 380 676 421 652 380 b 430 439 551 380 500 405 b 233 501 336 483 291 501 b 68 291 137 501 63 430 l 151 291 "},"ŀ":{"x_min":101.390625,"x_max":415.28125,"ha":378,"o":"m 101 0 l 223 0 l 223 986 l 101 986 l 101 0 m 350 474 b 415 543 388 474 415 505 b 351 613 415 582 387 613 b 284 543 313 613 284 581 b 350 474 284 505 312 474 "},"":{"x_min":41.671875,"x_max":384.71875,"ha":426,"o":"m 41 524 l 41 435 l 384 435 l 384 524 l 41 524 "},"":{"x_min":51.390625,"x_max":661.109375,"ha":713,"o":"m 230 471 b 51 227 119 423 51 341 b 354 -15 51 95 165 -15 b 661 247 526 -15 661 88 b 479 480 661 355 591 436 l 479 485 b 629 696 590 536 629 619 b 365 918 629 810 540 918 b 84 678 205 918 84 821 b 229 475 84 600 127 522 l 230 471 m 356 73 b 176 244 241 73 172 154 b 338 432 176 330 233 401 b 537 234 461 397 537 343 b 356 73 537 141 466 73 m 358 831 b 511 683 468 831 511 756 b 373 519 511 601 451 546 b 201 686 269 547 200 596 b 358 831 201 764 256 831 "},"Ċ":{"x_min":50,"x_max":761.109375,"ha":806,"o":"m 734 126 b 536 87 686 102 611 87 b 177 464 309 87 177 233 b 543 850 177 710 323 850 b 730 811 620 850 686 834 l 761 910 b 538 952 729 927 654 952 b 50 460 248 952 50 754 b 511 -15 50 151 247 -15 b 758 29 625 -15 715 6 l 734 126 m 483 999 b 551 1070 522 999 551 1032 b 484 1139 551 1106 522 1139 b 415 1070 445 1139 415 1106 b 483 999 415 1032 444 999 "},"¡":{"x_min":77.78125,"x_max":241.671875,"ha":319,"o":"m 226 -271 l 206 392 l 112 392 l 93 -271 l 226 -271 m 161 678 b 77 590 112 678 77 642 b 159 505 77 543 111 505 b 241 590 209 505 241 543 b 161 678 241 642 209 678 "},"ẅ":{"x_min":25,"x_max":1001.390625,"ha":1022,"o":"m 25 674 l 227 1 l 338 1 l 447 321 b 508 543 470 393 491 462 l 511 543 b 570 322 527 464 547 397 l 673 1 l 784 1 l 1001 674 l 880 674 l 784 336 b 733 118 762 257 744 186 l 729 118 b 669 337 713 186 694 257 l 565 674 l 462 674 l 352 330 b 293 118 330 258 308 186 l 288 118 b 240 332 276 187 258 257 l 150 674 l 25 674 m 380 793 b 450 864 422 793 450 827 b 383 935 450 904 420 935 b 312 864 343 935 312 903 b 380 793 312 827 341 793 m 638 793 b 708 864 680 793 708 827 b 640 935 708 904 679 935 b 570 864 601 935 570 903 b 638 793 570 827 598 793 "},"ậ":{"x_min":48.921875,"x_max":583.75,"ha":669,"o":"m 574 412 b 318 686 574 546 524 686 b 96 628 233 686 151 663 l 123 546 b 300 596 171 578 236 596 b 453 442 437 597 453 496 l 453 428 b 48 177 193 429 48 340 b 254 -15 48 80 118 -15 b 460 84 350 -15 422 31 l 464 84 l 474 0 l 583 0 b 574 161 576 45 574 102 l 574 412 m 455 226 b 450 187 455 215 454 201 b 285 75 430 130 373 75 b 171 191 223 75 171 111 b 455 343 171 322 322 346 l 455 226 m 290 963 l 161 764 l 253 764 l 332 895 l 335 895 l 417 764 l 510 764 l 376 963 l 290 963 m 335 -111 b 264 -183 296 -111 264 -143 b 333 -254 264 -221 293 -254 b 403 -183 375 -254 403 -221 b 335 -111 403 -143 373 -111 "},"К":{"x_min":105.5625,"x_max":740.28125,"ha":753,"o":"m 105 936 l 105 0 l 226 0 l 226 429 l 265 429 b 525 221 423 429 481 344 b 611 0 551 147 576 63 l 740 0 b 637 265 700 83 673 169 b 375 507 590 392 530 486 l 729 936 l 584 936 l 263 521 l 226 521 l 226 936 l 105 936 "},"Γ":{"x_min":104.171875,"x_max":606.9375,"ha":626,"o":"m 104 936 l 104 0 l 226 0 l 226 835 l 606 835 l 606 936 l 104 936 "},"Ử":{"x_min":104.171875,"x_max":940.28125,"ha":940,"o":"m 823 1070 b 845 989 837 1045 845 1016 b 781 936 845 953 829 936 l 672 936 l 672 380 b 444 83 672 175 581 83 b 226 380 319 83 226 172 l 226 936 l 104 936 l 104 385 b 440 -15 104 93 248 -15 b 794 389 643 -15 794 101 l 794 863 l 815 864 b 940 982 898 867 940 914 b 916 1087 940 1021 930 1056 l 823 1070 m 504 985 b 602 1135 540 1049 602 1064 b 487 1235 602 1191 551 1235 b 350 1142 416 1235 375 1192 l 397 1114 b 465 1163 412 1138 436 1163 b 511 1119 493 1163 511 1146 b 438 1003 511 1074 461 1063 l 504 985 "},"P":{"x_min":105.5625,"x_max":681.953125,"ha":739,"o":"m 105 0 l 226 0 l 226 375 b 323 366 254 368 287 366 b 609 469 441 366 544 401 b 681 670 656 518 681 585 b 600 866 681 753 650 821 b 337 943 544 916 456 943 b 105 925 240 943 163 935 l 105 0 m 226 838 b 340 847 247 843 287 847 b 561 663 472 847 561 788 b 326 464 561 536 472 464 b 226 474 286 464 252 467 l 226 838 "},"%":{"x_min":41.671875,"x_max":1056.953125,"ha":1100,"o":"m 261 918 b 41 636 138 918 41 817 b 252 365 43 455 138 365 b 468 650 369 365 468 460 b 261 918 468 821 386 918 m 254 845 b 372 643 340 845 372 754 b 255 439 372 525 336 439 b 137 642 179 439 134 526 b 254 845 137 754 179 845 m 320 -16 l 852 920 l 775 920 l 243 -16 l 320 -16 m 850 544 b 630 262 727 544 630 443 b 841 -9 631 80 727 -9 b 1056 275 958 -9 1056 84 b 850 544 1056 447 975 544 m 843 471 b 961 269 929 471 961 379 b 844 63 961 150 925 63 b 726 266 768 63 723 151 b 843 471 726 380 768 471 "},"":{"x_min":25.96875,"x_max":391.25,"ha":408,"o":"m 25 539 l 25 462 l 292 462 l 292 461 l 55 0 l 152 0 l 391 479 l 391 539 l 25 539 "},"_":{"x_min":0,"x_max":694.453125,"ha":694,"o":"m 0 -104 l 0 -173 l 694 -173 l 694 -104 l 0 -104 "},"ñ":{"x_min":95.828125,"x_max":673.609375,"ha":771,"o":"m 101 0 l 223 0 l 223 404 b 231 461 223 425 226 446 b 395 586 254 529 316 586 b 551 387 511 586 551 496 l 551 0 l 673 0 l 673 400 b 436 686 673 631 529 686 b 213 561 325 686 247 624 l 211 561 l 204 672 l 95 672 b 101 490 100 617 101 561 l 101 0 m 281 788 b 318 850 284 827 295 850 b 377 825 334 850 350 840 b 462 796 405 810 431 796 b 556 936 527 796 558 845 l 491 936 b 454 878 488 891 475 878 b 395 902 436 878 418 889 b 309 932 363 918 340 932 b 215 788 250 932 212 878 l 281 788 "},"Ŕ":{"x_min":105.5625,"x_max":715.28125,"ha":747,"o":"m 105 0 l 226 0 l 226 405 l 340 405 b 529 223 450 401 501 353 b 590 0 554 107 575 27 l 715 0 b 643 257 695 36 673 126 b 506 446 620 354 577 421 l 506 450 b 681 688 604 483 681 565 b 608 867 681 761 654 825 b 337 943 551 918 466 943 b 105 924 255 943 166 935 l 105 0 m 226 839 b 345 849 247 845 287 849 b 561 675 473 849 561 796 b 350 497 561 568 479 497 l 226 497 l 226 839 m 419 1152 l 290 989 l 388 989 l 566 1152 l 419 1152 "},"‚":{"x_min":29.0625,"x_max":236,"ha":288,"o":"m 106 -155 b 236 175 144 -91 204 58 l 111 161 b 29 -164 95 61 58 -82 l 106 -155 "},"Æ":{"x_min":-1.125,"x_max":1050.140625,"ha":1094,"o":"m 123 0 l 273 329 l 561 329 l 602 0 l 1048 0 l 1050 101 l 707 101 l 665 436 l 998 436 l 998 536 l 650 536 l 614 835 l 1011 835 l 1012 936 l 426 936 l -1 0 l 123 0 m 314 428 l 434 701 b 494 849 455 752 477 804 l 500 849 b 516 697 502 802 511 740 l 547 428 l 314 428 "},"Ū":{"x_min":104.171875,"x_max":794.453125,"ha":899,"o":"m 104 936 l 104 385 b 440 -15 104 93 248 -15 b 794 389 643 -15 794 101 l 794 936 l 672 936 l 672 380 b 444 83 672 175 581 83 b 226 380 319 83 226 172 l 226 936 l 104 936 m 281 1095 l 281 1018 l 615 1018 l 615 1095 l 281 1095 "},"ы":{"x_min":97.21875,"x_max":825,"ha":924,"o":"m 97 672 l 97 2 b 277 -6 148 -2 211 -6 b 548 70 366 -6 475 8 b 619 226 591 107 619 155 b 327 453 619 393 472 453 b 219 444 283 453 244 448 l 219 672 l 97 672 m 218 357 b 308 365 243 362 273 365 b 497 223 400 365 497 332 b 302 80 497 118 397 80 b 218 86 269 80 243 82 l 218 357 m 704 672 l 704 0 l 825 0 l 825 672 l 704 672 "},"ѓ":{"x_min":98.609375,"x_max":511.109375,"ha":535,"o":"m 98 672 l 98 0 l 219 0 l 219 575 l 511 575 l 511 672 l 98 672 m 347 963 l 225 764 l 311 764 l 480 963 l 347 963 "},"Œ":{"x_min":50,"x_max":1190.28125,"ha":1242,"o":"m 1190 101 l 784 101 l 784 437 l 1147 437 l 1147 537 l 784 537 l 784 835 l 1169 835 l 1169 936 l 722 936 b 633 945 697 936 668 941 b 511 953 598 949 559 953 b 50 461 241 953 50 770 b 504 -15 50 193 212 -15 b 619 -8 547 -15 584 -11 b 711 0 652 -4 683 0 l 1190 0 l 1190 101 m 662 101 b 526 83 631 90 577 83 b 177 467 305 83 177 239 b 513 854 177 696 305 854 b 662 834 581 854 626 846 l 662 101 "},"΅":{"x_min":5.5625,"x_max":470.828125,"ha":481,"o":"m 211 986 l 181 768 l 248 768 l 316 986 l 211 986 m 69 796 b 134 861 108 796 134 827 b 72 928 134 899 106 928 b 5 861 34 928 5 899 b 69 796 5 827 31 796 m 404 796 b 470 861 444 796 470 827 b 406 928 470 899 443 928 b 341 861 370 928 341 899 b 404 796 341 827 368 796 "},"Ạ":{"x_min":34.71875,"x_max":818.0625,"ha":850,"o":"m 588 294 l 688 0 l 818 0 l 498 936 l 354 936 l 34 0 l 159 0 l 256 294 l 588 294 m 281 389 l 373 660 b 420 829 393 717 406 774 l 423 829 b 472 658 437 775 451 720 l 565 389 l 281 389 m 420 -111 b 350 -182 381 -111 350 -143 b 419 -254 350 -221 379 -254 b 488 -182 461 -254 488 -221 b 420 -111 488 -143 459 -111 "},"Ą":{"x_min":35.265625,"x_max":847.765625,"ha":850,"o":"m 499 936 l 354 936 l 35 0 l 161 0 l 257 294 l 589 294 l 688 5 b 606 -165 656 -31 606 -97 b 736 -286 606 -244 658 -286 b 847 -252 769 -286 818 -275 l 828 -190 b 765 -204 811 -198 789 -204 b 694 -132 725 -204 694 -177 b 768 -2 694 -82 746 -25 l 819 0 l 499 936 m 282 389 l 374 660 b 421 829 393 717 407 775 l 424 829 b 472 658 438 775 451 720 l 565 389 l 282 389 "},"Њ":{"x_min":104.171875,"x_max":1191.671875,"ha":1246,"o":"m 104 937 l 104 0 l 226 0 l 226 460 l 597 460 l 597 3 b 787 -7 637 -2 700 -7 b 1113 95 919 -7 1036 18 b 1191 298 1161 142 1191 207 b 847 578 1191 495 1029 578 b 718 572 797 578 747 576 l 718 937 l 597 937 l 597 563 l 226 563 l 226 937 l 104 937 m 718 478 b 822 484 744 481 779 484 b 1065 294 950 484 1065 431 b 816 86 1065 149 948 86 b 718 93 776 86 747 88 l 718 478 "},"ỷ":{"x_min":12.5,"x_max":644.4375,"ha":654,"o":"m 12 672 l 259 52 b 269 20 266 37 269 27 b 259 -8 269 13 265 4 b 156 -144 230 -70 190 -118 b 50 -204 120 -175 80 -194 l 80 -305 b 230 -227 111 -300 169 -279 b 461 193 313 -154 373 -37 l 644 672 l 515 672 l 381 278 b 338 137 365 229 351 177 l 336 137 b 291 275 325 177 308 230 l 145 672 l 12 672 m 359 736 b 463 899 390 800 463 821 b 347 1003 463 961 412 1003 b 211 911 277 1003 234 961 l 258 882 b 325 931 273 907 295 931 b 372 885 351 931 372 913 b 293 753 372 834 309 814 l 359 736 "},"›":{"x_min":33,"x_max":315,"ha":354,"o":"m 217 350 l 33 94 l 130 94 l 315 350 l 130 606 l 33 606 l 217 350 "},"ћ":{"x_min":9.71875,"x_max":695.828125,"ha":793,"o":"m 9 868 l 9 781 l 123 781 l 123 0 l 245 0 l 245 393 b 254 457 245 417 248 439 b 418 578 276 519 336 578 b 573 379 533 578 573 487 l 573 0 l 695 0 l 695 393 b 461 679 695 581 601 679 b 331 644 412 679 369 667 b 248 562 298 625 270 597 l 245 562 l 245 781 l 526 781 l 526 868 l 245 868 l 245 986 l 123 986 l 123 868 l 9 868 "},"":{"x_min":31.9375,"x_max":434.71875,"ha":467,"o":"m 229 362 b 434 644 365 362 434 475 b 236 918 434 813 363 918 b 31 639 111 918 31 811 b 229 362 31 467 108 362 m 233 433 b 129 642 169 433 129 508 b 233 847 129 772 170 847 b 337 642 302 847 337 771 b 233 433 337 511 301 433 "},"":{"x_min":29.171875,"x_max":151.390625,"ha":182,"o":"m 88 607 b 151 670 126 607 151 635 b 90 732 151 707 126 732 b 29 670 55 732 29 707 b 88 607 29 635 54 607 "},"<":{"x_min":91.671875,"x_max":736.109375,"ha":828,"o":"m 91 332 l 736 0 l 736 95 l 193 368 l 193 371 l 736 643 l 736 739 l 91 407 l 91 332 "},"¬":{"x_min":55.5625,"x_max":772.21875,"ha":828,"o":"m 55 554 l 55 471 l 683 471 l 683 168 l 772 168 l 772 554 l 55 554 "},"t":{"x_min":25,"x_max":423.609375,"ha":460,"o":"m 129 797 l 129 672 l 25 672 l 25 579 l 129 579 l 129 212 b 176 36 129 133 143 73 b 308 -15 205 4 251 -15 b 416 1 355 -15 393 -6 l 411 94 b 340 86 393 88 373 86 b 248 216 272 86 248 133 l 248 579 l 423 579 l 423 672 l 248 672 l 248 834 l 129 797 "},"Ц":{"x_min":104.171875,"x_max":859.71875,"ha":906,"o":"m 104 936 l 104 0 l 748 0 l 756 -226 l 851 -226 l 859 95 l 777 98 l 777 936 l 655 936 l 655 101 l 226 101 l 226 936 l 104 936 "},"":{"x_min":33.328125,"x_max":422.21875,"ha":456,"o":"m 233 918 b 52 771 130 918 52 860 b 140 651 52 723 80 678 l 140 647 b 33 508 73 621 33 575 b 225 362 33 433 100 362 b 422 520 340 362 422 426 b 313 657 422 587 376 633 l 313 659 b 401 783 376 687 401 736 b 233 918 401 853 345 918 m 227 427 b 126 519 163 427 126 472 b 218 619 126 566 158 602 b 327 514 283 602 327 575 b 227 427 327 465 288 427 m 227 854 b 313 773 288 854 313 812 b 237 685 313 728 280 698 b 140 776 177 700 140 728 b 227 854 140 818 170 854 "}}}
